<svg width="17" height="24" viewBox="0 0 17 24" fill="none" xmlns="http://www.w3.org/2000/svg">
<path d="M11.0468 4.49934C12.4544 4.49934 13.5964 3.49168 13.5964 2.24967C13.5964 1.00767 12.4544 0 11.0468 0C9.63923 0 8.49724 1.00767 8.49724 2.24967C8.49724 3.49168 9.63923 4.49934 11.0468 4.49934ZM16.0663 11.4874L14.8287 10.9343L14.3134 9.55641C13.5326 7.46609 11.3549 6.00381 8.88498 5.99912C6.97281 5.99443 5.9158 6.47249 3.92926 7.1802C2.78195 7.58795 1.8418 8.36128 1.28939 9.34551L0.933514 9.98291C0.519209 10.7234 0.85384 11.6233 1.68776 11.9936C2.51637 12.3638 3.52558 12.0639 3.94519 11.3233L4.30107 10.6859C4.48698 10.3579 4.79505 10.1001 5.17748 9.96417L6.60099 9.45799L5.79363 12.3029C5.51743 13.2777 5.81488 14.3135 6.58506 15.0587L9.76671 18.1239C10.1491 18.4942 10.42 18.9394 10.5581 19.4222L11.5302 22.8576C11.7586 23.659 12.6828 24.1512 13.5911 23.9496C14.4993 23.7481 15.0571 22.9326 14.8287 22.1311L13.6495 17.9599C13.5114 17.4771 13.2405 17.0272 12.8581 16.6616L10.4413 14.3323L11.3549 11.1124L11.647 11.8858C11.9285 12.6403 12.5341 13.2637 13.3308 13.6199L14.5684 14.1729C15.397 14.5432 16.4062 14.2432 16.8258 13.5027C17.2348 12.7669 16.9002 11.8576 16.0663 11.4874ZM3.90801 18.0817C3.73804 18.4614 3.48308 18.8035 3.15376 19.0894L0.497963 21.4375C-0.165988 22.0233 -0.165988 22.9748 0.497963 23.5606C1.16191 24.1465 2.23486 24.1465 2.89881 23.5606L6.0539 20.7766C6.37791 20.4907 6.63286 20.1486 6.80815 19.769L7.52521 18.1848C4.5879 15.3587 5.46962 16.2257 5.00751 15.668L3.90801 18.0817Z" fill="#FEFEFE"/>
</svg>
