<svg width="216" height="228" viewBox="0 0 216 228" fill="none" xmlns="http://www.w3.org/2000/svg">
<g filter="url(#filter0_d_498_585)">
<path d="M81.7071 150.752C83.4906 146.332 85.7343 142.053 87.8054 137.727C90.7467 131.597 93.616 125.444 96.6651 119.004C95.3132 119.004 94.1985 119.016 93.091 119.004C89.0998 118.952 85.835 116.675 85.4035 113.651C84.9216 110.282 87.115 107.515 90.9984 106.598C91.5377 106.47 92.0771 106.33 92.6811 106.178C86.4175 96.7435 79.6288 87.6419 74.2137 77.8689C74.0771 82.4285 70.7259 85.114 66.2816 87.0756C64.455 87.8813 62.3048 87.566 60.284 87.5718C56.8178 87.5835 55.0871 86.1804 55.0919 83.3626C55.0991 80.7938 54.8258 81.1558 57.9181 81.1324C59.4426 81.1207 60.9672 81.1733 62.4846 81.1149C64.8937 81.0273 66.3751 79.8247 66.3823 78.0382C66.3823 76.2284 64.944 75.1776 62.4702 75.0141C53.2221 74.4186 44.2689 73.035 36.7683 68.131C27.6784 62.1936 22.5509 54.4873 21.4147 45.0588C20.9041 40.832 20.8394 36.576 21.3644 32.3493C22.0619 26.7097 26.4127 22.4128 33.1366 21.3036C33.3164 21.2744 33.453 21.1051 33.6184 21C35.3588 21 37.0991 21 38.8394 21C39.0839 21.1051 39.314 21.2627 39.5801 21.3153C44.348 22.2961 47.8861 24.4386 49.8422 28.2217C50.7842 30.0432 51.2876 31.8939 51.453 33.8497C51.604 35.5777 53.1358 36.6519 55.1925 36.6344C57.2421 36.6169 58.6947 35.5077 58.8673 33.7854C58.9177 33.26 58.968 32.7171 58.8745 32.1975C58.6372 30.8605 59.2916 30.5219 60.9097 30.5278C71.1142 30.5862 81.326 30.5511 91.5377 30.5628C104.568 30.5745 117.599 30.5978 130.63 30.6153C130.781 33.7854 130.45 36.9438 130.184 40.0964C114.262 40.0964 98.3407 40.0964 82.4191 40.1081C79.262 40.1081 77.946 41.1064 77.9892 43.3541C78.0179 45.3274 79.2908 46.1213 82.4191 46.1213C98.0531 46.1213 113.687 46.1213 129.314 46.1272C129.487 47.0262 129.041 47.8611 128.89 48.731C127.315 58.0019 124.244 66.9575 120.073 75.6563C116.067 83.9931 110.429 91.6702 105.237 99.5166C103.785 101.706 102.267 103.866 100.577 106.33H122.245C122.245 106.429 122.245 106.522 122.245 106.622H118.656C118.98 106.902 119.081 107.059 119.246 107.129C122.734 108.612 123.791 112.296 122.683 114.9C121.547 117.568 118.642 119.004 114.205 119.004C111.451 119.004 108.703 119.022 105.949 119.004C104.777 118.998 104.338 119.284 104.827 120.271C105.395 121.409 105.805 122.595 106.345 123.745C108.042 127.358 109.768 130.966 111.487 134.58C109.387 134.58 107.287 134.545 105.187 134.592C102.749 134.65 100.563 136.425 100.606 138.223C100.649 140.109 102.382 141.282 105.187 141.294C108.445 141.306 111.702 141.3 114.96 141.3L119.318 150.804C115.118 150.822 110.911 150.851 106.711 150.845C98.3767 150.828 90.0491 150.787 81.7143 150.758L81.7071 150.752ZM63.1678 40.6452C62.3192 41.1298 61.8086 41.4392 61.2764 41.7194C56.5445 44.1948 50.3528 43.5409 46.7139 40.0497C44.6931 38.1056 44.01 35.712 43.7151 33.1958C43.3124 29.763 39.9612 27.3343 36.0563 27.4628C31.8781 27.6029 28.8146 30.2884 28.7787 33.8905C28.7499 36.8329 28.7283 39.7812 28.793 42.7294C29.0088 51.6675 34.0859 58.609 42.5861 63.9159C47.3971 66.9225 53.1214 68.347 59.2125 68.3937C63.4554 68.4287 67.5833 68.5163 70.9992 71.1434C66.9504 61.2479 64.4191 51.2063 63.1678 40.6452Z" fill="#FED732"/>
<path d="M153.226 30.6153C153.513 30.5978 153.801 30.5628 154.089 30.5686C157.792 30.5862 157.044 30.3643 157.102 32.9681C157.152 35.315 158.331 36.5527 160.647 36.6344C163.078 36.722 164.358 35.5252 164.617 33.1141C165.25 27.3343 169.183 22.5763 176.633 21.2802C176.828 21.2452 176.986 21.0992 177.158 21C178.899 21 180.639 21 182.379 21C182.609 21.1109 182.825 21.2744 183.077 21.3269C187.586 22.2669 191.102 24.2051 192.987 27.7897C193.706 29.1675 194.331 30.5745 195 31.964V45.053C194.037 46.7694 193.979 48.6609 193.447 50.459C192.217 54.6683 189.758 58.3405 186.687 61.8025C179.719 69.6606 170.132 73.5838 158.432 74.5237C156.749 74.658 155.088 75.0141 153.355 75.0433C151.025 75.0783 149.63 76.2459 149.616 77.9857C149.601 79.7138 150.989 80.9865 153.233 81.0857C155.254 81.1791 157.289 81.1616 159.309 81.0974C160.554 81.0565 160.892 81.4185 160.935 82.4051C161.158 87.566 161.186 87.566 154.923 87.5602C147.81 87.5602 143.15 84.3551 141.964 78.6571C141.906 78.371 141.942 78.0616 141.489 77.9623C141.914 76.4152 143.208 75.1484 143.575 73.5604C143.762 72.7489 143.834 71.7798 144.891 71.2485C147.897 69.1935 151.32 68.3353 155.289 68.3995C165.731 68.5688 173.958 64.92 180.351 58.3405C182.566 56.0636 184.228 53.5649 185.421 50.7918C187.938 44.9362 187.183 38.9055 187.118 32.9214C187.083 29.9323 183.566 27.5095 179.826 27.4511C176.123 27.3927 172.757 29.7571 172.304 32.7463C172.189 33.5052 172.11 34.27 171.981 35.029C171.039 40.6686 164.969 44.1072 158.173 42.9279C156.131 42.5718 154.628 41.4275 152.794 40.7795C152.859 37.3817 153.506 34.0014 153.226 30.5978V30.6153Z" fill="#FCAB28"/>
<path d="M59.2784 207.808C59.2641 206.126 60.6232 204.877 61.4071 203.452C62.4354 201.578 63.5645 199.739 64.6432 197.889C65.5996 198.181 66.5849 198.268 67.6132 198.268C94.5377 198.256 121.462 198.256 148.387 198.268C149.415 198.268 150.4 198.186 151.357 197.889C152.831 200.37 154.319 202.845 155.787 205.332C156.247 206.114 156.872 206.868 156.721 207.808H59.2784Z" fill="#CD3414"/>
<path d="M81.7062 150.752C90.041 150.781 98.3686 150.822 106.703 150.839C110.903 150.851 115.11 150.816 119.31 150.798C124.38 150.798 129.45 150.793 134.52 150.787C138.791 150.787 143.07 150.863 147.335 150.769C149.032 150.734 149.521 151.119 149.514 152.521C149.449 164.833 149.47 177.14 149.478 189.452C149.478 190.217 149.55 190.982 149.585 191.747C148.723 191.788 147.852 191.869 146.989 191.869C120.993 191.875 95.003 191.875 69.0062 191.869C68.1433 191.869 67.2731 191.788 66.4102 191.747C66.4461 188.448 66.5108 185.15 66.518 181.851C66.5324 172.072 66.5612 162.288 66.4821 152.509C66.4677 151.079 67.007 150.74 68.6754 150.769C73.019 150.845 77.3626 150.769 81.7134 150.746L81.7062 150.752ZM130.586 175.955C130.6 172.3 130.557 168.651 130.651 164.997C130.679 163.8 130.126 163.514 128.752 163.52C114.916 163.555 101.087 163.555 87.2507 163.52C85.8772 163.52 85.3234 163.8 85.3522 164.997C85.4385 168.645 85.4026 172.3 85.4169 175.955C85.4026 177.601 85.4457 179.247 85.3594 180.894C85.3091 181.933 85.7046 182.347 87.0638 182.342C101.022 182.307 114.981 182.307 128.939 182.342C130.305 182.342 130.701 181.933 130.643 180.894C130.557 179.247 130.6 177.601 130.586 175.955Z" fill="#CD3414"/>
<path d="M144.897 71.2544C143.84 71.7857 143.768 72.7548 143.581 73.5663C143.214 75.1542 141.92 76.4211 141.495 77.9682C138.504 83.9523 134.75 89.6269 130.78 95.2198C128.472 98.4658 126.365 101.811 124.056 105.051C123.33 106.067 123.79 106.271 124.883 106.546C129.213 107.637 131.241 110.323 130.586 113.989C130.061 116.949 126.811 118.993 122.611 119.004C121.676 119.004 120.741 119.004 119.576 119.004C121.575 124.422 124.545 129.378 126.753 134.563C121.662 134.563 116.57 134.569 111.479 134.574C109.76 130.966 108.034 127.359 106.337 123.739C105.797 122.589 105.388 121.404 104.819 120.265C104.323 119.273 104.769 118.987 105.941 118.998C108.696 119.016 111.443 118.998 114.197 118.998C118.634 118.998 121.539 117.562 122.676 114.894C123.783 112.296 122.726 108.612 119.238 107.124C119.073 107.054 116.453 106.136 116.136 105.856L122.237 106.209C122.237 106.11 122.237 106.423 122.237 106.324H100.569C102.252 103.866 103.777 101.706 105.229 99.5108C110.429 91.6585 116.067 83.9873 120.065 75.6505C124.243 66.9459 127.307 57.9961 128.882 48.7252C129.033 47.8553 129.479 47.0204 129.306 46.1214C134.556 46.1214 139.805 46.1331 145.055 46.1039C147.414 46.0922 149.801 46.3316 152.117 45.7477C151.678 48.7836 151.103 51.796 150.362 54.791C148.974 60.3722 147.018 65.825 144.897 71.2486V71.2544Z" fill="#FCAB28"/>
<path d="M66.4111 191.747C67.274 191.788 68.1442 191.869 69.0071 191.869C95.0039 191.875 120.994 191.875 146.99 191.869C147.853 191.869 148.723 191.788 149.586 191.747C151.413 191.887 152.729 192.623 153.153 194.088C153.606 195.635 153.024 196.954 151.348 197.889C150.392 198.186 149.407 198.268 148.378 198.268C121.454 198.256 94.5293 198.256 67.6048 198.268C66.5765 198.268 65.5912 198.186 64.6348 197.889C62.9592 196.96 62.3839 195.635 62.8298 194.088C63.2541 192.623 64.5773 191.887 66.3967 191.747H66.4111Z" fill="#FE5629"/>
<path d="M111.48 134.569C116.571 134.569 121.663 134.563 126.754 134.557C126.956 134.714 127.136 134.901 127.366 135.018C131.076 136.863 131.292 137.377 129.624 140.582C127.977 141.247 126.229 141.341 124.41 141.306C121.26 141.247 118.103 141.294 114.946 141.294C111.689 141.294 108.431 141.294 105.173 141.288C102.369 141.277 100.628 140.103 100.592 138.217C100.556 136.419 102.735 134.644 105.173 134.586C107.273 134.534 109.373 134.574 111.473 134.574L111.48 134.569Z" fill="#F9962A"/>
<path d="M114.952 141.294C118.109 141.294 121.266 141.247 124.415 141.306C126.228 141.341 127.975 141.247 129.629 140.582C131.262 143.985 132.894 147.383 134.519 150.787C129.449 150.787 124.38 150.793 119.31 150.798C117.857 147.628 116.404 144.464 114.952 141.294Z" fill="#FCAB28"/>
<path d="M152.118 45.7535C149.802 46.3432 147.415 46.098 145.056 46.1097C139.806 46.1388 134.557 46.1213 129.307 46.1272C113.673 46.1272 98.0389 46.1272 82.412 46.1213C79.2838 46.1213 78.0181 45.3274 77.9822 43.3541C77.9462 41.1064 79.255 40.1081 82.412 40.1081C98.3337 40.0964 114.255 40.1023 130.177 40.0964C135.571 40.0964 140.964 40.1373 146.358 40.0789C148.601 40.0556 150.78 40.0847 152.722 41.1648C153.535 42.7819 153.34 44.3115 152.118 45.7477V45.7535Z" fill="#F9962A"/>
<path d="M152.723 41.1706C150.789 40.0964 148.61 40.0614 146.359 40.0847C140.965 40.1431 135.572 40.1022 130.178 40.1022C130.444 36.9438 130.775 33.7912 130.624 30.6212C138.161 30.6212 145.69 30.6212 153.227 30.6212C153.507 34.0248 152.86 37.405 152.795 40.8028C152.773 40.9254 152.752 41.0538 152.723 41.1764V41.1706Z" fill="#FCAB28"/>
<path d="M85.412 175.955C85.3976 172.3 85.4407 168.651 85.3473 164.997C85.3185 163.8 85.8722 163.514 87.2458 163.52C101.082 163.555 114.911 163.555 128.747 163.52C130.121 163.52 130.674 163.8 130.646 164.997C130.559 168.645 130.595 172.3 130.581 175.955C115.522 175.955 100.463 175.955 85.4048 175.955H85.412Z" fill="#FCB630"/>
<path d="M85.4102 175.955C100.469 175.955 115.528 175.955 130.586 175.955C130.601 177.601 130.558 179.247 130.644 180.894C130.694 181.933 130.299 182.347 128.94 182.342C114.981 182.307 101.023 182.307 87.0642 182.342C85.6978 182.342 85.3023 181.933 85.3598 180.894C85.4461 179.247 85.403 177.601 85.4174 175.955H85.4102Z" fill="#F9962A"/>
</g>
<defs>
<filter id="filter0_d_498_585" x="0.799999" y="0.799999" width="214.4" height="227.208" filterUnits="userSpaceOnUse" color-interpolation-filters="sRGB">
<feFlood flood-opacity="0" result="BackgroundImageFix"/>
<feColorMatrix in="SourceAlpha" type="matrix" values="0 0 0 0 0 0 0 0 0 0 0 0 0 0 0 0 0 0 127 0" result="hardAlpha"/>
<feOffset/>
<feGaussianBlur stdDeviation="10.1"/>
<feComposite in2="hardAlpha" operator="out"/>
<feColorMatrix type="matrix" values="0 0 0 0 0 0 0 0 0 0.823529 0 0 0 0 0.67451 0 0 0 1 0"/>
<feBlend mode="normal" in2="BackgroundImageFix" result="effect1_dropShadow_498_585"/>
<feBlend mode="normal" in="SourceGraphic" in2="effect1_dropShadow_498_585" result="shape"/>
</filter>
</defs>
</svg>
