<svg width="18" height="23" viewBox="0 0 18 23" fill="none" xmlns="http://www.w3.org/2000/svg">
<path d="M6.43247 18.3911C6.43247 17.3867 6.43247 16.3837 6.43247 15.3794C6.43247 14.7532 6.17011 14.5688 5.41382 14.663C4.37574 14.7916 3.33927 14.9256 2.30281 15.053C1.52061 15.1499 0.855002 14.9774 0.383736 14.4374C-0.0826725 13.9041 -0.12154 13.3322 0.254178 12.7538C2.84372 8.77753 5.43325 4.79996 8.03089 0.827702C8.47786 0.144431 9.32647 -0.134185 10.2253 0.0608461C11.082 0.24659 11.6229 0.833009 11.6196 1.61446C11.6115 3.56742 11.5889 5.51906 11.5727 7.47202C11.5727 7.57152 11.5662 7.67103 11.5727 7.76921C11.6034 8.21367 11.9257 8.42727 12.4553 8.35961C13.5452 8.2203 14.6351 8.07834 15.725 7.94434C16.5104 7.84749 17.1728 8.03323 17.6376 8.57454C18.1299 9.14902 18.0927 9.74207 17.6943 10.3497C15.6295 13.506 13.5727 16.6663 11.5128 19.8253C11.0253 20.5736 10.5395 21.3232 10.0471 22.0701C9.54833 22.8277 8.74508 23.1382 7.80254 22.9431C6.90697 22.7587 6.39036 22.1604 6.39036 21.3033C6.39036 20.3321 6.39036 19.3623 6.39036 18.3911H6.43085H6.43247Z" fill="#FEFEFE"/>
</svg>
