<svg width="371" height="123" viewBox="0 0 371 123" fill="none" xmlns="http://www.w3.org/2000/svg">
<g clip-path="url(#clip0_564_823)">
<g clip-path="url(#clip1_564_823)">
<path d="M6.99998 -22.6164C6.99998 23.2843 35.1966 60.6336 69.8492 60.6336H195.135C197.689 60.6336 200.183 61.0199 202.577 61.7391C202.979 61.8723 203.381 62.0055 203.773 62.152C210.159 64.4298 215.78 69.185 220.023 75.5919C220.315 76.0448 220.597 76.4843 220.878 76.9505C220.969 77.097 221.059 77.2436 221.14 77.3901C221.411 77.843 221.673 78.2959 221.914 78.7488C223.573 81.7591 224.951 85.0757 225.977 88.5922C226.369 89.8976 226.701 91.2296 226.992 92.5882C227.465 94.8127 227.817 97.1037 228.018 99.4614C228.159 101.1 228.229 102.778 228.229 104.47V166.674H246.33V104.47C246.33 98.449 245.736 92.6015 244.61 87.0471C243.987 83.8903 243.182 80.8134 242.217 77.8563C241.845 76.6842 241.442 75.5253 241.01 74.3931C238.577 67.893 235.369 61.9789 231.547 56.864C230.803 55.8517 230.019 54.866 229.215 53.9069H229.204C227.244 51.5759 225.152 49.4581 222.94 47.5533C221.944 46.7008 220.918 45.875 219.873 45.1158C218.213 43.8903 216.494 42.7848 214.724 41.8257C213.517 41.1597 212.29 40.547 211.034 40.0142C207.836 38.6156 204.487 37.6299 201.048 37.1105C199.107 36.8041 197.136 36.6576 195.135 36.6576H69.8492C45.1821 36.6576 25.1005 10.0709 25.1005 -22.6164C25.1005 -55.3037 45.1821 -81.8904 69.8492 -81.8904H304.151C314.378 -81.8904 324.051 -85.1405 332.599 -90.9214C333.162 -91.2944 333.715 -91.6807 334.258 -92.0803C336.863 -93.9717 339.356 -96.1029 341.73 -98.4339C357.055 -113.632 367 -137.874 367 -165.14C367 -211.041 338.813 -248.39 304.151 -248.39H69.8492C45.1821 -248.39 25.1005 -274.977 25.1005 -307.664C25.1005 -340.352 45.1821 -366.938 69.8492 -366.938H315.806C344.032 -366.938 367 -397.361 367 -434.751V-499.326H348.899V-434.751C348.899 -410.575 334.057 -390.914 315.806 -390.914H69.8492C35.1966 -390.914 6.99998 -353.565 6.99998 -307.664C6.99998 -261.764 35.1966 -224.414 69.8492 -224.414H304.151C328.828 -224.414 348.899 -197.828 348.899 -165.14C348.899 -148.331 343.59 -133.132 335.083 -122.343C333.051 -119.773 330.829 -117.442 328.466 -115.404C328.064 -115.057 327.651 -114.711 327.239 -114.378C322.875 -110.888 318.038 -108.357 312.879 -107.012C312.568 -106.919 312.246 -106.839 311.934 -106.772C309.4 -106.173 306.806 -105.866 304.151 -105.866H69.8492C35.1966 -105.866 6.99998 -68.5171 6.99998 -22.6164Z" fill="url(#paint0_linear_564_823)"/>
<path d="M236.862 148.35V157.674H233.845V148.35H236.862ZM236.862 129.702V139.026H233.845V129.702H236.862ZM236.862 111.054V120.378H233.845V111.054H236.862ZM236.118 92.113C236.148 92.2995 236.168 92.4859 236.188 92.6724C236.591 95.6428 236.812 98.6664 236.852 101.703L233.845 101.77C233.805 99.399 233.654 97.0281 233.383 94.6971C233.312 94.0844 233.242 93.4583 233.151 92.8456L236.118 92.113ZM231.11 74.0776C232.106 76.3953 233.001 78.8196 233.745 81.3105C233.906 81.8033 234.046 82.2961 234.187 82.8023L231.351 84.1876C231.301 84.0011 231.241 83.8013 231.181 83.6148C230.446 81.0174 229.531 78.4733 228.486 76.0624L231.11 74.0776ZM219.988 62.1163L221.899 59.2125C222.703 60.1449 223.488 61.1173 224.232 62.1296C224.805 62.8889 225.368 63.6748 225.901 64.4873C226.263 65.0334 226.625 65.5795 226.967 66.139L224.644 68.6697L224.463 68.3901C223.779 67.2978 223.055 66.2455 222.311 65.2332C222.251 65.1533 222.191 65.0601 222.13 64.9935C221.869 64.6339 221.607 64.2875 221.336 63.9545C221.235 63.808 221.125 63.6881 221.024 63.5549C220.944 63.4616 220.873 63.3684 220.793 63.2752C220.732 63.1953 220.672 63.1287 220.612 63.0621C220.531 62.9555 220.451 62.8489 220.36 62.7557L219.998 62.3161C219.998 62.3161 219.948 62.2495 219.918 62.2229L219.988 62.1163ZM209.54 49.156C210.586 49.7154 211.612 50.3281 212.627 50.9941C213.301 51.4337 213.955 51.8999 214.608 52.3928C215.091 52.7391 215.564 53.112 216.036 53.4983L214.588 56.6285L214.458 56.9082C213.754 56.3354 213.04 55.7893 212.306 55.2831C211.039 54.3774 209.731 53.5648 208.404 52.8589L209.54 49.156ZM195.362 45.0401C197.785 45.1999 200.218 45.6262 202.572 46.3055L201.928 50.2083C199.736 49.5689 197.473 49.1826 195.211 49.0361L195.362 45.0401ZM75.6162 44.9736V48.9695H68.5771V44.9736H75.6162ZM89.6945 44.9736V48.9695H82.6554V44.9736H89.6945ZM103.773 44.9736V48.9695H96.7336V44.9736H103.773ZM117.851 44.9736V48.9695H110.812V44.9736H117.851ZM131.929 44.9736V48.9695H124.89V44.9736H131.929ZM146.007 44.9736V48.9695H138.968V44.9736H146.007ZM160.086 44.9736V48.9695H153.046V44.9736H160.086ZM174.164 44.9736V48.9695H167.125V44.9736H174.164ZM188.242 44.9736V48.9695H181.203V44.9736H188.242ZM55.0118 42.8423C57.2241 43.5882 59.4766 44.1343 61.7392 44.494L61.3872 48.4634C58.9939 48.0904 56.6006 47.5043 54.2777 46.7184L55.0118 42.8423ZM42.3615 36.1423C44.3425 37.6209 46.414 38.9262 48.5157 40.0451L47.3995 43.7614C45.1671 42.5759 42.9749 41.1906 40.8833 39.6322L42.3615 36.1423ZM31.4408 25.3265C33.0598 27.4178 34.8096 29.4024 36.6297 31.2006L34.8196 34.4107C32.8989 32.4926 31.0487 30.4014 29.3291 28.1769L31.4408 25.3265ZM22.9839 11.1274C24.1503 13.7115 25.4476 16.2289 26.8554 18.5865L24.4922 21.0641C23.004 18.5599 21.6263 15.9093 20.3895 13.1786L22.9839 11.1274ZM17.5939 -5.46936C18.2073 -2.5656 18.4286 -3.59649 19.3336 -0.825928L14.6877 -1.82593C13.7425 -4.74301 15.3414 -1.31352 14.6877 -4.39044L17.5939 -5.46936ZM15.6431 -23.3581C15.6733 -20.3345 15.8543 -17.2975 16.1761 -14.3271L13.1895 -13.7544C12.8476 -16.8979 12.6565 -20.108 12.6263 -23.3048L15.6431 -23.3581ZM14.2956 -42.2858L17.2218 -41.3001C16.6688 -38.3964 16.2565 -35.3994 15.985 -32.4024L12.9883 -32.8553C13.2699 -36.0387 13.7124 -39.1956 14.2956 -42.2858ZM19.6353 -60.0281L22.2699 -58.0834C21.1537 -55.446 20.1682 -52.7021 19.3336 -49.9049L16.528 -51.3834C17.4129 -54.3404 18.4587 -57.2442 19.6353 -60.0281ZM28.2632 -75.3461L30.4252 -72.5622C28.8363 -70.4044 27.3481 -68.0867 25.9905 -65.6624L23.5671 -68.06C25.0051 -70.6041 26.5839 -73.055 28.2632 -75.3461ZM39.576 -87.2009L41.1247 -83.7776C39.1738 -82.2325 37.2833 -80.5009 35.4933 -78.6361L33.623 -81.7663C35.5135 -83.7377 37.5146 -85.5758 39.576 -87.2009ZM52.8297 -94.7933L53.6542 -90.9438C51.4621 -90.1179 49.29 -89.1056 47.2084 -87.9068L46.0118 -91.5698C48.214 -92.8352 50.5067 -93.9142 52.8297 -94.7933ZM67.0989 -97.5372L67.1492 -93.5412C64.8665 -93.5012 62.5738 -93.2615 60.3314 -92.8352L59.8989 -96.7913C62.2721 -97.2442 64.6956 -97.4972 67.0989 -97.5372ZM81.2073 -97.5505V-93.5545H74.1682V-97.5505H81.2073ZM95.2855 -97.5505V-93.5545H88.2464V-97.5505H95.2855ZM109.364 -97.5505V-93.5545H102.325V-97.5505H109.364ZM123.442 -97.5505V-93.5545H116.403V-97.5505H123.442ZM137.52 -97.5505V-93.5545H130.481V-97.5505H137.52ZM151.598 -97.5505V-93.5545H144.559V-97.5505H151.598ZM165.677 -97.5505V-93.5545H158.638V-97.5505H165.677ZM179.755 -97.5505V-93.5545H172.716V-97.5505H179.755ZM193.833 -97.5505V-93.5545H186.794V-97.5505H193.833ZM207.911 -97.5505V-93.5545H200.872V-97.5505H207.911ZM221.989 -97.5505V-93.5545H214.95V-97.5505H221.989ZM236.068 -97.5505V-93.5545H229.029V-97.5505H236.068ZM250.146 -97.5505V-93.5545H243.107V-97.5505H250.146ZM264.224 -97.5505V-93.5545H257.185V-97.5505H264.224ZM278.302 -97.5505V-93.5545H271.263V-97.5505H278.302ZM292.38 -97.5505V-93.5545H285.341V-97.5505H292.38ZM302.426 -97.5505C303.281 -97.5505 304.146 -97.5905 305.001 -97.6437C305.202 -97.6571 305.403 -97.6704 305.604 -97.697C305.845 -97.7103 306.087 -97.737 306.328 -97.7636L306.539 -94.2072L306.569 -93.7809C306.398 -93.7676 306.227 -93.741 306.046 -93.741C304.779 -93.6211 303.502 -93.5545 302.225 -93.5545H299.42V-97.5505H302.426ZM316.042 -100.001C316.273 -100.081 316.505 -100.161 316.736 -100.254C317.088 -100.388 317.43 -100.521 317.772 -100.667C317.963 -100.734 318.154 -100.814 318.335 -100.894C318.787 -101.094 319.23 -101.293 319.672 -101.493L320.678 -97.737C320.235 -97.5239 319.793 -97.3241 319.34 -97.1376C319.159 -97.0577 318.968 -96.9777 318.787 -96.8978C317.711 -96.4449 316.615 -96.0453 315.509 -95.6857C315.278 -95.6057 315.046 -95.5258 314.815 -95.4726C314.453 -95.3527 314.081 -95.2461 313.719 -95.1396L313.096 -99.0556C314.081 -99.322 315.067 -99.6418 316.042 -100.001ZM330.04 -108.167C330.12 -108.22 330.201 -108.286 330.281 -108.353C330.804 -108.793 331.317 -109.245 331.82 -109.712L333.529 -106.408C332.785 -105.729 332.031 -105.076 331.256 -104.464C331.196 -104.397 331.136 -104.344 331.065 -104.304C329.849 -103.305 328.592 -102.372 327.325 -101.52L325.957 -105.076C327.345 -106.009 328.712 -107.034 330.04 -108.167ZM337.24 -115.373C338.909 -117.371 340.498 -119.528 341.966 -121.793L344.259 -119.195C342.69 -116.771 341.001 -114.467 339.211 -112.336L337.35 -115.08V-115.093L337.199 -115.306L337.25 -115.373H337.24ZM349.417 -136.938L352.132 -135.206C351.097 -132.342 349.91 -129.532 348.593 -126.854L346.069 -129.039C347.306 -131.57 348.432 -134.22 349.417 -136.938ZM353.641 -154.121L356.607 -153.388C356.165 -150.258 355.572 -147.128 354.827 -144.104L351.961 -145.343C352.665 -148.206 353.229 -151.15 353.641 -154.121ZM354.365 -172.156L357.372 -172.462C357.482 -170.597 357.532 -168.706 357.532 -166.815C357.532 -165.509 357.512 -164.19 357.452 -162.898L354.445 -163.112C354.496 -164.337 354.516 -165.576 354.516 -166.815C354.516 -168.599 354.465 -170.398 354.365 -172.156ZM354.405 -191.163C355.199 -188.166 355.863 -185.063 356.356 -181.946L353.399 -181.12C352.937 -184.064 352.313 -187.008 351.559 -189.845L354.405 -191.163ZM347.869 -208.2C349.226 -205.576 350.473 -202.805 351.559 -199.968L348.874 -198.156C347.839 -200.847 346.672 -203.458 345.385 -205.949L347.869 -208.2ZM338.235 -222.426C340.065 -220.348 341.795 -218.097 343.404 -215.726L341.161 -213.062C339.643 -215.299 337.994 -217.431 336.274 -219.389L338.235 -222.426ZM326.158 -232.882C328.32 -231.51 330.442 -229.925 332.453 -228.18L330.804 -224.836C328.903 -226.488 326.892 -227.98 324.851 -229.285L326.158 -232.882ZM312.442 -238.836C314.805 -238.25 317.158 -237.45 319.441 -236.451L318.506 -232.655C316.344 -233.601 314.121 -234.347 311.879 -234.906L312.442 -238.836ZM302.225 -240.075C303.241 -240.075 304.256 -240.035 305.262 -239.968L305.101 -235.972C304.156 -236.039 303.191 -236.078 302.225 -236.078H298.143V-240.075H302.225ZM79.9302 -240.075V-236.078H72.8911V-240.075H79.9302ZM94.0085 -240.075V-236.078H86.9693V-240.075H94.0085ZM108.087 -240.075V-236.078H101.048V-240.075H108.087ZM122.165 -240.075V-236.078H115.126V-240.075H122.165ZM136.243 -240.075V-236.078H129.204V-240.075H136.243ZM150.321 -240.075V-236.078H143.282V-240.075H150.321ZM164.4 -240.075V-236.078H157.36V-240.075H164.4ZM178.478 -240.075V-236.078H171.439V-240.075H178.478ZM192.556 -240.075V-236.078H185.517V-240.075H192.556ZM206.634 -240.075V-236.078H199.595V-240.075H206.634ZM220.712 -240.075V-236.078H213.673V-240.075H220.712ZM234.791 -240.075V-236.078H227.751V-240.075H234.791ZM248.869 -240.075V-236.078H241.83V-240.075H248.869ZM262.947 -240.075V-236.078H255.908V-240.075H262.947ZM277.025 -240.075V-236.078H269.986V-240.075H277.025ZM291.103 -240.075V-236.078H284.064V-240.075H291.103ZM59.1146 -241.06C61.347 -240.554 63.6297 -240.234 65.9124 -240.128L65.7917 -236.132C63.3883 -236.252 60.9649 -236.585 58.6017 -237.117L59.1146 -241.06ZM46.0822 -246.388C48.1436 -245.136 50.2956 -244.044 52.4576 -243.151L51.5727 -239.342C49.28 -240.274 47.0073 -241.433 44.8151 -242.765L46.0822 -246.388ZM34.5481 -256.019C36.2978 -254.1 38.1582 -252.302 40.0788 -250.704L38.4699 -247.321C36.4386 -249.026 34.4676 -250.917 32.6174 -252.942L34.5481 -256.019ZM25.2665 -269.272C26.5838 -266.821 28.0319 -264.45 29.5805 -262.252L27.3682 -259.535C25.7291 -261.866 24.2006 -264.37 22.8029 -266.954L25.2665 -269.272ZM18.8811 -285.243C19.6755 -282.432 20.6207 -279.648 21.6766 -276.984L19.0118 -275.119C17.8855 -277.93 16.89 -280.874 16.0554 -283.857L18.8811 -285.243ZM15.8643 -302.865C16.0755 -299.868 16.4375 -296.858 16.9302 -293.927L13.9939 -293.048C13.4609 -296.138 13.0788 -299.322 12.8576 -302.505L15.8643 -302.865ZM13.3905 -321.593L16.3671 -320.927C15.985 -317.97 15.7537 -314.946 15.6733 -311.923L12.6565 -312.069C12.747 -315.266 12.9883 -318.463 13.3905 -321.593ZM17.6341 -339.868L20.3794 -338.203C19.4341 -335.472 18.6096 -332.622 17.9358 -329.745L15.0598 -330.917C15.7638 -333.967 16.6285 -336.978 17.6341 -339.868ZM25.3068 -356.038L27.6296 -353.481C26.1816 -351.163 24.8342 -348.699 23.6275 -346.155L21.0732 -348.286C22.3503 -350.977 23.7783 -353.588 25.3068 -356.038ZM35.8755 -369.052L37.6252 -365.802C35.7749 -364.057 33.995 -362.126 32.3257 -360.074L30.2744 -363.005C32.0341 -365.163 33.9146 -367.201 35.8755 -369.052ZM48.6263 -378.016L49.6822 -374.274C47.5503 -373.221 45.4487 -371.969 43.4375 -370.557L42.0297 -374.087C44.1515 -375.579 46.3738 -376.898 48.6263 -378.016ZM62.6945 -382.279L62.976 -378.296C60.7134 -378.016 58.4408 -377.537 56.2285 -376.871L55.5548 -380.76C57.8978 -381.466 60.3012 -381.972 62.6945 -382.279ZM76.9034 -382.599V-378.603H69.8643V-382.599H76.9034ZM90.9816 -382.599V-378.603H83.9425V-382.599H90.9816ZM105.06 -382.599V-378.603H98.0207V-382.599H105.06ZM119.138 -382.599V-378.603H112.099V-382.599H119.138ZM133.216 -382.599V-378.603H126.177V-382.599H133.216ZM147.294 -382.599V-378.603H140.255V-382.599H147.294ZM161.373 -382.599V-378.603H154.334V-382.599H161.373ZM175.451 -382.599V-378.603H168.412V-382.599H175.451ZM189.529 -382.599V-378.603H182.49V-382.599H189.529ZM203.607 -382.599V-378.603H196.568V-382.599H203.607ZM217.686 -382.599V-378.603H210.646V-382.599H217.686ZM231.764 -382.599V-378.603H224.725V-382.599H231.764ZM245.842 -382.599V-378.603H238.803V-382.599H245.842ZM259.92 -382.599V-378.603H252.881V-382.599H259.92ZM273.998 -382.599V-378.603H266.959V-382.599H273.998ZM288.077 -382.599V-378.603H281.037V-382.599H288.077ZM302.155 -382.599V-378.603H295.116V-382.599H302.155ZM313.88 -382.599C314.644 -382.599 315.398 -382.625 316.153 -382.678L316.313 -378.696C315.509 -378.629 314.694 -378.603 313.88 -378.603H309.194V-382.599H313.88ZM329.326 -386.621L330.472 -382.932C328.23 -381.706 325.897 -380.72 323.524 -380.014L322.86 -383.917C325.062 -384.57 327.234 -385.489 329.326 -386.621ZM340.779 -396.078L342.78 -393.095C340.96 -390.963 338.999 -389.019 336.948 -387.327L335.349 -390.71C337.26 -392.295 339.09 -394.094 340.779 -396.078ZM349.287 -409.984L351.911 -408.026C350.725 -405.229 349.347 -402.552 347.818 -400.048L345.475 -402.565C346.893 -404.896 348.18 -407.387 349.287 -409.984ZM353.872 -426.821L356.839 -426.115C356.416 -422.945 355.773 -419.815 354.958 -416.791L352.112 -418.15C352.887 -420.96 353.47 -423.877 353.872 -426.821ZM357.532 -445.056V-435.705L354.516 -435.759V-445.056H357.532ZM357.532 -463.704V-454.38H354.516V-463.704H357.532ZM357.532 -482.352V-473.028H354.516V-482.352H357.532ZM357.532 -501V-491.676H354.516V-501H357.532Z" fill="white"/>
</g>
</g>
<defs>
<linearGradient id="paint0_linear_564_823" x1="188.25" y1="-499.326" x2="188.25" y2="166.674" gradientUnits="userSpaceOnUse">
<stop offset="0.75" stop-color="#33296D"/>
<stop offset="0.855" stop-color="#052A5B"/>
<stop offset="0.995" stop-color="#20F4CB"/>
</linearGradient>
<clipPath id="clip0_564_823">
<rect width="371" height="123" fill="white"/>
</clipPath>
<clipPath id="clip1_564_823">
<rect width="360" height="666" fill="white" transform="matrix(-1 0 0 1 371 -529)"/>
</clipPath>
</defs>
</svg>
