<svg width="463" height="177" viewBox="0 0 463 177" fill="none" xmlns="http://www.w3.org/2000/svg">
<g clip-path="url(#clip0_397_9760)">
<g filter="url(#filter0_d_397_9760)">
<path d="M33.7285 -8.61807C33.7285 48.5164 64.6285 95.0069 102.605 95.0069H239.904C242.703 95.0069 245.436 95.488 248.059 96.3823C248.5 96.5481 248.94 96.7139 249.37 96.8973C256.368 99.7322 262.529 105.651 267.179 113.625C267.499 114.189 267.807 114.737 268.116 115.317C268.215 115.5 268.314 115.682 268.403 115.864C268.7 116.428 268.987 116.992 269.251 117.556C271.069 121.303 272.579 125.431 273.703 129.809C274.133 131.433 274.497 133.091 274.816 134.783C275.335 137.551 275.72 140.402 275.941 143.338C276.094 145.376 276.171 147.466 276.171 149.571V227H296.008V149.571C296.008 142.078 295.357 134.799 294.124 127.884C293.44 123.955 292.558 120.126 291.501 116.444C291.093 114.986 290.651 113.543 290.179 112.133C287.511 104.043 283.996 96.6813 279.808 90.3143C278.993 89.0544 278.134 87.8273 277.251 86.6341H277.24C275.091 83.7326 272.799 81.0961 270.375 78.7246C269.284 77.6645 268.16 76.6358 267.014 75.6912C265.195 74.1651 263.311 72.7897 261.372 71.5952C260.049 70.7662 258.704 70.0038 257.328 69.3406C253.822 67.5997 250.153 66.3725 246.384 65.7269C244.257 65.345 242.097 65.163 239.904 65.163H102.605C75.5716 65.163 53.5648 32.0695 53.5648 -8.61807C53.5648 -49.3056 75.5716 -82.3991 102.605 -82.3991H359.374C370.581 -82.3991 381.182 -86.4449 390.55 -93.6408C391.167 -94.1043 391.773 -94.5854 392.368 -95.0828C395.222 -97.4379 397.955 -100.091 400.556 -102.992C417.351 -121.91 428.25 -152.085 428.25 -186.024C428.25 -243.159 397.36 -289.649 359.374 -289.649H102.605C75.5716 -289.649 53.5648 -322.743 53.5648 -363.43C53.5648 -404.118 75.5716 -437.211 102.605 -437.211H372.146C403.08 -437.211 428.25 -475.08 428.25 -521.62V-602H408.413V-521.62C408.413 -491.527 392.148 -467.055 372.146 -467.055H102.605C64.6285 -467.055 33.7285 -420.565 33.7285 -363.43C33.7285 -306.296 64.6285 -259.805 102.605 -259.805H359.374C386.417 -259.805 408.413 -226.712 408.413 -186.024C408.413 -165.101 402.595 -146.183 393.272 -132.753C391.045 -129.553 388.61 -126.651 386.02 -124.114C385.58 -123.683 385.128 -123.252 384.676 -122.838C379.893 -118.494 374.592 -115.344 368.939 -113.669C368.597 -113.553 368.245 -113.454 367.903 -113.371C365.126 -112.625 362.283 -112.243 359.374 -112.243H102.605C64.6285 -112.243 33.7285 -65.7525 33.7285 -8.61807Z" fill="url(#paint0_linear_397_9760)"/>
</g>
<path d="M286.743 213.642V226H283.435V213.642H286.743ZM286.743 188.926V201.284H283.435V188.926H286.743ZM286.743 164.21V176.568H283.435V164.21H286.743ZM285.928 139.107C285.96 139.353 285.982 139.6 286.005 139.848C286.445 143.785 286.689 147.792 286.732 151.818L283.435 151.906C283.392 148.763 283.226 145.62 282.928 142.53C282.852 141.719 282.774 140.889 282.675 140.078L285.928 139.107ZM280.437 115.203C281.528 118.275 282.509 121.487 283.325 124.788C283.501 125.442 283.656 126.095 283.811 126.766L280.702 128.602C280.646 128.355 280.58 128.09 280.514 127.843C279.709 124.4 278.705 121.028 277.559 117.833L280.437 115.203ZM268.243 99.3486L270.337 95.5007C271.219 96.7365 272.079 98.0245 272.895 99.366C273.524 100.373 274.141 101.415 274.725 102.492C275.122 103.215 275.519 103.939 275.895 104.681L273.347 108.035L273.149 107.663C272.399 106.216 271.605 104.821 270.789 103.48C270.723 103.374 270.656 103.25 270.59 103.162C270.304 102.685 270.017 102.227 269.72 101.785C269.61 101.591 269.488 101.432 269.378 101.256C269.29 101.131 269.213 101.008 269.124 100.885C269.058 100.778 268.992 100.69 268.926 100.602C268.837 100.461 268.75 100.32 268.65 100.196L268.253 99.6134C268.253 99.6134 268.198 99.525 268.165 99.4903L268.243 99.3486ZM256.787 82.1718C257.933 82.9128 259.058 83.7246 260.172 84.6073C260.91 85.1904 261.627 85.8083 262.343 86.461C262.872 86.9197 263.391 87.4146 263.909 87.9268L262.322 92.0755L262.178 92.4461C261.406 91.6864 260.624 90.9628 259.818 90.2928C258.429 89.0917 256.996 88.0152 255.541 87.0789L256.787 82.1718ZM241.24 76.7164C243.897 76.9277 246.566 77.4935 249.146 78.3936L248.441 83.5654C246.037 82.7188 243.556 82.2066 241.075 82.0127L241.24 76.7164ZM109.947 76.6281V81.9244H102.229V76.6281H109.947ZM125.383 76.6281V81.9244H117.665V76.6281H125.383ZM140.819 76.6281V81.9244H133.101V76.6281H140.819ZM156.255 76.6281V81.9244H148.537V76.6281H156.255ZM171.69 76.6281V81.9244H163.973V76.6281H171.69ZM187.126 76.6281V81.9244H179.408V76.6281H187.126ZM202.562 76.6281V81.9244H194.844V76.6281H202.562ZM217.999 76.6281V81.9244H210.281V76.6281H217.999ZM233.435 76.6281V81.9244H225.717V76.6281H233.435ZM87.3562 73.8035C89.7814 74.7919 92.2509 75.5154 94.7318 75.9929L94.3462 81.253C91.722 80.7595 89.0978 79.9824 86.5509 78.9405L87.3562 73.8035ZM73.4854 64.9228C75.658 66.8822 77.9285 68.6129 80.2331 70.0961L79.0091 75.0219C76.5612 73.4504 74.1576 71.6141 71.8644 69.5491L73.4854 64.9228ZM61.5119 50.5882C63.2864 53.3594 65.2054 55.9901 67.2006 58.3734L65.2168 62.6278C63.1101 60.0853 61.0819 57.3141 59.1959 54.3664L61.5119 50.5882ZM52.2389 31.7691C53.5186 35.193 54.9405 38.5298 56.4841 41.6554L53.8928 44.9389C52.2616 41.6193 50.751 38.1059 49.3951 34.4868L52.2389 31.7691ZM46.3295 9.7709C47.0017 13.62 47.8401 17.4157 48.832 21.0883L45.7892 23.1707C44.7529 19.3042 43.86 15.2798 43.1433 11.2019L46.3295 9.7709ZM44.191 -13.9379C44.2239 -9.93094 44.4219 -5.90523 44.7745 -1.96915L41.5007 -1.20951C41.1254 -5.37564 40.9161 -9.63002 40.8831 -13.867L44.191 -13.9379ZM42.7133 -39.0242L45.9211 -37.7189C45.3148 -33.8697 44.8632 -29.8975 44.5652 -25.9253L41.2801 -26.5259C41.5883 -30.7455 42.074 -34.929 42.7133 -39.0242ZM48.5681 -62.5405L51.4563 -59.9632C50.2323 -56.4671 49.1517 -52.8306 48.2371 -49.1232L45.1612 -51.0826C46.1315 -55.0013 47.2781 -58.8505 48.5681 -62.5405ZM58.0277 -82.8428L60.3982 -79.1527C58.6556 -76.2933 57.0244 -73.2212 55.5354 -70.0074L52.8793 -73.1851C54.4559 -76.5581 56.186 -79.8054 58.0277 -82.8428ZM70.4311 -98.555L72.1294 -94.0171C69.9909 -91.9695 67.9172 -89.6744 65.955 -87.2028L63.904 -91.3515C65.9766 -93.9649 68.1709 -96.4004 70.4311 -98.555ZM84.9629 -108.618L85.8672 -103.516C83.4636 -102.422 81.0828 -101.079 78.7998 -99.4899L77.4883 -104.345C79.9021 -106.022 82.416 -107.453 84.9629 -108.618ZM100.608 -112.254L100.664 -106.958C98.1614 -106.905 95.6475 -106.588 93.1882 -106.022L92.7139 -111.266C95.3165 -111.867 97.9737 -112.201 100.608 -112.254ZM116.077 -112.272V-106.976H108.359V-112.272H116.077ZM131.513 -112.272V-106.976H123.795V-112.272H131.513ZM146.949 -112.272V-106.976H139.231V-112.272H146.949ZM162.386 -112.272V-106.976H154.667V-112.272H162.386ZM177.822 -112.272V-106.976H170.104V-112.272H177.822ZM193.256 -112.272V-106.976H185.54V-112.272H193.256ZM208.693 -112.272V-106.976H200.975V-112.272H208.693ZM224.129 -112.272V-106.976H216.411V-112.272H224.129ZM239.565 -112.272V-106.976H231.847V-112.272H239.565ZM255.001 -112.272V-106.976H247.283V-112.272H255.001ZM270.437 -112.272V-106.976H262.719V-112.272H270.437ZM285.872 -112.272V-106.976H278.155V-112.272H285.872ZM301.308 -112.272V-106.976H293.59V-112.272H301.308ZM316.744 -112.272V-106.976H309.026V-112.272H316.744ZM332.18 -112.272V-106.976H324.462V-112.272H332.18ZM347.616 -112.272V-106.976H339.898V-112.272H347.616ZM358.63 -112.272C359.568 -112.272 360.516 -112.325 361.453 -112.396C361.673 -112.414 361.894 -112.431 362.114 -112.466C362.379 -112.484 362.644 -112.519 362.908 -112.554L363.14 -107.841L363.173 -107.276C362.985 -107.258 362.798 -107.223 362.6 -107.223C361.21 -107.064 359.81 -106.976 358.41 -106.976H355.334V-112.272H358.63ZM373.559 -115.52C373.813 -115.626 374.066 -115.732 374.32 -115.856C374.706 -116.033 375.081 -116.209 375.455 -116.403C375.665 -116.491 375.874 -116.597 376.073 -116.703C376.569 -116.967 377.054 -117.232 377.539 -117.497L378.642 -112.519C378.157 -112.237 377.672 -111.972 377.175 -111.725C376.977 -111.619 376.768 -111.513 376.569 -111.406C375.389 -110.807 374.188 -110.278 372.975 -109.8C372.721 -109.695 372.468 -109.589 372.214 -109.518C371.817 -109.359 371.409 -109.218 371.012 -109.077L370.329 -114.267C371.409 -114.62 372.49 -115.044 373.559 -115.52ZM388.907 -126.343C388.995 -126.413 389.083 -126.501 389.171 -126.589C389.745 -127.172 390.307 -127.773 390.858 -128.391L392.733 -124.012C391.917 -123.112 391.09 -122.246 390.241 -121.435C390.175 -121.346 390.109 -121.275 390.031 -121.223C388.697 -119.899 387.319 -118.663 385.93 -117.533L384.43 -122.246C385.952 -123.482 387.451 -124.842 388.907 -126.343ZM396.801 -135.894C398.631 -138.542 400.373 -141.401 401.983 -144.402L404.497 -140.96C402.777 -137.747 400.925 -134.693 398.962 -131.868L396.922 -135.504V-135.523L396.757 -135.805L396.812 -135.894H396.801ZM410.153 -164.476L413.13 -162.181C411.994 -158.385 410.693 -154.659 409.249 -151.111L406.482 -154.007C407.838 -157.361 409.073 -160.874 410.153 -164.476ZM414.784 -187.25L418.036 -186.279C417.551 -182.13 416.901 -177.981 416.085 -173.973L412.943 -175.616C413.714 -179.411 414.332 -183.313 414.784 -187.25ZM415.578 -211.153L418.874 -211.559C418.996 -209.088 419.051 -206.581 419.051 -204.074C419.051 -202.344 419.029 -200.596 418.963 -198.883L415.666 -199.167C415.721 -200.79 415.743 -202.433 415.743 -204.074C415.743 -206.44 415.688 -208.823 415.578 -211.153ZM415.622 -236.346C416.493 -232.374 417.221 -228.26 417.761 -224.129L414.519 -223.034C414.012 -226.936 413.329 -230.837 412.502 -234.598L415.622 -236.346ZM408.455 -258.926C409.944 -255.447 411.311 -251.776 412.502 -248.015L409.558 -245.614C408.422 -249.18 407.143 -252.64 405.732 -255.942L408.455 -258.926ZM397.893 -277.78C399.899 -275.026 401.796 -272.042 403.56 -268.901L401.101 -265.37C399.436 -268.335 397.628 -271.16 395.743 -273.756L397.893 -277.78ZM384.651 -291.638C387.021 -289.821 389.348 -287.72 391.553 -285.407L389.745 -280.975C387.661 -283.164 385.456 -285.142 383.217 -286.872L384.651 -291.638ZM369.612 -299.531C372.203 -298.754 374.783 -297.694 377.286 -296.37L376.26 -291.339C373.89 -292.592 371.453 -293.58 368.994 -294.323L369.612 -299.531ZM358.41 -301.172C359.523 -301.172 360.637 -301.12 361.74 -301.031L361.563 -295.735C360.527 -295.823 359.468 -295.875 358.41 -295.875H353.933V-301.172H358.41ZM114.677 -301.172V-295.875H106.959V-301.172H114.677ZM130.113 -301.172V-295.875H122.395V-301.172H130.113ZM145.549 -301.172V-295.875H137.831V-301.172H145.549ZM160.985 -301.172V-295.875H153.267V-301.172H160.985ZM176.421 -301.172V-295.875H168.703V-301.172H176.421ZM191.856 -301.172V-295.875H184.139V-301.172H191.856ZM207.292 -301.172V-295.875H199.574V-301.172H207.292ZM222.728 -301.172V-295.875H215.01V-301.172H222.728ZM238.164 -301.172V-295.875H230.446V-301.172H238.164ZM253.6 -301.172V-295.875H245.882V-301.172H253.6ZM269.037 -301.172V-295.875H261.319V-301.172H269.037ZM284.471 -301.172V-295.875H276.755V-301.172H284.471ZM299.908 -301.172V-295.875H292.19V-301.172H299.908ZM315.344 -301.172V-295.875H307.626V-301.172H315.344ZM330.78 -301.172V-295.875H323.062V-301.172H330.78ZM346.216 -301.172V-295.875H338.498V-301.172H346.216ZM91.8539 -302.478C94.3019 -301.807 96.8044 -301.384 99.3081 -301.243L99.175 -295.946C96.5405 -296.105 93.8833 -296.547 91.292 -297.253L91.8539 -302.478ZM77.5656 -309.54C79.8259 -307.88 82.185 -306.433 84.5556 -305.25L83.5853 -300.201C81.0714 -301.436 78.5792 -302.973 76.1756 -304.739L77.5656 -309.54ZM64.9187 -322.305C66.8366 -319.762 68.8773 -317.379 70.9828 -315.26L69.2185 -310.776C66.9913 -313.036 64.83 -315.542 62.8018 -318.225L64.9187 -322.305ZM54.7425 -339.87C56.186 -336.622 57.774 -333.479 59.4723 -330.566L57.046 -326.964C55.2487 -330.054 53.5732 -333.373 52.0409 -336.798L54.7425 -339.87ZM47.7411 -361.037C48.6113 -357.312 49.6487 -353.622 50.8056 -350.091L47.8845 -347.62C46.6491 -351.346 45.5583 -355.247 44.6426 -359.202L47.7411 -361.037ZM44.4332 -384.394C44.6642 -380.422 45.0611 -376.432 45.6014 -372.548L42.3823 -371.383C41.7976 -375.478 41.379 -379.698 41.1367 -383.918L44.4332 -384.394ZM41.7203 -409.215L44.9849 -408.333C44.5652 -404.414 44.3115 -400.406 44.2239 -396.399L40.9161 -396.593C41.015 -400.83 41.2801 -405.067 41.7203 -409.215ZM46.3738 -433.438L49.3837 -431.231C48.3474 -427.612 47.4431 -423.834 46.7048 -420.021L43.5505 -421.573C44.3229 -425.616 45.2705 -429.606 46.3738 -433.438ZM54.7858 -454.869L57.3327 -451.48C55.7458 -448.408 54.2682 -445.142 52.9453 -441.77L50.1447 -444.595C51.545 -448.16 53.1102 -451.622 54.7858 -454.869ZM66.3736 -472.118L68.2926 -467.81C66.2633 -465.497 64.3124 -462.938 62.4822 -460.219L60.2333 -464.103C62.1625 -466.962 64.2237 -469.664 66.3736 -472.118ZM80.3548 -483.998L81.5128 -479.038C79.1752 -477.643 76.8706 -475.984 74.665 -474.112L73.1214 -478.79C75.4487 -480.768 77.8852 -482.516 80.3548 -483.998ZM95.7795 -489.648L96.0877 -484.37C93.6068 -483.998 91.1157 -483.363 88.6905 -482.48L87.9511 -487.636C90.5208 -488.571 93.1552 -489.242 95.7795 -489.648ZM111.359 -490.072V-484.775H103.641V-490.072H111.359ZM126.795 -490.072V-484.775H119.077V-490.072H126.795ZM142.23 -490.072V-484.775H134.513V-490.072H142.23ZM157.666 -490.072V-484.775H149.948V-490.072H157.666ZM173.102 -490.072V-484.775H165.384V-490.072H173.102ZM188.538 -490.072V-484.775H180.82V-490.072H188.538ZM203.974 -490.072V-484.775H196.256V-490.072H203.974ZM219.41 -490.072V-484.775H211.692V-490.072H219.41ZM234.845 -490.072V-484.775H227.128V-490.072H234.845ZM250.281 -490.072V-484.775H242.563V-490.072H250.281ZM265.717 -490.072V-484.775H257.999V-490.072H265.717ZM281.153 -490.072V-484.775H273.435V-490.072H281.153ZM296.589 -490.072V-484.775H288.871V-490.072H296.589ZM312.025 -490.072V-484.775H304.307V-490.072H312.025ZM327.46 -490.072V-484.775H319.744V-490.072H327.46ZM342.897 -490.072V-484.775H335.178V-490.072H342.897ZM358.333 -490.072V-484.775H350.615V-490.072H358.333ZM371.189 -490.072C372.027 -490.072 372.853 -490.108 373.68 -490.177L373.857 -484.9C372.975 -484.811 372.082 -484.775 371.189 -484.775H366.051V-490.072H371.189ZM388.124 -495.404L389.381 -490.513C386.922 -488.889 384.364 -487.583 381.762 -486.646L381.034 -491.82C383.449 -492.685 385.831 -493.903 388.124 -495.404ZM400.682 -507.938L402.876 -503.984C400.881 -501.159 398.731 -498.582 396.481 -496.339L394.728 -500.823C396.823 -502.924 398.83 -505.308 400.682 -507.938ZM410.01 -526.369L412.888 -523.774C411.586 -520.066 410.076 -516.518 408.4 -513.199L405.831 -516.535C407.386 -519.625 408.797 -522.926 410.01 -526.369ZM415.037 -548.684L418.29 -547.748C417.827 -543.546 417.121 -539.398 416.228 -535.39L413.108 -537.191C413.957 -540.916 414.596 -544.782 415.037 -548.684ZM419.051 -572.852V-560.459L415.743 -560.53V-572.852H419.051ZM419.051 -597.568V-585.21H415.743V-597.568H419.051ZM419.051 -622.284V-609.926H415.743V-622.284H419.051ZM419.051 -647V-634.642H415.743V-647H419.051Z" fill="white"/>
</g>
<defs>
<filter id="filter0_d_397_9760" x="10.6285" y="-625.1" width="440.721" height="875.2" filterUnits="userSpaceOnUse" color-interpolation-filters="sRGB">
<feFlood flood-opacity="0" result="BackgroundImageFix"/>
<feColorMatrix in="SourceAlpha" type="matrix" values="0 0 0 0 0 0 0 0 0 0 0 0 0 0 0 0 0 0 127 0" result="hardAlpha"/>
<feOffset/>
<feGaussianBlur stdDeviation="11.55"/>
<feComposite in2="hardAlpha" operator="out"/>
<feColorMatrix type="matrix" values="0 0 0 0 0.578051 0 0 0 0 0.511963 0 0 0 0 1 0 0 0 1 0"/>
<feBlend mode="normal" in2="BackgroundImageFix" result="effect1_dropShadow_397_9760"/>
<feBlend mode="normal" in="SourceGraphic" in2="effect1_dropShadow_397_9760" result="shape"/>
</filter>
<linearGradient id="paint0_linear_397_9760" x1="230.989" y1="-602" x2="230.989" y2="227" gradientUnits="userSpaceOnUse">
<stop stop-color="#8073D3"/>
<stop offset="0.38" stop-color="#251E52"/>
<stop offset="0.703864" stop-color="#169FA1"/>
<stop offset="0.820672" stop-color="#00122A"/>
<stop offset="0.918747" stop-color="#08346D"/>
</linearGradient>
<clipPath id="clip0_397_9760">
<rect width="463" height="177" fill="white" transform="matrix(-1 0 0 1 463 0)"/>
</clipPath>
</defs>
</svg>
