<svg width="19" height="21" viewBox="0 0 19 21" fill="none" xmlns="http://www.w3.org/2000/svg">
<path d="M18.9322 14.3654C18.7163 16.5532 17.7856 18.3238 16.0693 19.6227C14.5762 20.7509 12.8806 21.1112 11.0545 20.9714H8.06475L7.94399 20.9465C7.94399 20.9536 7.94399 20.9619 7.94399 20.9714C6.11791 21.1112 4.42357 20.7509 2.9305 19.6227C1.21298 18.3238 0.283477 16.5532 0.0663473 14.3654C-0.0678336 13.018 -0.0141612 11.6871 0.368864 10.3822C0.387162 10.323 0.393261 10.2542 0.426196 10.2068C0.476209 10.1345 0.53842 10.0504 0.61161 10.0267C0.646985 10.016 0.737252 10.1215 0.773847 10.1914C0.969019 10.5754 1.11906 10.9902 1.3557 11.3446C1.63017 11.7558 1.96684 12.1279 2.29985 12.4929C2.43037 12.6352 2.61944 12.7323 2.79632 12.8153C3.11469 12.9658 3.30865 12.8426 3.29645 12.4823C3.28547 12.1469 3.23302 11.8115 3.17203 11.482C2.95612 10.3064 2.68654 9.13902 2.5182 7.95626C2.34742 6.75454 2.3828 5.54571 2.73289 4.36769C2.74997 4.30843 2.7585 4.24088 2.79144 4.19229C2.85487 4.09867 2.93416 4.01571 3.00613 3.92919C3.08298 4.00149 3.18057 4.06193 3.23302 4.14963C3.3855 4.4068 3.51236 4.67938 3.6624 4.93774C4.06616 5.63341 4.52847 6.28049 5.10179 6.8375C5.2006 6.9335 5.30672 7.0212 5.44334 7.14327C5.4653 6.72136 5.47506 6.33619 5.50799 5.95458C5.66901 4.09867 6.15084 2.36008 7.27918 0.869186C7.48899 0.591865 7.7354 0.341803 7.97814 0.0917405C8.03426 0.0336691 8.17941 -0.022032 8.21479 0.0087814C8.277 0.0632974 8.32335 0.186551 8.31482 0.274251C8.14404 1.87181 8.43314 3.37692 9.08209 4.83108C9.24798 5.20439 9.39192 5.58482 9.50049 5.9771C9.60905 5.58482 9.75299 5.20439 9.91889 4.83108C10.5666 3.37692 10.8557 1.87181 10.6849 0.274251C10.6764 0.186551 10.7228 0.0632974 10.785 0.0087814C10.8203 -0.022032 10.9655 0.0336691 11.0216 0.0917405C11.2644 0.341803 11.5108 0.591865 11.7206 0.869186C12.8489 2.36008 13.3307 4.09867 13.4918 5.95458C13.5247 6.33619 13.5345 6.72136 13.5564 7.14327C13.693 7.0212 13.7992 6.9335 13.898 6.8375C14.4713 6.28049 14.9348 5.63341 15.3386 4.93774C15.4886 4.67938 15.6155 4.4068 15.7667 4.14963C15.8192 4.06193 15.9168 4.00149 15.9936 3.92919C16.0656 4.01571 16.1449 4.09867 16.2083 4.19229C16.2412 4.24088 16.2498 4.30843 16.2669 4.36769C16.617 5.54571 16.6523 6.75454 16.4816 7.95626C16.3144 9.13902 16.0436 10.3064 15.8277 11.482C15.768 11.8115 15.7155 12.1469 15.7033 12.4823C15.6911 12.8426 15.8851 12.9658 16.2034 12.8153C16.3803 12.7323 16.5694 12.6352 16.6999 12.4929C17.0341 12.1279 17.3696 11.7558 17.644 11.3446C17.8807 10.9902 18.0307 10.5754 18.2271 10.1914C18.2625 10.1215 18.3528 10.016 18.3881 10.0267C18.4613 10.0504 18.5235 10.1345 18.5736 10.2068C18.6077 10.2542 18.6126 10.323 18.6309 10.3822C19.0139 11.6871 19.0676 13.018 18.9334 14.3654H18.9322Z" fill="#FEFEFE"/>
</svg>
