<svg width="37" height="54" viewBox="0 0 37 54" fill="none" xmlns="http://www.w3.org/2000/svg">
<rect x="17" y="4" width="4" height="14" fill="#02234E"/>
<path fill-rule="evenodd" clip-rule="evenodd" d="M28.1269 12.0688L33.1711 13.7871C33.6812 13.9395 34.1549 13.4914 33.9519 13.0526L33.7197 12.5503L33.7196 12.5501C32.9282 10.8378 32.1373 9.12648 31.3075 7.4267C29.8551 4.44283 27.2784 2.34119 23.7855 1.0802C19.6835 -0.402493 15.467 -0.365541 11.1933 1.23263C7.36204 2.66452 4.56146 4.98787 2.78637 8.17036C0.823887 11.69 0.740599 15.2143 2.31267 18.6924C3.08951 20.4157 3.88907 22.1289 4.68828 23.8413L4.68833 23.8414L4.68874 23.8423C4.97117 24.4474 5.25357 25.0525 5.53489 25.6579C5.75873 26.1429 6.52915 26.1013 6.71134 25.6024V25.5932C7.19546 24.3276 7.68998 23.062 8.55931 21.9303C9.09548 21.2375 9.08507 20.6232 8.75191 19.9072C8.56458 19.5039 8.36551 19.1042 8.16633 18.7043L8.1663 18.7042C7.65148 17.6705 7.13594 16.6354 6.82066 15.533C6.53436 14.503 6.48751 13.4545 6.68532 12.3921C7.38806 8.65536 10.3448 6.07796 13.7596 5.07102C18.96 3.53751 23.9573 5.26039 26.2581 9.07106C26.3948 9.25806 26.5395 9.44528 26.6852 9.63379L26.6852 9.63382C27.2052 10.3067 27.7378 10.996 27.9655 11.7501C27.9859 11.8146 28.0192 11.8747 28.0519 11.9338C28.0778 11.9805 28.1033 12.0265 28.1217 12.0734L28.1269 12.0688Z" fill="#828282"/>
<path d="M5.34619 48.4721C6.05499 47.7963 6.75829 47.1205 7.46708 46.4501C7.93412 45.9446 8.26379 46.3787 8.56599 46.6425C10.9781 48.7469 13.8023 49.8897 16.9617 50.2524C20.0001 50.4831 22.8848 49.8732 25.4782 48.3183C33.3354 43.615 35.0881 33.6808 29.4013 26.4885C29.0936 26.0984 28.6595 25.7522 28.7859 25.1533C29.5332 24.3731 30.2804 23.5928 31.0332 22.8126C31.72 23.3566 32.209 24.0764 32.764 24.7357C33.0607 25.0984 33.3464 25.472 33.6321 25.8401C33.764 26.0984 33.8793 26.3676 34.0277 26.6203C35.1156 28.5105 35.8684 30.5379 36.2035 32.6808C37.0442 38.06 35.7914 42.9226 32.3903 47.1919C29.6101 50.6809 25.9782 52.8458 21.61 53.6535C16.3847 54.6205 11.5825 53.4886 7.28576 50.3403C6.69785 49.9117 6.16488 49.4007 5.60443 48.9282C5.45608 48.8073 5.35169 48.6644 5.35169 48.4666L5.34619 48.4721Z" fill="#5AA9FF"/>
<path d="M16.9231 50.4557C15.2582 50.4447 13.7088 49.9392 12.2088 49.2853C10.7033 48.6315 9.31863 47.7689 8.14829 46.604C7.9395 46.3952 7.7307 46.3458 7.47246 46.4502C7.51092 46.1425 7.434 45.8787 7.20323 45.6535C5.86256 44.3512 5.07135 42.6919 4.34607 41.0161C3.87354 39.9227 3.56584 38.7413 3.52738 37.5215C3.52188 37.3072 3.5054 37.0765 3.43397 36.8732C3.3076 36.516 3.29661 36.1534 3.31859 35.7908C3.43947 33.7083 3.74716 31.6698 4.64277 29.7523C5.2142 28.5215 5.84058 27.3182 6.73619 26.2962C7.77466 25.1204 8.89005 24.0269 10.2637 23.2028C11.6538 22.3676 13.0824 21.6753 14.6758 21.3401C15.533 21.1588 16.3736 20.928 17.2637 20.983C17.5549 20.9994 17.8407 20.9335 18.1264 20.8566C18.544 20.7467 18.9835 20.6368 19.3681 20.9775C18.6648 21.2137 18.5165 21.95 18.0714 22.417C17.4176 22.6753 16.7088 22.6258 16.0385 22.7962C15.467 22.9445 14.9066 23.1094 14.4285 23.45C13.6978 23.972 13.6978 24.505 14.445 24.9885C15.2308 25.494 16.1154 25.6973 17.0385 25.7522C17.544 25.7797 18.0769 25.7632 18.4011 26.2742C18.5714 26.6808 18.5769 27.0929 18.4011 27.4995C18.3407 27.6039 18.2527 27.6863 18.1429 27.7412C17.8242 27.8786 17.456 27.8731 17.1483 28.0434C16.1483 28.4226 15.1923 28.8566 14.5329 29.7687C13.2472 31.56 13.2143 33.5215 14.5824 35.3732C15.0714 36.038 15.1813 36.6424 14.9725 37.4116C14.522 39.071 14.1154 40.7468 13.7198 42.4172C13.489 43.3897 13.5934 43.5161 14.5769 43.5436C15.4176 43.5655 16.2637 43.5436 17.1044 43.5545C17.5385 43.56 17.9945 43.5106 18.3571 43.8403C18.6154 44.3293 18.5659 44.7853 18.1923 45.1974C17.4011 45.626 16.478 45.4117 15.6593 45.7249C14.9505 45.9941 13.967 46.1699 13.978 47.0216C13.989 47.9392 14.989 48.104 15.7527 48.3458C16.5769 48.6095 17.5 48.4227 18.2637 48.9392C18.5879 49.3897 18.7033 49.9172 18.3407 50.3293C17.978 50.7469 17.4231 50.5601 16.9396 50.4447L16.9231 50.4557Z" fill="#B9DDF6"/>
<path d="M16.9229 50.4557C17.0657 50.4557 17.2086 50.4392 17.3569 50.4392C18.2415 50.4667 18.3075 50.3348 18.2251 49.4062C18.2086 49.2359 18.0932 49.0765 18.0273 48.9062C18.0987 48.8128 18.1866 48.7469 18.291 48.7084C19.4119 48.582 20.5438 48.4886 21.5877 47.9941C22.0163 47.7908 22.4998 47.5765 22.4833 47.0051C22.4668 46.4611 22.0383 46.1974 21.5987 45.9886C20.5492 45.4996 19.4064 45.4831 18.2855 45.3567C18.1756 45.3128 18.0932 45.2468 18.0273 45.1534C18.313 44.7578 18.2525 44.3073 18.247 43.8622C19.1097 43.2523 20.0877 43.5875 21.0108 43.56C22.9833 43.5051 22.9833 43.5435 22.5108 41.6589C22.1591 40.2413 21.8075 38.8182 21.4449 37.4061C21.269 36.7193 21.3899 36.1479 21.78 35.549C23.8734 32.3621 22.7471 29.2467 19.0932 28.0434C18.78 27.939 18.4503 27.8731 18.247 27.5764C18.247 27.1423 18.247 26.7028 18.247 26.2687C18.5877 25.8841 19.0987 26.0324 19.4998 25.8511C20.2306 25.6203 21.0053 25.5214 21.7031 25.1753C22.1042 24.972 22.4778 24.7082 22.4943 24.2027C22.5108 23.6808 22.1042 23.4445 21.7031 23.2522C20.6262 22.7247 19.4448 22.6808 18.2855 22.4994C18.1811 22.4555 18.0987 22.3895 18.0273 22.3016C18.1371 22.0764 18.2251 21.8456 18.258 21.5873C18.3349 21.0324 18.3514 21.0324 18.9284 20.9884C19.0712 20.9774 19.2141 20.9774 19.3624 20.972C20.8789 20.9555 22.2745 21.4555 23.6756 21.9445C24.846 22.3511 25.9009 22.983 26.9174 23.6808C27.4834 24.0709 27.9119 24.6313 28.5163 24.983C28.6097 25.0379 28.7031 25.0929 28.7966 25.1478C29.1812 25.9061 29.8185 26.472 30.3021 27.1588C31.5273 28.8841 32.3021 30.7852 32.7636 32.8402C33.1043 34.3567 33.0658 35.9006 32.9449 37.4171C32.846 38.7193 32.4669 39.9886 31.9834 41.2193C31.1867 43.2578 29.9944 45.038 28.4009 46.5216C27.1207 47.7194 25.6757 48.7029 24.0218 49.3622C23.0328 49.7579 22.0273 50.0491 20.9943 50.2908C20.6317 50.3787 20.28 50.4282 19.9174 50.4337C19.5547 50.4392 19.1976 50.4886 18.835 50.5491C18.2031 50.659 17.5437 50.8128 16.9229 50.4447V50.4557Z" fill="#9ACCEE"/>
<path d="M18.2474 27.5763C19.0551 27.6642 19.8188 27.8785 20.5386 28.2741C21.643 28.8785 22.4672 29.7356 22.8518 30.9444C23.3298 32.439 23.2309 33.895 22.3628 35.2522C22.2035 35.4994 22.0441 35.7467 21.8463 35.961C21.5606 36.2632 21.5331 36.5818 21.632 36.972C22.0881 38.7357 22.5386 40.5049 22.9617 42.2797C23.3518 43.9171 23.698 43.8621 21.7639 43.8566C20.5936 43.8566 19.4232 43.8676 18.2474 43.8786C16.9672 43.8676 15.6869 43.8621 14.4067 43.8511C14.1155 43.8511 13.8188 43.8456 13.5276 43.8182C13.3133 43.8017 13.2034 43.6423 13.2199 43.439C13.2364 43.1863 13.2858 42.9335 13.3463 42.6863C13.8298 40.7028 14.3023 38.7137 14.8078 36.7357C14.8902 36.406 14.8682 36.1753 14.621 35.95C14.0386 35.4115 13.7144 34.7082 13.4671 33.9774C12.6759 31.6368 14.154 28.6532 16.5276 27.9829C16.7364 27.9224 16.9452 27.851 17.154 27.7851C17.4232 27.5983 17.7803 27.8181 18.0441 27.5983C18.1155 27.5983 18.1815 27.5983 18.2529 27.5818L18.2474 27.5763Z" fill="#5AA9FD"/>
<path d="M18.0275 22.3071L18.2637 22.3181C18.7088 22.884 18.5989 23.5543 18.5549 24.1807C18.4945 25.0598 18.7198 25.7082 19.5714 26.0599C19.4505 26.2082 19.2857 26.2631 19.0989 26.2686C18.8132 26.2686 18.5275 26.2686 18.2417 26.2741C17.9176 26.0708 17.5659 26.0434 17.1978 26.0544C16.1154 26.0873 15.1318 25.7577 14.2033 25.2357C14.0109 25.1258 13.8296 25.0214 13.6978 24.8346C13.3461 24.3346 13.3791 24.0543 13.7857 23.5818C14.3131 22.9664 15.0549 22.7521 15.7747 22.5598C16.5055 22.3675 17.2582 22.2411 18.0275 22.3071Z" fill="#8BC6F7"/>
<path d="M18.2583 48.9007C18.1813 48.9007 18.1044 48.9062 18.022 48.9117C16.9945 48.9666 16.011 48.7414 15.0385 48.4611C14.4121 48.2853 13.967 47.8732 13.5769 47.3842C13.3956 47.1589 13.3956 46.9117 13.5769 46.6864C13.967 46.1974 14.4231 45.8073 15.0385 45.604C16.011 45.2908 16.9945 45.093 18.022 45.1589C18.0989 45.1589 18.1758 45.1644 18.2528 45.1699C18.7912 46.4117 18.7857 47.6589 18.2583 48.9007Z" fill="#8BC6F7"/>
<path d="M9.75251 29.549C8.52722 29.4171 7.68656 28.516 7.71403 27.2742C7.73601 26.2193 8.90085 25.1369 9.88438 25.2193C11.0437 25.3127 12.0987 26.4171 12.0163 27.4555C11.9283 28.6204 10.8844 29.5874 9.75251 29.5545V29.549Z" fill="#5DAAFD"/>
<path d="M9.81278 46.2523C8.63146 46.1644 7.71936 45.3128 7.71387 44.0325C7.71387 42.9831 8.82376 41.8842 9.82927 41.9116C10.9502 41.9391 12.0491 43.0435 12.0216 44.0985C11.9886 45.2413 10.9556 46.2523 9.81278 46.2523Z" fill="#5DAAFD"/>
<path d="M18.0439 27.5929C17.7912 27.8731 17.467 27.7852 17.1538 27.7797C17.4011 27.4885 17.7362 27.5984 18.0439 27.5929Z" fill="#9ACCEE"/>
<path d="M18.2584 48.9007C18.2584 47.6589 18.2584 46.4116 18.2529 45.1699C19.3518 45.0985 20.4178 45.2413 21.4617 45.6149C21.9178 45.7743 22.3189 45.9996 22.6321 46.3732C23.0112 46.8237 22.9618 47.4446 22.5002 47.8237C22.1321 48.1259 21.698 48.3128 21.2475 48.4666C20.2804 48.7963 19.2914 48.9941 18.2584 48.9062V48.9007Z" fill="#5AA9FF"/>
<path d="M19.5716 26.0544C18.1815 26.016 18.2419 26.2028 18.2474 24.6863C18.2474 23.8951 18.2584 23.1039 18.2639 22.3126C19.2914 22.2412 20.2749 22.4555 21.2474 22.7522C21.698 22.8896 22.1321 23.0929 22.5002 23.3896C22.9617 23.7632 23.0112 24.3841 22.6375 24.8346C22.3518 25.1808 21.9947 25.4226 21.5716 25.5599C20.9178 25.7687 20.2639 25.972 19.5771 26.0489L19.5716 26.0544Z" fill="#5AA9FF"/>
<path d="M26.5001 46.2578C25.3187 46.1534 24.4231 45.3237 24.4121 44.0215C24.4066 42.983 25.4726 41.9446 26.544 41.8951C27.5385 41.8457 28.7693 43.0929 28.7253 44.1094C28.6814 45.2523 27.6319 46.2633 26.5001 46.2633V46.2578Z" fill="#5CAAFD"/>
<path d="M26.5275 29.5544C25.3791 29.4555 24.5494 28.7357 24.4066 27.4555C24.3022 26.5269 25.2802 25.2576 26.5165 25.2137C27.6044 25.1752 28.7473 26.3456 28.7308 27.3785C28.7143 28.4994 27.6648 29.5324 26.5275 29.5544Z" fill="#5CAAFD"/>
<path d="M18.2362 43.1095C17.1043 43.1095 15.9669 43.1095 14.835 43.1095C14.1317 43.1095 13.9724 43.093 14.1702 42.3182C14.6262 40.549 15.0438 38.7743 15.4724 36.9995C15.5219 36.7852 15.5768 36.5764 15.6262 36.3622C15.6812 36.1314 15.6208 35.9336 15.4394 35.7687C15.2801 35.6204 15.1208 35.4665 14.9834 35.2962C13.5603 33.5874 13.7032 31.0544 15.3076 29.5324C16.9394 27.9885 19.5658 28.0159 21.1593 29.5929C22.7472 31.1643 22.8406 33.6643 21.368 35.3567C20.6757 35.7797 20.7362 36.3786 20.9175 37.06C21.39 38.8622 21.8021 40.6754 22.2637 42.4831C22.3845 42.9611 22.3241 43.1149 21.7417 43.1095C20.5713 43.0985 19.401 43.1095 18.2307 43.1095H18.2362Z" fill="black"/>
<path d="M10.8242 26.2961C11.7967 27.0654 11.3077 28.483 10.3187 28.8071C9.69231 29.0104 9.18132 28.8786 8.8022 28.3236C8.79121 28.1643 8.87912 28.0654 9.00549 27.983C9.09341 27.9445 9.18681 27.9335 9.28022 27.939C9.46154 27.9665 9.64286 27.994 9.82418 27.961C10.4451 27.8126 10.4066 27.3291 10.3846 26.8566C10.4176 26.5764 10.5055 26.3401 10.8297 26.2961H10.8242Z" fill="#81878E"/>
<path d="M9.23077 28.038C9.08791 28.1314 8.93956 28.2303 8.7967 28.3237C8.43956 28.0654 8.34615 27.7028 8.36263 27.2797C8.37362 26.9336 8.51648 26.6588 8.74725 26.4171C9.39561 25.7412 9.96155 25.7028 10.8242 26.2962C10.7033 26.4885 10.5714 26.6808 10.5659 26.9226C9.58242 26.6478 9.30769 27.2248 9.23077 28.038Z" fill="#C5C9CF"/>
<path d="M10.8244 42.9995C11.7969 43.7687 11.3134 45.1863 10.3134 45.5105C9.68699 45.7138 9.176 45.5819 8.79688 45.027C8.80786 44.7797 8.9727 44.6644 9.18699 44.5984C9.96721 44.6973 10.5222 44.538 10.3738 43.5655C10.4068 43.2852 10.4947 43.0435 10.8244 42.9995Z" fill="#82888F"/>
<path d="M9.23635 44.7358C9.08799 44.8292 8.94514 44.9281 8.79678 45.0215C8.43414 44.7633 8.34623 44.4007 8.36272 43.9776C8.3737 43.6314 8.51656 43.3567 8.74733 43.1149C9.39019 42.4391 9.96163 42.4006 10.8243 42.9941C10.7034 43.1864 10.5715 43.3787 10.566 43.6204C9.65943 43.4336 9.26931 43.8732 9.23635 44.7358Z" fill="#C5CACF"/>
<path d="M27.5221 42.9995C27.9617 43.2468 28.0551 43.6973 28.0496 44.1204C28.0441 44.505 27.9067 44.9061 27.5716 45.1808C27.2529 45.4391 26.9067 45.6039 26.4836 45.6039C26.0386 45.6039 25.7364 45.3732 25.4946 45.027C25.5111 44.7797 25.6705 44.6644 25.8847 44.5984C26.6595 44.6973 27.2199 44.5435 27.0716 43.5709C27.1045 43.2907 27.1869 43.049 27.5166 42.9995H27.5221Z" fill="#81888E"/>
<path d="M25.9395 44.7358C25.7911 44.8292 25.6483 44.9281 25.4999 45.0215C25.1373 44.7633 25.0494 44.4007 25.0658 43.9776C25.0768 43.6314 25.2197 43.3567 25.4505 43.1149C26.0988 42.4391 26.6648 42.4006 27.5274 42.9941C27.4065 43.1864 27.2746 43.3787 27.2692 43.6204C26.3571 43.4281 25.9779 43.8787 25.9395 44.7303V44.7358Z" fill="#C5CACF"/>
<path d="M27.5217 26.2961C27.9613 26.5434 28.0547 26.994 28.0492 27.417C28.0492 27.7632 27.9338 28.1313 27.6481 28.4006C27.3185 28.7082 26.9448 28.8951 26.4778 28.8951C26.0327 28.8951 25.7305 28.6588 25.4888 28.3181C25.5053 28.0709 25.6701 27.9555 25.8844 27.8896C26.6591 27.9885 27.2195 27.8346 27.0712 26.8621C27.1042 26.5819 27.1866 26.3401 27.5163 26.2906L27.5217 26.2961Z" fill="#828991"/>
<path d="M27.5221 26.2961C27.4012 26.4884 27.2694 26.6807 27.2639 26.9225C26.3518 26.7301 25.9727 27.1807 25.9342 28.0324C25.7858 28.1258 25.6375 28.2247 25.4891 28.3181C25.1265 28.0598 25.0441 27.6917 25.0606 27.2741C25.0715 26.928 25.2144 26.6532 25.4452 26.4115C26.088 25.7356 26.6595 25.7027 27.5221 26.2906V26.2961Z" fill="#C5CACF"/>
<path d="M9.23084 28.0379C9.1649 27.8346 9.06051 27.6423 9.03303 27.4335C8.98358 27.0269 9.21435 26.7522 9.55501 26.5818C9.87919 26.417 10.1759 26.4774 10.4012 26.7851C10.4396 26.8401 10.5111 26.8785 10.566 26.9225C10.7363 27.2192 10.7583 27.5049 10.577 27.8126C10.3682 28.1533 10.0715 28.2742 9.69238 28.2247C9.56051 28.1203 9.3682 28.1478 9.23633 28.0434L9.23084 28.0379Z" fill="#F8F8F8"/>
<path d="M9.23096 28.0379C9.41777 28.0049 9.57162 28.0708 9.687 28.2192C9.49469 28.2521 9.34634 28.1862 9.23096 28.0379Z" fill="#C5C9CF"/>
<path d="M9.23629 44.7358C9.04398 44.3457 8.88464 43.9556 9.21432 43.5545C9.51102 43.1864 9.79124 43.1369 10.2198 43.3842C10.3407 43.4556 10.4506 43.5435 10.566 43.6259C10.8077 44.0215 10.7363 44.3897 10.4231 44.7029C10.0495 45.0765 9.63739 44.9446 9.23629 44.7413V44.7358Z" fill="#F8F8F8"/>
<path d="M25.9394 44.7357C25.7471 44.3456 25.5878 43.9555 25.9174 43.5544C26.2141 43.1863 26.4999 43.1313 26.9229 43.3841C27.0438 43.4555 27.1537 43.5434 27.2691 43.6259C27.5164 44.0215 27.4394 44.3896 27.1262 44.6973C26.7526 45.0709 26.3405 44.9445 25.9394 44.7357Z" fill="#F8F8F8"/>
<path d="M25.9394 28.0324C25.7471 27.6423 25.5878 27.2522 25.9174 26.8511C26.2141 26.4829 26.4999 26.428 26.9229 26.6807C27.0438 26.7522 27.1537 26.8401 27.2691 26.9225C27.5109 27.3181 27.4394 27.6862 27.1317 27.9994C26.7581 28.3785 26.346 28.2357 25.9449 28.0379L25.9394 28.0324Z" fill="#F8F8F8"/>
<path fill-rule="evenodd" clip-rule="evenodd" d="M27.742 19.7714C27.6788 19.7509 27.6093 19.7208 27.5329 19.6807C27.3022 19.5598 27.0824 19.4389 26.8571 19.3125C24.3846 17.9444 21.7032 17.2851 18.8955 17.1752C15.4175 17.0378 12.1647 17.8785 9.11522 19.5433C8.79275 19.7178 8.58925 19.8159 8.46047 19.8077L7.6903 20.3212C7.65726 20.6914 7.51081 20.9672 7.17016 21.2192C5.59872 22.373 4.28552 23.7851 3.17562 25.384C3.04925 25.5653 2.90639 25.7247 2.67562 25.7741L2.68112 25.7851C2.64401 26.1005 2.50118 26.3729 2.35841 26.6451C2.33205 26.6953 2.3057 26.7456 2.28001 26.7961C1.86792 27.6093 1.45583 28.4225 1.13715 29.2796C0.466816 31.0654 0.0492304 32.9005 0.0107687 34.8126C0.0107687 34.9486 0.0126112 35.0839 0.0144483 35.2188C0.0181057 35.4874 0.0217411 35.7544 0.0107687 36.0214C-0.0716495 37.8676 0.329452 39.6369 0.856928 41.3841C1.54375 43.6534 2.76353 45.6314 4.21959 47.4776L4.23272 47.4942L4.23274 47.4942C4.53655 47.8795 4.85866 48.288 5.35696 48.4776C6.45037 48.1039 7.07675 47.2358 7.66467 46.3292C7.728 45.8813 7.47844 45.5862 7.22575 45.2873L7.22573 45.2873C7.17153 45.2232 7.11719 45.1589 7.06576 45.0929C4.56574 41.8731 3.28002 38.2907 3.79651 34.1588C4.48882 28.6478 7.41192 24.7466 12.3955 22.4115C14.5713 21.3895 16.934 21.0983 19.3406 21.1862C22.4615 21.6093 25.3461 22.5763 27.7252 24.7521C27.989 24.9994 28.3022 25.2027 28.6758 25.2576C29.6978 24.6697 30.5494 23.9225 31.0384 22.8181C30.5549 22.2137 29.9505 21.7466 29.3406 21.2961C29.1303 21.1397 28.9822 20.978 28.8872 20.7922L27.7418 19.7741L27.742 19.7714Z" fill="#D9EFFF"/>
<path d="M9.57057 5.23325C9.59998 5.49163 9.56209 5.72709 9.35559 5.92134C9.19426 6.07193 9.02643 6.21806 8.85694 6.3537C6.77303 8.03107 5.43261 10.1262 4.78369 12.6034C4.74782 12.7422 4.73545 12.8831 4.68742 13.0182C4.49697 13.569 4.01469 13.8492 3.4644 13.737C2.95625 13.6352 2.6165 13.1354 2.72198 12.5962C2.86633 11.8642 3.07716 11.1499 3.36662 10.457C4.22852 8.37374 5.52237 6.5688 7.33662 5.08896C7.56744 4.90209 7.79827 4.71522 8.05191 4.56272C8.724 4.16555 9.4785 4.50683 9.57057 5.23325Z" fill="#FEFEFE"/>
<path d="M12.4414 2.31288C13.0442 2.209 13.5595 2.46519 13.7435 2.89522C13.9283 3.33049 13.7287 3.82369 13.2381 4.05144C13.0013 4.16416 12.7482 4.24698 12.4934 4.31931C11.962 4.47232 11.3836 4.21941 11.1776 3.76026C10.9905 3.34673 11.2006 2.84674 11.6952 2.60773C11.9635 2.47464 12.2506 2.38717 12.4414 2.31288Z" fill="#FAFAFA"/>
</svg>
