<svg width="17" height="22" viewBox="0 0 17 22" fill="none" xmlns="http://www.w3.org/2000/svg">
<path d="M3.61609 15.0315C3.61609 15.2481 3.61609 15.4466 3.61609 15.6432C3.61609 17.1613 3.62024 18.6774 3.61194 20.1956C3.60779 20.9476 3.25916 21.5131 2.54114 21.826C1.86463 22.1208 1.18605 22.0486 0.667254 21.5512C0.370503 21.2665 0.214865 20.8333 0.0446998 20.4442C-0.0300068 20.2718 0.0114969 20.0492 0.0114969 19.8486C0.0114969 13.9446 0.00942167 8.04049 0.0156472 2.13843C0.0156472 1.80953 0.0322487 1.46259 0.133933 1.15375C0.387105 0.397693 1.21303 -0.0856217 1.99745 0.0126456C2.85865 0.12094 3.5227 0.718566 3.57873 1.54481C3.60779 1.98401 3.8153 2.18656 4.18469 2.36103C5.45055 2.95465 6.80979 3.14918 8.18564 3.28354C10.0741 3.46805 11.9687 3.6345 13.7284 4.39858C14.2929 4.64324 14.8449 4.92601 15.3616 5.25491C16.2519 5.82245 16.7976 6.63065 16.9637 7.66146C17.1961 9.10739 16.2954 10.4109 14.7889 10.5273C13.1225 10.6556 11.7134 11.3294 10.3106 12.0875C9.99519 12.258 9.67977 12.4304 9.36641 12.6069C7.56308 13.6197 5.75975 14.6364 3.62024 15.0315H3.61609ZM3.64099 11.4558C6.60227 10.441 8.95968 8.47567 11.8483 7.5291C11.84 7.46292 11.8317 7.39674 11.8234 7.33056C9.10079 6.92345 6.37815 6.51634 3.64306 6.10723V11.4558H3.64099Z" fill="#FEFEFE"/>
</svg>
