<svg width="371" height="123" viewBox="0 0 371 123" fill="none" xmlns="http://www.w3.org/2000/svg">
<g clip-path="url(#clip0_532_722)">
<path d="M11 405.415C11 450.902 38.3351 487.915 71.9288 487.915H193.387C195.863 487.915 198.28 488.298 200.601 489.01C200.991 489.142 201.38 489.274 201.761 489.42C207.951 491.677 213.401 496.389 217.514 502.738C217.797 503.187 218.07 503.623 218.343 504.085C218.431 504.23 218.519 504.375 218.597 504.52C218.86 504.969 219.113 505.418 219.347 505.867C220.956 508.85 222.291 512.137 223.286 515.622C223.666 516.915 223.987 518.235 224.27 519.582C224.728 521.786 225.07 524.056 225.265 526.393C225.401 528.016 225.469 529.68 225.469 531.356V593H243.017V531.356C243.017 525.39 242.442 519.595 241.35 514.09C240.745 510.962 239.965 507.913 239.03 504.982C238.669 503.821 238.279 502.672 237.86 501.55C235.501 495.109 232.391 489.248 228.686 484.179C227.965 483.176 227.205 482.199 226.425 481.249H226.415C224.514 478.939 222.486 476.84 220.342 474.952C219.376 474.108 218.382 473.289 217.368 472.537C215.76 471.322 214.093 470.227 212.377 469.276C211.207 468.616 210.018 468.009 208.799 467.481C205.699 466.095 202.453 465.118 199.119 464.604C197.237 464.3 195.327 464.155 193.387 464.155H71.9288C48.0155 464.155 28.5475 437.808 28.5475 405.415C28.5475 373.022 48.0155 346.675 71.9288 346.675H299.071C308.986 346.675 318.364 343.454 326.65 337.725C327.196 337.356 327.732 336.973 328.259 336.577C330.783 334.702 333.201 332.59 335.502 330.28C350.359 315.219 360 291.195 360 264.175C360 218.688 332.675 181.675 299.071 181.675H71.9288C48.0155 181.675 28.5475 155.328 28.5475 122.935C28.5475 90.542 48.0155 64.1948 71.9288 64.1948H310.37C337.734 64.1948 360 34.046 360 -3.0064V-67H342.453V-3.0064C342.453 20.9516 328.064 40.4348 310.37 40.4348H71.9288C38.3351 40.4348 11 77.4476 11 122.935C11 168.422 38.3351 205.435 71.9288 205.435H299.071C322.994 205.435 342.453 231.782 342.453 264.175C342.453 280.833 337.305 295.894 329.058 306.586C327.089 309.134 324.934 311.444 322.643 313.464C322.253 313.807 321.854 314.15 321.454 314.48C317.223 317.938 312.534 320.446 307.533 321.78C307.231 321.872 306.919 321.951 306.617 322.017C304.16 322.611 301.645 322.915 299.071 322.915H71.9288C38.3351 322.915 11 359.928 11 405.415Z" fill="url(#paint0_linear_532_722)"/>
<path d="M235.795 576.756V586H232.865V576.756H235.795ZM235.795 558.269V567.513H232.865V558.269H235.795ZM235.795 539.782V549.025H232.865V539.782H235.795ZM235.073 521.004C235.102 521.189 235.121 521.373 235.141 521.558C235.532 524.503 235.747 527.501 235.786 530.511L232.865 530.578C232.826 528.227 232.68 525.876 232.416 523.566C232.348 522.958 232.279 522.337 232.191 521.73L235.073 521.004ZM230.209 503.124C231.176 505.422 232.045 507.825 232.768 510.294C232.924 510.783 233.061 511.271 233.197 511.773L230.443 513.147C230.394 512.962 230.336 512.764 230.277 512.579C229.564 510.004 228.675 507.482 227.659 505.091L230.209 503.124ZM219.406 491.265L221.262 488.387C222.043 489.311 222.805 490.275 223.528 491.279C224.085 492.031 224.632 492.81 225.149 493.616C225.501 494.157 225.853 494.699 226.185 495.253L223.928 497.762L223.753 497.485C223.088 496.402 222.385 495.359 221.662 494.356C221.604 494.276 221.545 494.184 221.487 494.118C221.233 493.761 220.979 493.418 220.715 493.088C220.617 492.943 220.51 492.824 220.412 492.692C220.334 492.599 220.266 492.507 220.188 492.414C220.129 492.335 220.07 492.269 220.012 492.203C219.934 492.097 219.856 491.992 219.768 491.899L219.416 491.464C219.416 491.464 219.367 491.398 219.338 491.371L219.406 491.265ZM209.258 478.417C210.274 478.971 211.27 479.579 212.257 480.239C212.911 480.675 213.546 481.137 214.181 481.626C214.65 481.969 215.109 482.339 215.568 482.722L214.161 485.825L214.034 486.102C213.351 485.534 212.657 484.993 211.944 484.491C210.714 483.593 209.444 482.788 208.155 482.088L209.258 478.417ZM195.487 474.336C197.841 474.495 200.204 474.917 202.49 475.591L201.865 479.46C199.735 478.826 197.538 478.443 195.34 478.298L195.487 474.336ZM79.1808 474.27V478.232H72.3438V474.27H79.1808ZM92.8546 474.27V478.232H86.0177V474.27H92.8546ZM106.529 474.27V478.232H99.6916V474.27H106.529ZM120.202 474.27V478.232H113.365V474.27H120.202ZM133.876 474.27V478.232H127.039V474.27H133.876ZM147.55 474.27V478.232H140.713V474.27H147.55ZM161.224 474.27V478.232H154.387V474.27H161.224ZM174.898 474.27V478.232H168.061V474.27H174.898ZM188.572 474.27V478.232H181.735V474.27H188.572ZM59.1681 472.157C61.3169 472.897 63.5047 473.438 65.7022 473.795L65.3604 477.73C63.0359 477.36 60.7113 476.779 58.4551 476L59.1681 472.157ZM46.8811 465.515C48.8052 466.981 50.8173 468.275 52.8586 469.384L51.7744 473.069C49.6062 471.893 47.4769 470.52 45.4454 468.975L46.8811 465.515ZM36.2741 454.793C37.8466 456.866 39.5461 458.833 41.3139 460.616L39.5558 463.799C37.6903 461.897 35.8932 459.824 34.2231 457.618L36.2741 454.793ZM28.0601 440.716C29.193 443.278 30.453 445.773 31.8204 448.111L29.5251 450.567C28.0796 448.084 26.7415 445.456 25.5402 442.749L28.0601 440.716ZM22.825 424.262C23.4207 427.141 24.163 429.98 25.042 432.727L22.3463 434.285C21.4282 431.393 20.6371 428.382 20.0022 425.332L22.825 424.262ZM20.9301 406.527C20.9594 409.525 21.1352 412.536 21.4478 415.48L18.5469 416.048C18.2148 412.932 18.0293 409.749 18 406.58L20.9301 406.527ZM19.6213 387.763L22.4635 388.74C21.9263 391.619 21.5259 394.59 21.2622 397.561L18.3516 397.112C18.6251 393.956 19.0548 390.826 19.6213 387.763ZM24.8076 370.173L27.3666 372.101C26.2825 374.716 25.3253 377.436 24.5146 380.209L21.7896 378.743C22.6491 375.812 23.6649 372.933 24.8076 370.173ZM33.1877 354.987L35.2877 357.747C33.7444 359.886 32.2989 362.184 30.9804 364.587L28.6266 362.21C30.0233 359.688 31.5566 357.259 33.1877 354.987ZM44.1757 343.235L45.6798 346.628C43.785 348.16 41.9488 349.877 40.2103 351.726L38.3936 348.622C40.2298 346.668 42.1734 344.846 44.1757 343.235ZM57.0486 335.708L57.8495 339.524C55.7203 340.343 53.6106 341.346 51.5889 342.535L50.4266 338.903C52.5656 337.649 54.7924 336.579 57.0486 335.708ZM70.9081 332.987L70.9569 336.949C68.7398 336.988 66.5129 337.226 64.3349 337.649L63.9149 333.727C66.2199 333.278 68.5738 333.027 70.9081 332.987ZM84.6113 332.974V336.936H77.7743V332.974H84.6113ZM98.2851 332.974V336.936H91.4482V332.974H98.2851ZM111.959 332.974V336.936H105.122V332.974H111.959ZM125.633 332.974V336.936H118.796V332.974H125.633ZM139.307 332.974V336.936H132.47V332.974H139.307ZM152.981 332.974V336.936H146.144V332.974H152.981ZM166.654 332.974V336.936H159.818V332.974H166.654ZM180.328 332.974V336.936H173.491V332.974H180.328ZM194.002 332.974V336.936H187.165V332.974H194.002ZM207.676 332.974V336.936H200.839V332.974H207.676ZM221.35 332.974V336.936H214.513V332.974H221.35ZM235.024 332.974V336.936H228.187V332.974H235.024ZM248.698 332.974V336.936H241.861V332.974H248.698ZM262.372 332.974V336.936H255.535V332.974H262.372ZM276.045 332.974V336.936H269.208V332.974H276.045ZM289.719 332.974V336.936H282.882V332.974H289.719ZM299.477 332.974C300.307 332.974 301.147 332.934 301.977 332.882C302.172 332.868 302.368 332.855 302.563 332.829C302.797 332.816 303.032 332.789 303.266 332.763L303.471 336.289L303.501 336.711C303.335 336.724 303.169 336.751 302.993 336.751C301.762 336.87 300.522 336.936 299.281 336.936H296.556V332.974H299.477ZM312.701 330.544C312.926 330.465 313.15 330.386 313.375 330.293C313.717 330.161 314.049 330.029 314.381 329.884C314.567 329.818 314.752 329.739 314.928 329.66C315.368 329.461 315.797 329.263 316.227 329.065L317.204 332.789C316.774 333 316.344 333.199 315.905 333.383C315.729 333.463 315.543 333.542 315.368 333.621C314.322 334.07 313.258 334.466 312.184 334.823C311.959 334.902 311.734 334.981 311.51 335.034C311.158 335.153 310.797 335.259 310.445 335.364L309.839 331.482C310.797 331.218 311.754 330.901 312.701 330.544ZM326.297 322.449C326.375 322.397 326.453 322.331 326.531 322.265C327.039 321.829 327.537 321.38 328.026 320.918L329.686 324.193C328.963 324.866 328.231 325.513 327.479 326.121C327.42 326.187 327.361 326.239 327.293 326.279C326.111 327.269 324.89 328.194 323.66 329.039L322.331 325.513C323.679 324.589 325.008 323.572 326.297 322.449ZM333.29 315.305C334.911 313.325 336.455 311.185 337.881 308.94L340.107 311.516C338.584 313.919 336.943 316.203 335.204 318.316L333.398 315.596V315.583L333.251 315.371L333.3 315.305H333.29ZM345.118 293.926L347.755 295.643C346.749 298.482 345.597 301.268 344.317 303.923L341.866 301.757C343.067 299.248 344.161 296.62 345.118 293.926ZM349.22 276.891L352.101 277.618C351.672 280.721 351.095 283.824 350.373 286.822L347.589 285.594C348.273 282.754 348.82 279.836 349.22 276.891ZM349.923 259.011L352.844 258.708C352.951 260.556 353 262.432 353 264.307C353 265.601 352.98 266.908 352.922 268.189L350.002 267.978C350.05 266.763 350.07 265.535 350.07 264.307C350.07 262.537 350.021 260.755 349.923 259.011ZM349.962 240.168C350.734 243.139 351.379 246.215 351.857 249.306L348.986 250.124C348.536 247.206 347.931 244.288 347.198 241.475L349.962 240.168ZM343.614 223.278C344.932 225.879 346.144 228.626 347.198 231.439L344.591 233.235C343.585 230.567 342.452 227.979 341.201 225.51L343.614 223.278ZM334.257 209.175C336.035 211.235 337.715 213.466 339.277 215.817L337.099 218.458C335.624 216.24 334.023 214.127 332.352 212.186L334.257 209.175ZM322.527 198.809C324.627 200.169 326.688 201.74 328.641 203.47L327.039 206.785C325.193 205.147 323.24 203.668 321.257 202.374L322.527 198.809ZM309.205 192.906C311.5 193.487 313.785 194.279 316.002 195.27L315.094 199.033C312.994 198.096 310.836 197.356 308.658 196.801L309.205 192.906ZM299.281 191.678C300.268 191.678 301.254 191.717 302.231 191.783L302.075 195.745C301.157 195.679 300.219 195.639 299.281 195.639H295.316V191.678H299.281ZM83.3708 191.678V195.639H76.5339V191.678H83.3708ZM97.0447 191.678V195.639H90.2078V191.678H97.0447ZM110.719 191.678V195.639H103.882V191.678H110.719ZM124.392 191.678V195.639H117.556V191.678H124.392ZM138.066 191.678V195.639H131.229V191.678H138.066ZM151.74 191.678V195.639H144.903V191.678H151.74ZM165.414 191.678V195.639H158.577V191.678H165.414ZM179.088 191.678V195.639H172.251V191.678H179.088ZM192.762 191.678V195.639H185.925V191.678H192.762ZM206.436 191.678V195.639H199.599V191.678H206.436ZM220.11 191.678V195.639H213.273V191.678H220.11ZM233.783 191.678V195.639H226.946V191.678H233.783ZM247.457 191.678V195.639H240.62V191.678H247.457ZM261.131 191.678V195.639H254.294V191.678H261.131ZM274.805 191.678V195.639H267.968V191.678H274.805ZM288.479 191.678V195.639H281.642V191.678H288.479ZM63.153 190.701C65.3213 191.202 67.5385 191.519 69.7556 191.625L69.6384 195.587C67.3041 195.468 64.9502 195.138 62.655 194.609L63.153 190.701ZM50.495 185.419C52.4972 186.66 54.5873 187.743 56.6873 188.627L55.8278 192.404C53.6009 191.48 51.3935 190.331 49.2643 189.01L50.495 185.419ZM39.2921 175.871C40.9916 177.773 42.7985 179.555 44.664 181.14L43.1013 184.494C41.1284 182.804 39.214 180.929 37.4169 178.922L39.2921 175.871ZM30.2772 162.732C31.5566 165.162 32.9631 167.512 34.4672 169.691L32.3185 172.385C30.7265 170.074 29.2419 167.591 27.8842 165.03L30.2772 162.732ZM24.0751 146.899C24.8467 149.685 25.7648 152.445 26.7903 155.086L24.2021 156.935C23.1082 154.148 22.1412 151.23 21.3306 148.272L24.0751 146.899ZM21.145 129.428C21.3501 132.399 21.7017 135.384 22.1803 138.289L19.3283 139.16C18.8106 136.097 18.4395 132.941 18.2246 129.785L21.145 129.428ZM18.7423 110.862L21.6334 111.522C21.2622 114.453 21.0376 117.451 20.9594 120.449L18.0293 120.303C18.1172 117.134 18.3516 113.965 18.7423 110.862ZM22.864 92.744L25.5304 94.3947C24.6123 97.1017 23.8114 99.9277 23.157 102.78L20.3636 101.618C21.0473 98.5939 21.8873 95.6095 22.864 92.744ZM30.3162 76.7128L32.5724 79.2482C31.166 81.5459 29.8572 83.9889 28.6852 86.5111L26.2043 84.3983C27.4447 81.7308 28.8316 79.1426 30.3162 76.7128ZM40.5814 63.8113L42.2809 67.0334C40.4837 68.7633 38.755 70.678 37.1336 72.7116L35.1411 69.8065C36.8504 67.6672 38.6768 65.6468 40.5814 63.8113ZM52.966 54.9241L53.9915 58.6348C51.9209 59.678 49.8796 60.9193 47.9262 62.3191L46.5588 58.8197C48.6197 57.3407 50.7782 56.0334 52.966 54.9241ZM66.6301 50.6985L66.9036 54.6468C64.706 54.9241 62.4987 55.3995 60.3499 56.0598L59.6955 52.2039C61.9713 51.504 64.3056 51.0022 66.6301 50.6985ZM80.4309 50.3815V54.3431H73.594V50.3815H80.4309ZM94.1049 50.3815V54.3431H87.2679V50.3815H94.1049ZM107.779 50.3815V54.3431H100.942V50.3815H107.779ZM121.453 50.3815V54.3431H114.616V50.3815H121.453ZM135.126 50.3815V54.3431H128.289V50.3815H135.126ZM148.8 50.3815V54.3431H141.963V50.3815H148.8ZM162.474 50.3815V54.3431H155.637V50.3815H162.474ZM176.148 50.3815V54.3431H169.311V50.3815H176.148ZM189.822 50.3815V54.3431H182.985V50.3815H189.822ZM203.496 50.3815V54.3431H196.659V50.3815H203.496ZM217.17 50.3815V54.3431H210.333V50.3815H217.17ZM230.844 50.3815V54.3431H224.007V50.3815H230.844ZM244.517 50.3815V54.3431H237.68V50.3815H244.517ZM258.191 50.3815V54.3431H251.354V50.3815H258.191ZM271.865 50.3815V54.3431H265.028V50.3815H271.865ZM285.539 50.3815V54.3431H278.702V50.3815H285.539ZM299.213 50.3815V54.3431H292.376V50.3815H299.213ZM310.601 50.3815C311.344 50.3815 312.076 50.3551 312.809 50.3023L312.965 54.2507C312.183 54.3167 311.392 54.3431 310.601 54.3431H306.05V50.3815H310.601ZM325.603 46.3936L326.717 50.0514C324.539 51.2663 322.273 52.2435 319.968 52.9434L319.323 49.0742C321.462 48.4272 323.572 47.516 325.603 46.3936ZM336.728 37.0178L338.672 39.9758C336.904 42.0886 334.999 44.0166 333.007 45.6937L331.454 42.3395C333.31 40.7681 335.087 38.9854 336.728 37.0178ZM344.991 23.2315L347.54 25.1727C346.388 27.9458 345.05 30.6001 343.565 33.0827L341.289 30.5869C342.666 28.2759 343.917 25.8065 344.991 23.2315ZM349.445 6.54008L352.326 7.23996C351.916 10.3828 351.291 13.486 350.5 16.4836L347.736 15.1367C348.488 12.3504 349.054 9.45844 349.445 6.54008ZM353 -11.5379V-2.26782L350.07 -2.32065V-11.5379H353ZM353 -30.0253V-20.7816H350.07V-30.0253H353ZM353 -48.5126V-39.269H350.07V-48.5126H353ZM353 -67V-57.7563H350.07V-67H353Z" fill="white"/>
</g>
<defs>
<linearGradient id="paint0_linear_532_722" x1="360" y1="263" x2="11" y2="263" gradientUnits="userSpaceOnUse">
<stop stop-color="#169FA1"/>
<stop offset="0.345" stop-color="#052B5D"/>
<stop offset="0.585" stop-color="#02234E"/>
<stop offset="0.78" stop-color="#5444B8"/>
<stop offset="1" stop-color="#2B235C"/>
</linearGradient>
<clipPath id="clip0_532_722">
<rect width="371" height="123" fill="white" transform="matrix(-1 0 0 1 371 0)"/>
</clipPath>
</defs>
</svg>
