<svg width="453" height="177" viewBox="0 0 453 177" fill="none" xmlns="http://www.w3.org/2000/svg">
<g clip-path="url(#clip0_386_9670)">
<g filter="url(#filter0_d_386_9670)">
<path d="M420 364.382C420 421.516 389.767 468.007 352.611 468.007H218.278C215.539 468.007 212.865 468.488 210.299 469.382C209.867 469.548 209.436 469.714 209.016 469.897C202.169 472.732 196.141 478.651 191.591 486.625C191.279 487.189 190.977 487.737 190.675 488.317C190.578 488.5 190.481 488.682 190.395 488.864C190.103 489.428 189.823 489.992 189.565 490.556C187.786 494.303 186.309 498.431 185.209 502.809C184.788 504.433 184.432 506.091 184.12 507.783C183.612 510.551 183.235 513.402 183.019 516.338C182.869 518.376 182.794 520.466 182.794 522.571V600H163.386V522.571C163.386 515.078 164.022 507.799 165.229 500.884C165.897 496.955 166.761 493.126 167.795 489.444C168.195 487.986 168.626 486.543 169.089 485.133C171.699 477.043 175.138 469.681 179.235 463.314C180.033 462.054 180.874 460.827 181.737 459.634H181.748C183.85 456.733 186.093 454.096 188.465 451.725C189.532 450.665 190.631 449.636 191.753 448.691C193.533 447.165 195.376 445.79 197.274 444.595C198.567 443.766 199.883 443.004 201.23 442.341C204.66 440.6 208.25 439.372 211.937 438.727C214.018 438.345 216.132 438.163 218.278 438.163H352.611C379.061 438.163 400.592 405.07 400.592 364.382C400.592 323.694 379.061 290.601 352.611 290.601H101.388C90.4229 290.601 80.0505 286.555 70.8857 279.359C70.2819 278.896 69.6889 278.415 69.1066 277.917C66.314 275.562 63.64 272.909 61.0954 270.008C44.6635 251.09 34 220.915 34 186.976C34 129.841 64.2222 83.3509 101.388 83.3509H352.611C379.061 83.3509 400.592 50.2574 400.592 9.56989C400.592 -31.1177 379.061 -64.2111 352.611 -64.2111H88.8918C58.6264 -64.2111 34 -102.08 34 -148.62V-229H53.4078V-148.62C53.4078 -118.527 69.3222 -94.0551 88.8918 -94.0551H352.611C389.767 -94.0551 420 -47.5645 420 9.56989C420 66.7043 389.767 113.195 352.611 113.195H101.388C74.9289 113.195 53.4078 146.288 53.4078 186.976C53.4078 207.899 59.1008 226.817 68.2224 240.247C70.4005 243.447 72.7833 246.349 75.3171 248.886C75.7484 249.317 76.1905 249.748 76.6325 250.162C81.3119 254.505 86.4981 257.656 92.0294 259.331C92.3636 259.447 92.7087 259.546 93.0429 259.629C95.76 260.375 98.5418 260.757 101.388 260.757H352.611C389.767 260.757 420 307.247 420 364.382Z" fill="url(#paint0_linear_386_9670)"/>
</g>
<path d="M171.45 580.378V592H174.687V580.378H171.45ZM171.45 557.135V568.756H174.687V557.135H171.45ZM171.45 533.891V545.513H174.687V533.891H171.45ZM172.248 510.282C172.216 510.514 172.195 510.746 172.172 510.979C171.742 514.682 171.504 518.45 171.461 522.236L174.687 522.319C174.729 519.364 174.891 516.408 175.183 513.502C175.257 512.739 175.333 511.959 175.43 511.195L172.248 510.282ZM177.62 487.802C176.553 490.691 175.592 493.712 174.794 496.817C174.622 497.432 174.471 498.045 174.319 498.677L177.361 500.404C177.415 500.171 177.48 499.922 177.545 499.689C178.333 496.452 179.314 493.281 180.436 490.276L177.62 487.802ZM189.551 472.893L187.502 469.274C186.638 470.436 185.797 471.647 184.999 472.909C184.384 473.856 183.78 474.836 183.208 475.848C182.82 476.529 182.432 477.209 182.064 477.907L184.557 481.062L184.751 480.712C185.484 479.351 186.261 478.039 187.059 476.778C187.124 476.678 187.189 476.561 187.254 476.478C187.534 476.031 187.815 475.599 188.105 475.184C188.213 475.002 188.332 474.852 188.44 474.686C188.526 474.569 188.602 474.453 188.689 474.338C188.753 474.237 188.818 474.154 188.882 474.071C188.969 473.939 189.055 473.806 189.153 473.69L189.541 473.142C189.541 473.142 189.594 473.058 189.627 473.026L189.551 472.893ZM200.76 456.739C199.638 457.436 198.537 458.199 197.447 459.029C196.725 459.578 196.024 460.159 195.323 460.773C194.805 461.204 194.298 461.669 193.791 462.151L195.344 466.053L195.484 466.401C196.24 465.687 197.006 465.006 197.794 464.376C199.152 463.247 200.555 462.234 201.978 461.354L200.76 456.739ZM215.97 451.608C213.37 451.807 210.759 452.339 208.235 453.186L208.925 458.049C211.277 457.253 213.704 456.772 216.132 456.589L215.97 451.608ZM344.428 451.525V456.506H351.979V451.525H344.428ZM329.325 451.525V456.506H336.876V451.525H329.325ZM314.222 451.525V456.506H321.774V451.525H314.222ZM299.119 451.525V456.506H306.671V451.525H299.119ZM284.018 451.525V456.506H291.568V451.525H284.018ZM268.915 451.525V456.506H276.467V451.525H268.915ZM253.813 451.525V456.506H261.364V451.525H253.813ZM238.71 451.525V456.506H246.261V451.525H238.71ZM223.607 451.525V456.506H231.159V451.525H223.607ZM366.531 448.869C364.158 449.798 361.742 450.479 359.314 450.928L359.692 455.875C362.259 455.411 364.827 454.68 367.319 453.7L366.531 448.869ZM380.102 440.517C377.976 442.36 375.755 443.988 373.5 445.382L374.697 450.015C377.092 448.537 379.444 446.81 381.688 444.868L380.102 440.517ZM391.817 427.037C390.081 429.643 388.203 432.117 386.251 434.358L388.192 438.359C390.253 435.968 392.237 433.362 394.083 430.59L391.817 427.037ZM400.889 409.338C399.637 412.558 398.246 415.696 396.736 418.636L399.271 421.724C400.867 418.602 402.345 415.298 403.672 411.894L400.889 409.338ZM406.671 388.651C406.013 392.27 405.193 395.84 404.223 399.294L407.2 401.252C408.214 397.616 409.087 393.831 409.789 389.996L406.671 388.651ZM408.764 366.354C408.731 370.122 408.538 373.908 408.193 377.61L411.396 378.324C411.763 374.406 411.968 370.405 412 366.421L408.764 366.354ZM410.209 342.762L407.071 343.989C407.664 347.609 408.106 351.345 408.397 355.081L411.612 354.516C411.31 350.547 410.835 346.613 410.209 342.762ZM404.481 320.646L401.655 323.07C402.853 326.358 403.91 329.778 404.805 333.264L407.814 331.422C406.865 327.736 405.743 324.117 404.481 320.646ZM395.226 301.553L392.906 305.024C394.611 307.713 396.207 310.602 397.664 313.624L400.263 310.636C398.72 307.464 397.028 304.41 395.226 301.553ZM383.09 286.777L381.429 291.045C383.521 292.97 385.55 295.129 387.47 297.453L389.476 293.551C387.448 291.094 385.302 288.803 383.09 286.777ZM368.872 277.314L367.987 282.112C370.339 283.141 372.669 284.404 374.902 285.898L376.185 281.332C373.824 279.755 371.364 278.409 368.872 277.314ZM353.565 273.894L353.51 278.874C355.959 278.925 358.418 279.223 360.825 279.755L361.289 274.823C358.742 274.258 356.142 273.944 353.565 273.894ZM338.43 273.877V278.858H345.981V273.877H338.43ZM323.327 273.877V278.858H330.879V273.877H323.327ZM308.224 273.877V278.858H315.776V273.877H308.224ZM293.122 273.877V278.858H300.673V273.877H293.122ZM278.019 273.877V278.858H285.57V273.877H278.019ZM262.918 273.877V278.858H270.468V273.877H262.918ZM247.815 273.877V278.858H255.366V273.877H247.815ZM232.712 273.877V278.858H240.264V273.877H232.712ZM217.61 273.877V278.858H225.161V273.877H217.61ZM202.507 273.877V278.858H210.058V273.877H202.507ZM187.404 273.877V278.858H194.956V273.877H187.404ZM172.303 273.877V278.858H179.853V273.877H172.303ZM157.2 273.877V278.858H164.751V273.877H157.2ZM142.097 273.877V278.858H149.649V273.877H142.097ZM126.995 273.877V278.858H134.546V273.877H126.995ZM111.892 273.877V278.858H119.443V273.877H111.892ZM101.115 273.877C100.199 273.877 99.2708 273.827 98.3539 273.76C98.1381 273.744 97.9224 273.728 97.7066 273.695C97.4478 273.677 97.1888 273.645 96.9299 273.612L96.7034 278.044L96.671 278.575C96.8544 278.593 97.0377 278.625 97.232 278.625C98.5912 278.775 99.9612 278.858 101.331 278.858H104.341V273.877H101.115ZM86.5092 270.822C86.2611 270.723 86.013 270.623 85.7648 270.506C85.3873 270.34 85.0205 270.174 84.6538 269.992C84.4488 269.909 84.2439 269.81 84.0497 269.71C83.5642 269.461 83.0895 269.212 82.615 268.963L81.5362 273.645C82.0109 273.91 82.4854 274.159 82.9709 274.392C83.1651 274.491 83.37 274.59 83.5642 274.691C84.7184 275.255 85.8943 275.753 87.081 276.202C87.3291 276.301 87.5771 276.4 87.8252 276.467C88.2136 276.617 88.6127 276.749 89.0012 276.882L89.6699 272.001C88.6127 271.669 87.5556 271.27 86.5092 270.822ZM71.493 260.644C71.4067 260.579 71.3205 260.496 71.2341 260.413C70.6732 259.864 70.123 259.3 69.5836 258.719L67.7498 262.836C68.548 263.683 69.3571 264.497 70.1877 265.26C70.2525 265.343 70.3171 265.41 70.3927 265.459C71.698 266.704 73.0464 267.866 74.4057 268.929L75.8727 264.497C74.3841 263.335 72.917 262.055 71.493 260.644ZM63.7691 251.662C61.9785 249.172 60.274 246.483 58.6991 243.66L56.2395 246.898C57.9224 249.919 59.7347 252.792 61.6548 255.448L63.6505 252.028V252.011L63.8123 251.745L63.7584 251.662H63.7691ZM50.7055 224.783L47.7929 226.941C48.9041 230.51 50.1769 234.015 51.59 237.352L54.2977 234.628C52.9709 231.474 51.7626 228.17 50.7055 224.783ZM46.1748 203.365L42.9924 204.278C43.4671 208.18 44.1036 212.082 44.9018 215.851L47.9763 214.307C47.2212 210.737 46.6171 207.068 46.1748 203.365ZM45.398 180.886L42.1726 180.504C42.054 182.828 42 185.185 42 187.544C42 189.17 42.0216 190.814 42.0863 192.425L45.3118 192.158C45.2578 190.631 45.2362 189.087 45.2362 187.544C45.2362 185.319 45.2902 183.077 45.398 180.886ZM45.3549 157.194C44.5027 160.929 43.7907 164.798 43.2622 168.683L46.4336 169.712C46.9299 166.043 47.5987 162.374 48.4078 158.837L45.3549 157.194ZM52.3668 135.958C50.9105 139.23 49.5728 142.683 48.4078 146.219L51.288 148.477C52.3991 145.124 53.6505 141.87 55.0313 138.765L52.3668 135.958ZM62.7012 118.228C60.7379 120.817 58.8824 123.624 57.1564 126.578L59.5621 129.898C61.191 127.11 62.9601 124.454 64.8047 122.012L62.7012 118.228ZM75.6569 105.195C73.3377 106.904 71.0615 108.88 68.904 111.055L70.6732 115.223C72.712 113.164 74.8695 111.304 77.0594 109.677L75.6569 105.195ZM90.3711 97.7725C87.836 98.5032 85.3117 99.4994 82.863 100.745L83.8662 105.476C86.1856 104.298 88.5696 103.368 90.9752 102.67L90.3711 97.7725ZM101.331 96.2292C100.242 96.2292 99.1521 96.2782 98.0733 96.3612L98.246 101.342C99.26 101.259 100.296 101.21 101.331 101.21H105.711V96.2292H101.331ZM339.8 96.2292V101.21H347.351V96.2292H339.8ZM324.697 96.2292V101.21H332.249V96.2292H324.697ZM309.595 96.2292V101.21H317.146V96.2292H309.595ZM294.492 96.2292V101.21H302.043V96.2292H294.492ZM279.389 96.2292V101.21H286.941V96.2292H279.389ZM264.288 96.2292V101.21H271.838V96.2292H264.288ZM249.185 96.2292V101.21H256.736V96.2292H249.185ZM234.082 96.2292V101.21H241.634V96.2292H234.082ZM218.98 96.2292V101.21H226.531V96.2292H218.98ZM203.877 96.2292V101.21H211.428V96.2292H203.877ZM188.774 96.2292V101.21H196.326V96.2292H188.774ZM173.673 96.2292V101.21H181.223V96.2292H173.673ZM158.57 96.2292V101.21H166.121V96.2292H158.57ZM143.467 96.2292V101.21H151.019V96.2292H143.467ZM128.365 96.2292V101.21H135.916V96.2292H128.365ZM113.262 96.2292V101.21H120.813V96.2292H113.262ZM362.13 95.0003C359.735 95.6317 357.286 96.0292 354.837 96.1625L354.967 101.143C357.545 100.994 360.145 100.579 362.68 99.9144L362.13 95.0003ZM376.11 88.3593C373.898 89.9201 371.59 91.2811 369.271 92.3942L370.22 97.1423C372.68 95.9801 375.118 94.5349 377.47 92.8747L376.11 88.3593ZM388.483 76.355C386.607 78.7461 384.61 80.9874 382.55 82.9797L384.277 87.1971C386.456 85.0714 388.57 82.7144 390.555 80.1913L388.483 76.355ZM398.44 59.8354C397.028 62.8906 395.474 65.8463 393.812 68.5858L396.186 71.9729C397.945 69.0675 399.584 65.9457 401.083 62.7245L398.44 59.8354ZM405.29 39.9299C404.439 43.4328 403.424 46.903 402.292 50.2235L405.15 52.5479C406.358 49.0437 407.426 45.3748 408.322 41.6556L405.29 39.9299ZM408.527 17.9641C408.301 21.6997 407.912 25.4516 407.384 29.1042L410.533 30.1997C411.105 26.3484 411.515 22.3801 411.752 18.4119L408.527 17.9641ZM411.181 -5.37894L407.987 -4.54881C408.397 -0.863525 408.646 2.90602 408.731 6.67432L411.968 6.49194C411.871 2.50731 411.612 -1.47733 411.181 -5.37894ZM406.628 -28.1585L403.683 -26.0832C404.697 -22.6796 405.582 -19.1264 406.304 -15.5405L409.39 -17.0008C408.634 -20.8031 407.707 -24.555 406.628 -28.1585ZM398.398 -48.3131L395.906 -45.1259C397.458 -42.2368 398.904 -39.1653 400.198 -35.9944L402.938 -38.6509C401.568 -42.0041 400.037 -45.2592 398.398 -48.3131ZM387.06 -64.5346L385.182 -60.4833C387.168 -58.3086 389.077 -55.9012 390.867 -53.3442L393.068 -56.9968C391.18 -59.6859 389.163 -62.2266 387.06 -64.5346ZM373.381 -75.7074L372.248 -71.0423C374.535 -69.7305 376.79 -68.1708 378.948 -66.4099L380.458 -70.8096C378.181 -72.6699 375.797 -74.3138 373.381 -75.7074ZM358.289 -81.0203L357.988 -76.0571C360.415 -75.7074 362.852 -75.11 365.225 -74.2798L365.949 -79.1286C363.434 -80.0078 360.857 -80.6392 358.289 -81.0203ZM343.046 -81.419V-76.4382H350.598V-81.419H343.046ZM327.944 -81.419V-76.4382H335.495V-81.419H327.944ZM312.842 -81.419V-76.4382H320.392V-81.419H312.842ZM297.739 -81.419V-76.4382H305.291V-81.419H297.739ZM282.637 -81.419V-76.4382H290.188V-81.419H282.637ZM267.534 -81.419V-76.4382H275.085V-81.419H267.534ZM252.431 -81.419V-76.4382H259.983V-81.419H252.431ZM237.329 -81.419V-76.4382H244.88V-81.419H237.329ZM222.227 -81.419V-76.4382H229.777V-81.419H222.227ZM207.124 -81.419V-76.4382H214.676V-81.419H207.124ZM192.022 -81.419V-76.4382H199.573V-81.419H192.022ZM176.919 -81.419V-76.4382H184.47V-81.419H176.919ZM161.816 -81.419V-76.4382H169.368V-81.419H161.816ZM146.714 -81.419V-76.4382H154.265V-81.419H146.714ZM131.612 -81.419V-76.4382H139.162V-81.419H131.612ZM116.509 -81.419V-76.4382H124.061V-81.419H116.509ZM101.407 -81.419V-76.4382H108.958V-81.419H101.407ZM88.8285 -81.419C88.0086 -81.419 87.1996 -81.4529 86.3905 -81.5184L86.2179 -76.5552C87.081 -76.4722 87.9548 -76.4382 88.8285 -76.4382H93.8555V-81.419H88.8285ZM72.2589 -86.4337L71.0292 -81.834C73.4347 -80.3071 75.9375 -79.0783 78.4833 -78.1978L79.1953 -83.0629C76.8328 -83.8767 74.5027 -85.0225 72.2589 -86.4337ZM59.972 -98.2216L57.8252 -94.5023C59.7778 -91.8459 61.8813 -89.4222 64.082 -87.3129L65.7972 -91.5302C63.7476 -93.5062 61.7843 -95.7476 59.972 -98.2216ZM50.8457 -115.554L48.0302 -113.114C49.3032 -109.627 50.781 -106.29 52.4207 -103.168L54.9342 -106.307C53.4132 -109.212 52.0323 -112.317 50.8457 -115.554ZM45.9267 -136.54L42.7443 -135.66C43.1974 -131.709 43.8878 -127.807 44.7616 -124.038L47.8145 -125.732C46.9838 -129.235 46.3582 -132.871 45.9267 -136.54ZM42 -159.269V-147.614L45.2362 -147.68V-159.269H42ZM42 -182.513V-170.891H45.2362V-182.513H42ZM42 -205.756V-194.134H45.2362V-205.756H42ZM42 -229V-217.378H45.2362V-229H42Z" fill="white"/>
</g>
<defs>
<filter id="filter0_d_386_9670" x="10.9" y="-252.1" width="432.2" height="875.2" filterUnits="userSpaceOnUse" color-interpolation-filters="sRGB">
<feFlood flood-opacity="0" result="BackgroundImageFix"/>
<feColorMatrix in="SourceAlpha" type="matrix" values="0 0 0 0 0 0 0 0 0 0 0 0 0 0 0 0 0 0 127 0" result="hardAlpha"/>
<feOffset/>
<feGaussianBlur stdDeviation="11.55"/>
<feComposite in2="hardAlpha" operator="out"/>
<feColorMatrix type="matrix" values="0 0 0 0 0.578051 0 0 0 0 0.511963 0 0 0 0 1 0 0 0 1 0"/>
<feBlend mode="normal" in2="BackgroundImageFix" result="effect1_dropShadow_386_9670"/>
<feBlend mode="normal" in="SourceGraphic" in2="effect1_dropShadow_386_9670" result="shape"/>
</filter>
<linearGradient id="paint0_linear_386_9670" x1="227" y1="-229" x2="227" y2="600" gradientUnits="userSpaceOnUse">
<stop stop-color="#8073D3"/>
<stop offset="0.283456" stop-color="#07336C"/>
<stop offset="0.38" stop-color="#251E52"/>
<stop offset="0.545" stop-color="#169FA1"/>
<stop offset="0.73" stop-color="#169FA1"/>
<stop offset="0.78" stop-color="#00122A"/>
</linearGradient>
<clipPath id="clip0_386_9670">
<rect width="453" height="177" fill="white"/>
</clipPath>
</defs>
</svg>
