<svg width="37" height="54" viewBox="0 0 37 54" fill="none" xmlns="http://www.w3.org/2000/svg">
<path fill-rule="evenodd" clip-rule="evenodd" d="M28.1269 12.0688L33.1711 13.7871C33.6812 13.9395 34.1549 13.4914 33.9519 13.0526L33.7197 12.5503L33.7196 12.5501C32.9282 10.8378 32.1373 9.12648 31.3075 7.4267C29.8551 4.44283 27.2784 2.34119 23.7855 1.0802C19.6835 -0.402493 15.467 -0.365541 11.1933 1.23263C7.36204 2.66452 4.56146 4.98787 2.78637 8.17036C0.823888 11.69 0.740599 15.2143 2.31267 18.6924C3.08951 20.4157 3.88907 22.1289 4.68828 23.8413L4.68833 23.8414L4.68874 23.8423C4.97117 24.4474 5.25357 25.0525 5.53489 25.6579C5.75873 26.1429 6.52915 26.1013 6.71134 25.6024V25.5932C7.19546 24.3276 7.68998 23.062 8.55931 21.9303C9.09548 21.2375 9.08507 20.6232 8.75191 19.9072C8.56458 19.5039 8.36551 19.1042 8.16633 18.7043L8.1663 18.7042C7.65148 17.6705 7.13594 16.6354 6.82066 15.533C6.53436 14.503 6.48751 13.4545 6.68532 12.3921C7.38806 8.65536 10.3448 6.07796 13.7596 5.07102C18.96 3.53751 23.9573 5.26039 26.2581 9.07106C26.3948 9.25806 26.5395 9.44528 26.6852 9.63379L26.6852 9.63382C27.2052 10.3067 27.7378 10.996 27.9655 11.7501C27.9859 11.8146 28.0192 11.8747 28.0519 11.9338C28.0778 11.9805 28.1033 12.0265 28.1217 12.0734L28.1269 12.0688Z" fill="#828282"/>
<path d="M5.34619 48.472C6.05499 47.7962 6.75829 47.1204 7.46708 46.45C7.93412 45.9445 8.26379 46.3786 8.56599 46.6423C10.9781 48.7467 13.8023 49.8896 16.9617 50.2522C20.0001 50.483 22.8848 49.8731 25.4782 48.3182C33.3354 43.6148 35.0881 33.6807 29.4013 26.4883C29.0936 26.0982 28.6595 25.7521 28.7859 25.1532C29.5332 24.373 30.2804 23.5927 31.0332 22.8125C31.72 23.3565 32.209 24.0762 32.764 24.7356C33.0607 25.0982 33.3464 25.4719 33.6321 25.84C33.764 26.0982 33.8793 26.3675 34.0277 26.6202C35.1156 28.5103 35.8684 30.5378 36.2035 32.6807C37.0442 38.0599 35.7914 42.9225 32.3903 47.1918C29.6101 50.6808 25.9782 52.8457 21.61 53.6534C16.3847 54.6204 11.5825 53.4885 7.28576 50.3402C6.69785 49.9116 6.16488 49.4006 5.60444 48.9281C5.45608 48.8072 5.35169 48.6643 5.35169 48.4665L5.34619 48.472Z" fill="#5AA9FF"/>
<path d="M16.9231 50.4557C15.2582 50.4447 13.7088 49.9392 12.2088 49.2853C10.7033 48.6315 9.31863 47.7689 8.14829 46.604C7.9395 46.3952 7.7307 46.3458 7.47246 46.4502C7.51092 46.1425 7.434 45.8787 7.20323 45.6535C5.86256 44.3512 5.07135 42.6919 4.34607 41.0161C3.87354 39.9227 3.56584 38.7413 3.52738 37.5215C3.52188 37.3072 3.5054 37.0765 3.43397 36.8732C3.3076 36.516 3.29661 36.1534 3.31859 35.7908C3.43947 33.7083 3.74716 31.6698 4.64277 29.7523C5.2142 28.5215 5.84058 27.3182 6.73619 26.2962C7.77466 25.1204 8.89005 24.0269 10.2637 23.2028C11.6538 22.3676 13.0824 21.6753 14.6758 21.3401C15.533 21.1588 16.3736 20.928 17.2637 20.983C17.5549 20.9994 17.8407 20.9335 18.1264 20.8566C18.544 20.7467 18.9835 20.6368 19.3681 20.9775C18.6648 21.2137 18.5165 21.95 18.0714 22.417C17.4176 22.6753 16.7088 22.6258 16.0385 22.7962C15.467 22.9445 14.9066 23.1094 14.4285 23.45C13.6978 23.972 13.6978 24.505 14.445 24.9885C15.2308 25.494 16.1154 25.6973 17.0385 25.7522C17.544 25.7797 18.0769 25.7632 18.4011 26.2742C18.5714 26.6808 18.5769 27.0929 18.4011 27.4995C18.3407 27.6039 18.2527 27.6863 18.1429 27.7412C17.8242 27.8786 17.456 27.8731 17.1483 28.0434C16.1483 28.4226 15.1923 28.8566 14.5329 29.7687C13.2472 31.56 13.2143 33.5215 14.5824 35.3732C15.0714 36.038 15.1813 36.6424 14.9725 37.4116C14.522 39.071 14.1154 40.7468 13.7198 42.4172C13.489 43.3897 13.5934 43.5161 14.5769 43.5436C15.4176 43.5655 16.2637 43.5436 17.1044 43.5545C17.5385 43.56 17.9945 43.5106 18.3571 43.8403C18.6154 44.3293 18.5659 44.7853 18.1923 45.1974C17.4011 45.626 16.478 45.4117 15.6593 45.7249C14.9505 45.9941 13.967 46.1699 13.978 47.0216C13.989 47.9392 14.989 48.104 15.7527 48.3458C16.5769 48.6095 17.5 48.4227 18.2637 48.9392C18.5879 49.3897 18.7033 49.9172 18.3407 50.3293C17.978 50.7469 17.4231 50.5601 16.9396 50.4447L16.9231 50.4557Z" fill="#B9DDF6"/>
<path d="M16.9231 50.4555C17.066 50.4555 17.2088 50.4391 17.3572 50.4391C18.2418 50.4665 18.3077 50.3347 18.2253 49.4061C18.2088 49.2358 18.0934 49.0764 18.0275 48.9061C18.0989 48.8127 18.1868 48.7467 18.2912 48.7083C19.4121 48.5819 20.544 48.4885 21.588 47.994C22.0165 47.7907 22.5001 47.5764 22.4836 47.005C22.4671 46.461 22.0385 46.1973 21.599 45.9885C20.5495 45.4995 19.4066 45.483 18.2857 45.3566C18.1759 45.3126 18.0934 45.2467 18.0275 45.1533C18.3132 44.7577 18.2528 44.3071 18.2473 43.8621C19.1099 43.2522 20.088 43.5874 21.011 43.5599C22.9836 43.5049 22.9836 43.5434 22.511 41.6588C22.1594 40.2412 21.8077 38.8181 21.4451 37.406C21.2693 36.7192 21.3902 36.1478 21.7803 35.5489C23.8737 32.362 22.7473 29.2466 19.0934 28.0433C18.7803 27.9389 18.4506 27.873 18.2473 27.5763C18.2473 27.1422 18.2473 26.7026 18.2473 26.2686C18.5879 25.884 19.0989 26.0323 19.5 25.851C20.2308 25.6202 21.0055 25.5213 21.7033 25.1752C22.1044 24.9719 22.4781 24.7081 22.4946 24.2026C22.511 23.6806 22.1044 23.4444 21.7033 23.2521C20.6264 22.7246 19.4451 22.6806 18.2857 22.4993C18.1813 22.4554 18.0989 22.3894 18.0275 22.3015C18.1374 22.0762 18.2253 21.8455 18.2583 21.5872C18.3352 21.0323 18.3517 21.0323 18.9286 20.9883C19.0715 20.9773 19.2143 20.9773 19.3627 20.9718C20.8792 20.9553 22.2748 21.4554 23.6759 21.9444C24.8462 22.351 25.9012 22.9828 26.9177 23.6806C27.4836 24.0708 27.9122 24.6312 28.5166 24.9828C28.61 25.0378 28.7034 25.0927 28.7968 25.1477C29.1814 25.9059 29.8188 26.4719 30.3023 27.1587C31.5276 28.884 32.3023 30.7851 32.7639 32.84C33.1045 34.3565 33.0661 35.9005 32.9452 37.417C32.8463 38.7192 32.4672 39.9884 31.9836 41.2192C31.1869 43.2577 29.9946 45.0379 28.4012 46.5214C27.121 47.7193 25.6759 48.7028 24.022 49.3621C23.033 49.7577 22.0275 50.0489 20.9946 50.2907C20.6319 50.3786 20.2803 50.4281 19.9176 50.4336C19.555 50.4391 19.1978 50.4885 18.8352 50.5489C18.2033 50.6588 17.544 50.8127 16.9231 50.4446V50.4555Z" fill="#9ACCEE"/>
<path d="M18.2471 27.5764C19.0548 27.6643 19.8186 27.8786 20.5384 28.2742C21.6428 28.8786 22.4669 29.7358 22.8516 30.9446C23.3296 32.4391 23.2307 33.8951 22.3626 35.2523C22.2032 35.4995 22.0439 35.7468 21.8461 35.9611C21.5603 36.2633 21.5329 36.582 21.6318 36.9721C22.0878 38.7358 22.5384 40.5051 22.9615 42.2798C23.3516 43.9172 23.6977 43.8622 21.7636 43.8567C20.5933 43.8567 19.423 43.8677 18.2471 43.8787C16.9669 43.8677 15.6867 43.8622 14.4065 43.8512C14.1152 43.8512 13.8185 43.8458 13.5273 43.8183C13.313 43.8018 13.2032 43.6425 13.2196 43.4392C13.2361 43.1864 13.2856 42.9337 13.346 42.6864C13.8295 40.7029 14.3021 38.7139 14.8076 36.7358C14.89 36.4061 14.868 36.1754 14.6207 35.9501C14.0383 35.4116 13.7141 34.7083 13.4669 33.9776C12.6757 31.6369 14.1537 28.6533 16.5274 27.983C16.7361 27.9226 16.9449 27.8511 17.1537 27.7852C17.423 27.5984 17.7801 27.8182 18.0438 27.5984C18.1153 27.5984 18.1812 27.5984 18.2526 27.5819L18.2471 27.5764Z" fill="#5AA9FD"/>
<path d="M18.0275 22.3072L18.2637 22.3182C18.7088 22.8841 18.5989 23.5545 18.5549 24.1808C18.4945 25.06 18.7198 25.7083 19.5714 26.06C19.4505 26.2083 19.2857 26.2633 19.0989 26.2688C18.8132 26.2688 18.5275 26.2688 18.2417 26.2743C17.9176 26.071 17.5659 26.0435 17.1978 26.0545C16.1154 26.0874 15.1318 25.7578 14.2033 25.2358C14.0109 25.1259 13.8296 25.0215 13.6978 24.8347C13.3461 24.3347 13.3791 24.0545 13.7857 23.5819C14.3131 22.9665 15.0549 22.7523 15.7747 22.56C16.5055 22.3676 17.2582 22.2413 18.0275 22.3072Z" fill="#8BC6F7"/>
<path d="M18.2583 48.9007C18.1813 48.9007 18.1044 48.9062 18.022 48.9117C16.9945 48.9666 16.011 48.7414 15.0385 48.4611C14.4121 48.2853 13.967 47.8732 13.5769 47.3842C13.3956 47.1589 13.3956 46.9117 13.5769 46.6864C13.967 46.1974 14.4231 45.8073 15.0385 45.604C16.011 45.2908 16.9945 45.093 18.022 45.1589C18.0989 45.1589 18.1758 45.1644 18.2528 45.1699C18.7912 46.4117 18.7857 47.6589 18.2583 48.9007Z" fill="#8BC6F7"/>
<path d="M9.75275 29.549C8.52747 29.4171 7.6868 28.516 7.71428 27.2742C7.73626 26.2193 8.9011 25.1369 9.88462 25.2193C11.044 25.3127 12.0989 26.4171 12.0165 27.4555C11.9286 28.6204 10.8846 29.5874 9.75275 29.5545V29.549Z" fill="#5DAAFD"/>
<path d="M9.81303 46.2523C8.6317 46.1644 7.71961 45.3128 7.71411 44.0325C7.71411 42.9831 8.82401 41.8842 9.82951 41.9116C10.9504 41.9391 12.0493 43.0435 12.0218 44.0985C11.9889 45.2413 10.9559 46.2523 9.81303 46.2523Z" fill="#5DAAFD"/>
<path d="M18.0439 27.5928C17.7912 27.873 17.467 27.7851 17.1538 27.7796C17.4011 27.4884 17.7362 27.5983 18.0439 27.5928Z" fill="#9ACCEE"/>
<path d="M18.2582 48.9007C18.2582 47.6589 18.2582 46.4116 18.2527 45.1699C19.3516 45.0985 20.4175 45.2413 21.4615 45.6149C21.9175 45.7743 22.3186 45.9996 22.6318 46.3732C23.011 46.8237 22.9615 47.4446 22.5 47.8237C22.1318 48.1259 21.6978 48.3128 21.2472 48.4666C20.2802 48.7963 19.2912 48.9941 18.2582 48.9062V48.9007Z" fill="#5AA9FF"/>
<path d="M19.5714 26.0544C18.1812 26.016 18.2417 26.2028 18.2472 24.6863C18.2472 23.8951 18.2582 23.1039 18.2637 22.3126C19.2911 22.2412 20.2747 22.4555 21.2472 22.7522C21.6977 22.8896 22.1318 23.0929 22.4999 23.3896C22.9615 23.7632 23.0109 24.3841 22.6373 24.8346C22.3516 25.1808 21.9944 25.4226 21.5714 25.5599C20.9175 25.7687 20.2637 25.972 19.5768 26.0489L19.5714 26.0544Z" fill="#5AA9FF"/>
<path d="M26.5001 46.2579C25.3187 46.1535 24.4231 45.3238 24.4121 44.0216C24.4066 42.9831 25.4726 41.9447 26.544 41.8952C27.5385 41.8458 28.7693 43.093 28.7253 44.1095C28.6814 45.2524 27.6319 46.2634 26.5001 46.2634V46.2579Z" fill="#5CAAFD"/>
<path d="M26.5275 29.5545C25.3791 29.4556 24.5494 28.7358 24.4066 27.4556C24.3022 26.527 25.2802 25.2578 26.5165 25.2138C27.6044 25.1754 28.7473 26.3457 28.7308 27.3787C28.7143 28.4995 27.6648 29.5325 26.5275 29.5545Z" fill="#5CAAFD"/>
<path d="M18.2364 43.1095C17.1045 43.1095 15.9672 43.1095 14.8353 43.1095C14.132 43.1095 13.9726 43.093 14.1704 42.3182C14.6265 40.549 15.0441 38.7743 15.4726 36.9995C15.5221 36.7852 15.577 36.5764 15.6265 36.3622C15.6814 36.1314 15.621 35.9336 15.4397 35.7687C15.2803 35.6204 15.121 35.4665 14.9836 35.2962C13.5605 33.5874 13.7034 31.0544 15.3078 29.5324C16.9397 27.9885 19.5661 28.0159 21.1595 29.5929C22.7474 31.1643 22.8408 33.6643 21.3683 35.3567C20.676 35.7797 20.7364 36.3786 20.9177 37.06C21.3903 38.8622 21.8024 40.6754 22.2639 42.4831C22.3848 42.9611 22.3243 43.1149 21.7419 43.1095C20.5716 43.0985 19.4012 43.1095 18.2309 43.1095H18.2364Z" fill="black"/>
<path d="M10.8242 26.2961C11.7967 27.0654 11.3077 28.483 10.3187 28.8071C9.69231 29.0104 9.18132 28.8786 8.8022 28.3236C8.79121 28.1643 8.87912 28.0654 9.00549 27.983C9.09341 27.9445 9.18681 27.9335 9.28022 27.939C9.46154 27.9665 9.64286 27.994 9.82418 27.961C10.4451 27.8126 10.4066 27.3291 10.3846 26.8566C10.4176 26.5764 10.5055 26.3401 10.8297 26.2961H10.8242Z" fill="#81878E"/>
<path d="M9.23053 28.0378C9.08767 28.1312 8.93932 28.2301 8.79646 28.3235C8.43931 28.0653 8.34591 27.7027 8.36239 27.2796C8.37338 26.9334 8.51624 26.6587 8.74701 26.4169C9.39536 25.7411 9.9613 25.7027 10.8239 26.2961C10.7031 26.4884 10.5712 26.6807 10.5657 26.9224C9.58218 26.6477 9.30745 27.2246 9.23053 28.0378Z" fill="#C5C9CF"/>
<path d="M10.8241 42.9995C11.7966 43.7687 11.3131 45.1863 10.3131 45.5105C9.68675 45.7138 9.17575 45.5819 8.79663 45.027C8.80762 44.7797 8.97246 44.6644 9.18674 44.5984C9.96697 44.6973 10.5219 44.538 10.3736 43.5655C10.4065 43.2852 10.4944 43.0435 10.8241 42.9995Z" fill="#82888F"/>
<path d="M9.2361 44.7358C9.08775 44.8292 8.94489 44.9281 8.79654 45.0215C8.4339 44.7633 8.34599 44.4007 8.36247 43.9776C8.37346 43.6314 8.51632 43.3567 8.74709 43.1149C9.38995 42.4391 9.96138 42.4006 10.824 42.9941C10.7031 43.1864 10.5713 43.3787 10.5658 43.6204C9.65918 43.4336 9.26907 43.8732 9.2361 44.7358Z" fill="#C5CACF"/>
<path d="M27.5221 42.9995C27.9617 43.2468 28.0551 43.6973 28.0496 44.1204C28.0441 44.505 27.9067 44.9061 27.5716 45.1808C27.2529 45.4391 26.9067 45.6039 26.4836 45.6039C26.0386 45.6039 25.7364 45.3732 25.4946 45.027C25.5111 44.7797 25.6705 44.6644 25.8847 44.5984C26.6595 44.6973 27.2199 44.5435 27.0716 43.5709C27.1045 43.2907 27.1869 43.049 27.5166 42.9995H27.5221Z" fill="#81888E"/>
<path d="M25.9395 44.7358C25.7911 44.8292 25.6483 44.9281 25.4999 45.0215C25.1373 44.7633 25.0494 44.4007 25.0658 43.9776C25.0768 43.6314 25.2197 43.3567 25.4505 43.1149C26.0988 42.4391 26.6648 42.4006 27.5274 42.9941C27.4065 43.1864 27.2746 43.3787 27.2692 43.6204C26.3571 43.4281 25.9779 43.8787 25.9395 44.7303V44.7358Z" fill="#C5CACF"/>
<path d="M27.522 26.296C27.9616 26.5433 28.055 26.9938 28.0495 27.4169C28.0495 27.7631 27.9341 28.1312 27.6484 28.4004C27.3187 28.7081 26.9451 28.8949 26.478 28.8949C26.033 28.8949 25.7308 28.6587 25.489 28.318C25.5055 28.0708 25.6703 27.9554 25.8846 27.8894C26.6593 27.9883 27.2198 27.8345 27.0714 26.862C27.1044 26.5817 27.1868 26.34 27.5165 26.2905L27.522 26.296Z" fill="#828991"/>
<path d="M27.5219 26.2962C27.401 26.4885 27.2691 26.6808 27.2636 26.9226C26.3515 26.7303 25.9724 27.1808 25.9339 28.0325C25.7856 28.1259 25.6372 28.2248 25.4889 28.3182C25.1263 28.06 25.0438 27.6918 25.0603 27.2742C25.0713 26.9281 25.2142 26.6533 25.4449 26.4116C26.0878 25.7358 26.6592 25.7028 27.5219 26.2907V26.2962Z" fill="#C5CACF"/>
<path d="M9.23084 28.0379C9.1649 27.8346 9.06051 27.6423 9.03303 27.4335C8.98358 27.0269 9.21435 26.7522 9.55501 26.5818C9.87919 26.417 10.1759 26.4774 10.4012 26.7851C10.4396 26.8401 10.5111 26.8785 10.566 26.9225C10.7363 27.2192 10.7583 27.5049 10.577 27.8126C10.3682 28.1533 10.0715 28.2742 9.69238 28.2247C9.56051 28.1203 9.3682 28.1478 9.23633 28.0434L9.23084 28.0379Z" fill="#F8F8F8"/>
<path d="M9.23071 28.0379C9.41753 28.0049 9.57137 28.0708 9.68676 28.2192C9.49445 28.2521 9.3461 28.1862 9.23071 28.0379Z" fill="#C5C9CF"/>
<path d="M9.23629 44.7358C9.04398 44.3457 8.88464 43.9556 9.21432 43.5545C9.51102 43.1864 9.79124 43.1369 10.2198 43.3842C10.3407 43.4556 10.4506 43.5435 10.566 43.6259C10.8077 44.0215 10.7363 44.3897 10.4231 44.7029C10.0495 45.0765 9.63739 44.9446 9.23629 44.7413V44.7358Z" fill="#F8F8F8"/>
<path d="M25.9397 44.7357C25.7474 44.3456 25.588 43.9555 25.9177 43.5544C26.2144 43.1863 26.5001 43.1313 26.9232 43.3841C27.0441 43.4555 27.154 43.5434 27.2693 43.6259C27.5166 44.0215 27.4397 44.3896 27.1265 44.6973C26.7529 45.0709 26.3408 44.9445 25.9397 44.7357Z" fill="#F8F8F8"/>
<path d="M25.9397 28.0324C25.7474 27.6423 25.588 27.2522 25.9177 26.8511C26.2144 26.4829 26.5001 26.428 26.9232 26.6807C27.0441 26.7522 27.154 26.8401 27.2693 26.9225C27.5111 27.3181 27.4397 27.6862 27.132 27.9994C26.7583 28.3785 26.3463 28.2357 25.9452 28.0379L25.9397 28.0324Z" fill="#F8F8F8"/>
<path fill-rule="evenodd" clip-rule="evenodd" d="M27.742 19.7714C27.6788 19.7509 27.6093 19.7208 27.5329 19.6807C27.3022 19.5598 27.0824 19.4389 26.8571 19.3125C24.3846 17.9444 21.7032 17.2851 18.8955 17.1752C15.4175 17.0378 12.1647 17.8785 9.11522 19.5433C8.79275 19.7178 8.58925 19.8159 8.46047 19.8077L7.6903 20.3212C7.65726 20.6914 7.51081 20.9672 7.17016 21.2192C5.59872 22.373 4.28552 23.7851 3.17562 25.384C3.04925 25.5653 2.90639 25.7247 2.67562 25.7741L2.68112 25.7851C2.64401 26.1005 2.50118 26.3729 2.35841 26.6451C2.33205 26.6953 2.3057 26.7456 2.28001 26.7961C1.86792 27.6093 1.45583 28.4225 1.13715 29.2796C0.466816 31.0654 0.0492304 32.9005 0.0107687 34.8126C0.0107687 34.9486 0.0126112 35.0839 0.0144483 35.2188C0.0181057 35.4874 0.0217411 35.7544 0.0107687 36.0214C-0.0716495 37.8676 0.329452 39.6369 0.856928 41.3841C1.54375 43.6534 2.76353 45.6314 4.21959 47.4776L4.23272 47.4942L4.23274 47.4942C4.53655 47.8795 4.85866 48.288 5.35696 48.4776C6.45037 48.1039 7.07675 47.2358 7.66467 46.3292C7.728 45.8813 7.47844 45.5862 7.22575 45.2873L7.22573 45.2873C7.17153 45.2232 7.11719 45.1589 7.06576 45.0929C4.56574 41.8731 3.28002 38.2907 3.79651 34.1588C4.48882 28.6478 7.41192 24.7466 12.3955 22.4115C14.5713 21.3895 16.934 21.0983 19.3406 21.1862C22.4615 21.6093 25.3461 22.5763 27.7252 24.7521C27.989 24.9994 28.3022 25.2027 28.6758 25.2576C29.6978 24.6697 30.5494 23.9225 31.0384 22.8181C30.5549 22.2137 29.9505 21.7466 29.3406 21.2961C29.1303 21.1397 28.9822 20.978 28.8872 20.7922L27.7418 19.7741L27.742 19.7714Z" fill="#D9EFFF"/>
<path d="M9.57057 5.23325C9.59998 5.49163 9.56209 5.72709 9.35559 5.92134C9.19426 6.07193 9.02643 6.21806 8.85694 6.3537C6.77303 8.03107 5.43261 10.1262 4.78369 12.6034C4.74782 12.7422 4.73545 12.8831 4.68742 13.0182C4.49697 13.569 4.01469 13.8492 3.46439 13.737C2.95625 13.6352 2.6165 13.1354 2.72198 12.5962C2.86633 11.8642 3.07716 11.1499 3.36662 10.457C4.22852 8.37374 5.52237 6.5688 7.33662 5.08896C7.56744 4.90209 7.79827 4.71522 8.05191 4.56272C8.724 4.16555 9.4785 4.50683 9.57057 5.23325Z" fill="#FEFEFE"/>
<path d="M12.4414 2.313C13.0442 2.20912 13.5595 2.46531 13.7435 2.89534C13.9283 3.33061 13.7287 3.82381 13.2381 4.05156C13.0013 4.16428 12.7482 4.2471 12.4934 4.31943C11.962 4.47244 11.3836 4.21953 11.1776 3.76038C10.9905 3.34685 11.2006 2.84686 11.6952 2.60785C11.9635 2.47476 12.2506 2.38729 12.4414 2.313Z" fill="#FAFAFA"/>
</svg>
