<svg width="453" height="177" viewBox="0 0 453 177" fill="none" xmlns="http://www.w3.org/2000/svg">
<g clip-path="url(#clip0_397_9744)">
<g filter="url(#filter0_d_397_9744)">
<path d="M420 -8.61804C420 48.5164 389.767 95.0069 352.611 95.0069H218.278C215.539 95.0069 212.865 95.488 210.299 96.3823C209.867 96.5482 209.436 96.7139 209.016 96.8973C202.169 99.7322 196.141 105.651 191.591 113.625C191.279 114.189 190.977 114.737 190.675 115.317C190.578 115.5 190.481 115.682 190.395 115.864C190.103 116.428 189.823 116.992 189.565 117.556C187.786 121.303 186.309 125.431 185.209 129.809C184.788 131.433 184.432 133.091 184.12 134.783C183.612 137.551 183.235 140.402 183.019 143.338C182.869 145.376 182.794 147.466 182.794 149.571V227H163.386V149.571C163.386 142.078 164.022 134.799 165.229 127.884C165.897 123.955 166.761 120.126 167.795 116.444C168.195 114.986 168.626 113.543 169.089 112.133C171.699 104.043 175.138 96.6813 179.235 90.3143C180.033 89.0544 180.874 87.8273 181.737 86.634H181.748C183.85 83.7325 186.093 81.0961 188.465 78.7247C189.532 77.6646 190.631 76.6357 191.753 75.6912C193.533 74.1651 195.376 72.7897 197.274 71.5952C198.567 70.7662 199.883 70.0038 201.23 69.3406C204.66 67.5997 208.25 66.3725 211.937 65.7269C214.018 65.345 216.132 65.163 218.278 65.163H352.611C379.061 65.163 400.592 32.0695 400.592 -8.61804C400.592 -49.3057 379.061 -82.3991 352.611 -82.3991H101.388C90.4229 -82.3991 80.0505 -86.4448 70.8857 -93.6408C70.2819 -94.1043 69.6889 -94.5854 69.1066 -95.0828C66.314 -97.4379 63.64 -100.091 61.0954 -102.992C44.6635 -121.91 34 -152.085 34 -186.024C34 -243.159 64.2222 -289.649 101.388 -289.649H352.611C379.061 -289.649 400.592 -322.743 400.592 -363.43C400.592 -404.118 379.061 -437.211 352.611 -437.211H88.8918C58.6264 -437.211 34 -475.08 34 -521.62V-602H53.4078V-521.62C53.4078 -491.527 69.3222 -467.055 88.8918 -467.055H352.611C389.767 -467.055 420 -420.565 420 -363.43C420 -306.296 389.767 -259.805 352.611 -259.805H101.388C74.9289 -259.805 53.4078 -226.712 53.4078 -186.024C53.4078 -165.101 59.1008 -146.183 68.2224 -132.753C70.4005 -129.553 72.7833 -126.651 75.3171 -124.114C75.7484 -123.683 76.1905 -123.252 76.6325 -122.838C81.3119 -118.495 86.4981 -115.344 92.0294 -113.669C92.3636 -113.553 92.7087 -113.454 93.0429 -113.371C95.76 -112.625 98.5418 -112.243 101.388 -112.243H352.611C389.767 -112.243 420 -65.7525 420 -8.61804Z" fill="url(#paint0_linear_397_9744)"/>
</g>
<path d="M172.45 213.713V226H175.687V213.713H172.45ZM172.45 189.139V201.426H175.687V189.139H172.45ZM172.45 164.564V176.851H175.687V164.564H172.45ZM173.248 139.604C173.216 139.849 173.195 140.095 173.172 140.341C172.742 144.256 172.504 148.24 172.461 152.242L175.687 152.33C175.729 149.205 175.891 146.08 176.183 143.009C176.257 142.201 176.333 141.377 176.43 140.57L173.248 139.604ZM178.62 115.837C177.553 118.892 176.592 122.086 175.794 125.368C175.622 126.018 175.471 126.667 175.319 127.334L178.361 129.16C178.415 128.914 178.48 128.651 178.545 128.405C179.333 124.982 180.314 121.63 181.436 118.453L178.62 115.837ZM190.551 100.074L188.502 96.2482C187.638 97.4769 186.797 98.7575 185.999 100.091C185.384 101.093 184.78 102.128 184.208 103.199C183.82 103.918 183.432 104.638 183.064 105.376L185.557 108.711L185.751 108.341C186.484 106.902 187.261 105.515 188.059 104.182C188.124 104.077 188.189 103.953 188.254 103.865C188.534 103.392 188.815 102.936 189.105 102.497C189.213 102.304 189.332 102.146 189.44 101.97C189.526 101.846 189.602 101.724 189.689 101.602C189.753 101.496 189.818 101.408 189.882 101.32C189.969 101.18 190.055 101.039 190.153 100.917L190.541 100.337C190.541 100.337 190.594 100.249 190.627 100.215L190.551 100.074ZM201.76 82.9955C200.638 83.7323 199.537 84.5395 198.447 85.4171C197.725 85.9969 197.024 86.6113 196.323 87.2602C195.805 87.7163 195.298 88.2083 194.791 88.7176L196.344 92.8425L196.484 93.211C197.24 92.4557 198.006 91.7362 198.794 91.07C200.152 89.8759 201.555 88.8054 202.978 87.8746L201.76 82.9955ZM216.97 77.5714C214.37 77.7815 211.759 78.3441 209.235 79.239L209.925 84.3812C212.277 83.5394 214.704 83.0302 217.132 82.8373L216.97 77.5714ZM345.428 77.4836V82.7496H352.979V77.4836H345.428ZM330.325 77.4836V82.7496H337.876V77.4836H330.325ZM315.222 77.4836V82.7496H322.774V77.4836H315.222ZM300.119 77.4836V82.7496H307.671V77.4836H300.119ZM285.018 77.4836V82.7496H292.568V77.4836H285.018ZM269.915 77.4836V82.7496H277.467V77.4836H269.915ZM254.813 77.4836V82.7496H262.364V77.4836H254.813ZM239.71 77.4836V82.7496H247.261V77.4836H239.71ZM224.607 77.4836V82.7496H232.159V77.4836H224.607ZM367.531 74.6752C365.158 75.6579 362.742 76.3773 360.314 76.8521L360.692 82.082C363.259 81.5914 365.827 80.8187 368.319 79.7828L367.531 74.6752ZM381.102 65.8454C378.976 67.7935 376.755 69.5143 374.5 70.989L375.697 75.8866C378.092 74.3242 380.444 72.4983 382.688 70.4451L381.102 65.8454ZM392.817 51.5929C391.081 54.3482 389.203 56.9638 387.251 59.3335L389.192 63.5635C391.253 61.0356 393.237 58.2802 395.083 55.3494L392.817 51.5929ZM401.889 32.8815C400.637 36.2858 399.246 39.6035 397.736 42.7112L400.271 45.9759C401.867 42.6754 403.345 39.182 404.672 35.5836L401.889 32.8815ZM407.671 11.0093C407.013 14.8364 406.193 18.6104 405.223 22.262L408.2 24.3324C409.214 20.488 410.087 16.4867 410.789 12.4322L407.671 11.0093ZM409.764 -12.5637C409.731 -8.57965 409.538 -4.57703 409.193 -0.663452L412.396 0.0917969C412.763 -4.05048 412.968 -8.28046 413 -12.4932L409.764 -12.5637ZM411.209 -37.5063L408.071 -36.2084C408.664 -32.3813 409.106 -28.4319 409.397 -24.4825L412.612 -25.0795C412.31 -29.275 411.835 -33.4346 411.209 -37.5063ZM405.481 -60.8879L402.655 -58.3254C403.853 -54.8493 404.91 -51.2336 405.805 -47.5475L408.814 -49.4956C407.865 -53.3918 406.743 -57.219 405.481 -60.8879ZM396.226 -81.0739L393.906 -77.405C395.611 -74.562 397.207 -71.5075 398.664 -68.312L401.263 -71.4716C399.72 -74.8253 398.028 -78.054 396.226 -81.0739ZM384.09 -96.6961L382.429 -92.1842C384.521 -90.1483 386.55 -87.8665 388.47 -85.409L390.476 -89.5339C388.448 -92.1323 386.302 -94.5538 384.09 -96.6961ZM369.872 -106.701L368.987 -101.628C371.339 -100.541 373.669 -99.2054 375.902 -97.6257L377.185 -102.453C374.824 -104.12 372.364 -105.543 369.872 -106.701ZM354.565 -110.317L354.51 -105.051C356.959 -104.998 359.418 -104.683 361.825 -104.12L362.289 -109.334C359.742 -109.931 357.142 -110.264 354.565 -110.317ZM339.43 -110.334V-105.068H346.981V-110.334H339.43ZM324.327 -110.334V-105.068H331.879V-110.334H324.327ZM309.224 -110.334V-105.068H316.776V-110.334H309.224ZM294.122 -110.334V-105.068H301.673V-110.334H294.122ZM279.019 -110.334V-105.068H286.57V-110.334H279.019ZM263.918 -110.334V-105.068H271.468V-110.334H263.918ZM248.815 -110.334V-105.068H256.366V-110.334H248.815ZM233.712 -110.334V-105.068H241.264V-110.334H233.712ZM218.61 -110.334V-105.068H226.161V-110.334H218.61ZM203.507 -110.334V-105.068H211.058V-110.334H203.507ZM188.404 -110.334V-105.068H195.956V-110.334H188.404ZM173.303 -110.334V-105.068H180.853V-110.334H173.303ZM158.2 -110.334V-105.068H165.751V-110.334H158.2ZM143.097 -110.334V-105.068H150.649V-110.334H143.097ZM127.995 -110.334V-105.068H135.546V-110.334H127.995ZM112.892 -110.334V-105.068H120.443V-110.334H112.892ZM102.115 -110.334C101.199 -110.334 100.271 -110.388 99.3539 -110.458C99.1381 -110.475 98.9224 -110.493 98.7066 -110.527C98.4478 -110.546 98.1888 -110.58 97.9299 -110.615L97.7034 -105.929L97.671 -105.368C97.8544 -105.349 98.0377 -105.314 98.232 -105.314C99.5912 -105.156 100.961 -105.068 102.331 -105.068H105.341V-110.334H102.115ZM87.5092 -113.564C87.2611 -113.669 87.013 -113.774 86.7648 -113.898C86.3873 -114.074 86.0205 -114.249 85.6538 -114.442C85.4488 -114.53 85.2439 -114.635 85.0497 -114.74C84.5642 -115.003 84.0895 -115.267 83.615 -115.53L82.5362 -110.58C83.0109 -110.3 83.4854 -110.036 83.9709 -109.79C84.1651 -109.685 84.37 -109.58 84.5642 -109.474C85.7184 -108.878 86.8943 -108.352 88.081 -107.877C88.3291 -107.772 88.5771 -107.667 88.8252 -107.596C89.2136 -107.438 89.6127 -107.298 90.0012 -107.158L90.6699 -112.318C89.6127 -112.669 88.5556 -113.091 87.5092 -113.564ZM72.493 -124.325C72.4067 -124.394 72.3205 -124.482 72.2341 -124.57C71.6732 -125.149 71.123 -125.747 70.5836 -126.361L68.7498 -122.007C69.548 -121.112 70.3571 -120.252 71.1877 -119.445C71.2525 -119.357 71.3171 -119.286 71.3927 -119.235C72.698 -117.918 74.0464 -116.689 75.4057 -115.566L76.8727 -120.252C75.3841 -121.481 73.917 -122.833 72.493 -124.325ZM64.7691 -133.821C62.9785 -136.454 61.274 -139.297 59.6991 -142.281L57.2395 -138.858C58.9224 -135.664 60.7347 -132.627 62.6548 -129.818L64.6505 -133.434V-133.453L64.8123 -133.733L64.7584 -133.821H64.7691ZM51.7055 -162.24L48.7929 -159.958C49.9041 -156.184 51.1769 -152.479 52.59 -148.951L55.2977 -151.83C53.9709 -155.165 52.7626 -158.659 51.7055 -162.24ZM47.1748 -184.883L43.9924 -183.918C44.4671 -179.793 45.1036 -175.668 45.9018 -171.682L48.9763 -173.315C48.2212 -177.089 47.6171 -180.968 47.1748 -184.883ZM46.398 -208.649L43.1726 -209.053C43.054 -206.596 43 -204.104 43 -201.61C43 -199.891 43.0216 -198.153 43.0863 -196.45L46.3118 -196.731C46.2578 -198.346 46.2362 -199.979 46.2362 -201.61C46.2362 -203.963 46.2902 -206.332 46.398 -208.649ZM46.3549 -233.698C45.5027 -229.749 44.7907 -225.658 44.2622 -221.55L47.4336 -220.463C47.9299 -224.342 48.5987 -228.221 49.4078 -231.96L46.3549 -233.698ZM53.3668 -256.149C51.9105 -252.69 50.5728 -249.04 49.4078 -245.3L52.288 -242.913C53.3991 -246.459 54.6505 -249.899 56.0313 -253.182L53.3668 -256.149ZM63.7012 -274.895C61.7379 -272.157 59.8824 -269.19 58.1564 -266.066L60.5621 -262.556C62.191 -265.504 63.9601 -268.312 65.8047 -270.893L63.7012 -274.895ZM76.6569 -288.674C74.3377 -286.867 72.0615 -284.777 69.904 -282.478L71.6732 -278.071C73.712 -280.248 75.8695 -282.215 78.0594 -283.934L76.6569 -288.674ZM91.3711 -296.521C88.836 -295.748 86.3117 -294.695 83.863 -293.378L84.8662 -288.376C87.1856 -289.622 89.5696 -290.605 91.9752 -291.343L91.3711 -296.521ZM102.331 -298.152C101.242 -298.152 100.152 -298.1 99.0733 -298.013L99.246 -292.747C100.26 -292.835 101.296 -292.886 102.331 -292.886H106.711V-298.152H102.331ZM340.8 -298.152V-292.886H348.351V-298.152H340.8ZM325.697 -298.152V-292.886H333.249V-298.152H325.697ZM310.595 -298.152V-292.886H318.146V-298.152H310.595ZM295.492 -298.152V-292.886H303.043V-298.152H295.492ZM280.389 -298.152V-292.886H287.941V-298.152H280.389ZM265.288 -298.152V-292.886H272.838V-298.152H265.288ZM250.185 -298.152V-292.886H257.736V-298.152H250.185ZM235.082 -298.152V-292.886H242.634V-298.152H235.082ZM219.98 -298.152V-292.886H227.531V-298.152H219.98ZM204.877 -298.152V-292.886H212.428V-298.152H204.877ZM189.774 -298.152V-292.886H197.326V-298.152H189.774ZM174.673 -298.152V-292.886H182.223V-298.152H174.673ZM159.57 -298.152V-292.886H167.121V-298.152H159.57ZM144.467 -298.152V-292.886H152.019V-298.152H144.467ZM129.365 -298.152V-292.886H136.916V-298.152H129.365ZM114.262 -298.152V-292.886H121.813V-298.152H114.262ZM363.13 -299.452C360.735 -298.784 358.286 -298.364 355.837 -298.223L355.967 -292.957C358.545 -293.115 361.145 -293.554 363.68 -294.256L363.13 -299.452ZM377.11 -306.473C374.898 -304.823 372.59 -303.384 370.271 -302.207L371.22 -297.187C373.68 -298.416 376.118 -299.944 378.47 -301.699L377.11 -306.473ZM389.483 -319.164C387.607 -316.636 385.61 -314.267 383.55 -312.16L385.277 -307.702C387.456 -309.949 389.57 -312.441 391.555 -315.108L389.483 -319.164ZM399.44 -336.63C398.028 -333.399 396.474 -330.275 394.812 -327.378L397.186 -323.797C398.945 -326.869 400.584 -330.169 402.083 -333.575L399.44 -336.63ZM406.29 -357.675C405.439 -353.971 404.424 -350.302 403.292 -346.792L406.15 -344.334C407.358 -348.039 408.426 -351.918 409.322 -355.85L406.29 -357.675ZM409.527 -380.898C409.301 -376.948 408.912 -372.982 408.384 -369.12L411.533 -367.962C412.105 -372.034 412.515 -376.229 412.752 -380.424L409.527 -380.898ZM412.181 -405.577L408.987 -404.7C409.397 -400.803 409.646 -396.818 409.731 -392.834L412.968 -393.027C412.871 -397.24 412.612 -401.452 412.181 -405.577ZM407.628 -429.661L404.683 -427.467C405.697 -423.868 406.582 -420.112 407.304 -416.321L410.39 -417.864C409.634 -421.884 408.707 -425.851 407.628 -429.661ZM399.398 -450.969L396.906 -447.6C398.458 -444.545 399.904 -441.298 401.198 -437.945L403.938 -440.754C402.568 -444.299 401.037 -447.741 399.398 -450.969ZM388.06 -468.119L386.182 -463.836C388.168 -461.537 390.077 -458.992 391.867 -456.288L394.068 -460.15C392.18 -462.993 390.163 -465.679 388.06 -468.119ZM374.381 -479.932L373.248 -475C375.535 -473.613 377.79 -471.964 379.948 -470.102L381.458 -474.754C379.181 -476.72 376.797 -478.458 374.381 -479.932ZM359.289 -485.549L358.988 -480.302C361.415 -479.932 363.852 -479.3 366.225 -478.423L366.949 -483.549C364.434 -484.478 361.857 -485.146 359.289 -485.549ZM344.046 -485.97V-480.704H351.598V-485.97H344.046ZM328.944 -485.97V-480.704H336.495V-485.97H328.944ZM313.842 -485.97V-480.704H321.392V-485.97H313.842ZM298.739 -485.97V-480.704H306.291V-485.97H298.739ZM283.637 -485.97V-480.704H291.188V-485.97H283.637ZM268.534 -485.97V-480.704H276.085V-485.97H268.534ZM253.431 -485.97V-480.704H260.983V-485.97H253.431ZM238.329 -485.97V-480.704H245.88V-485.97H238.329ZM223.227 -485.97V-480.704H230.777V-485.97H223.227ZM208.124 -485.97V-480.704H215.676V-485.97H208.124ZM193.022 -485.97V-480.704H200.573V-485.97H193.022ZM177.919 -485.97V-480.704H185.47V-485.97H177.919ZM162.816 -485.97V-480.704H170.368V-485.97H162.816ZM147.714 -485.97V-480.704H155.265V-485.97H147.714ZM132.612 -485.97V-480.704H140.162V-485.97H132.612ZM117.509 -485.97V-480.704H125.061V-485.97H117.509ZM102.407 -485.97V-480.704H109.958V-485.97H102.407ZM89.8285 -485.97C89.0086 -485.97 88.1996 -486.006 87.3905 -486.075L87.2179 -480.828C88.081 -480.74 88.9548 -480.704 89.8285 -480.704H94.8555V-485.97H89.8285ZM73.2589 -491.272L72.0292 -486.409C74.4347 -484.795 76.9375 -483.496 79.4833 -482.565L80.1953 -487.708C77.8328 -488.569 75.5027 -489.78 73.2589 -491.272ZM60.972 -503.735L58.8252 -499.803C60.7778 -496.994 62.8813 -494.432 65.082 -492.202L66.7972 -496.66C64.7476 -498.75 62.7843 -501.119 60.972 -503.735ZM51.8457 -522.06L49.0302 -519.479C50.3032 -515.793 51.781 -512.265 53.4207 -508.965L55.9342 -512.283C54.4132 -515.354 53.0323 -518.637 51.8457 -522.06ZM46.9267 -544.247L43.7443 -543.317C44.1974 -539.139 44.8878 -535.014 45.7616 -531.029L48.8145 -532.82C47.9838 -536.524 47.3582 -540.368 46.9267 -544.247ZM43 -568.277V-555.955L46.2362 -556.025V-568.277H43ZM43 -592.851V-580.564H46.2362V-592.851H43ZM43 -617.426V-605.139H46.2362V-617.426H43ZM43 -642V-629.713H46.2362V-642H43Z" fill="white"/>
</g>
<defs>
<filter id="filter0_d_397_9744" x="10.9" y="-625.1" width="432.2" height="875.2" filterUnits="userSpaceOnUse" color-interpolation-filters="sRGB">
<feFlood flood-opacity="0" result="BackgroundImageFix"/>
<feColorMatrix in="SourceAlpha" type="matrix" values="0 0 0 0 0 0 0 0 0 0 0 0 0 0 0 0 0 0 127 0" result="hardAlpha"/>
<feOffset/>
<feGaussianBlur stdDeviation="11.55"/>
<feComposite in2="hardAlpha" operator="out"/>
<feColorMatrix type="matrix" values="0 0 0 0 0.578051 0 0 0 0 0.511963 0 0 0 0 1 0 0 0 1 0"/>
<feBlend mode="normal" in2="BackgroundImageFix" result="effect1_dropShadow_397_9744"/>
<feBlend mode="normal" in="SourceGraphic" in2="effect1_dropShadow_397_9744" result="shape"/>
</filter>
<linearGradient id="paint0_linear_397_9744" x1="227" y1="-602" x2="227" y2="227" gradientUnits="userSpaceOnUse">
<stop stop-color="#8073D3"/>
<stop offset="0.38" stop-color="#251E52"/>
<stop offset="0.725" stop-color="#08346D"/>
<stop offset="0.78" stop-color="#00122A"/>
<stop offset="0.985" stop-color="#169FA1"/>
</linearGradient>
<clipPath id="clip0_397_9744">
<rect width="453" height="177" fill="white"/>
</clipPath>
</defs>
</svg>
