<svg width="453" height="177" viewBox="0 0 453 177" fill="none" xmlns="http://www.w3.org/2000/svg">
<g clip-path="url(#clip0_386_9669)">
<g filter="url(#filter0_d_386_9669)">
<path d="M420 529.382C420 586.516 389.767 633.007 352.611 633.007H218.278C215.539 633.007 212.865 633.488 210.299 634.382C209.867 634.548 209.436 634.714 209.016 634.897C202.169 637.732 196.141 643.651 191.591 651.625C191.279 652.189 190.977 652.737 190.675 653.317C190.578 653.5 190.481 653.682 190.395 653.864C190.103 654.428 189.823 654.992 189.565 655.556C187.786 659.303 186.309 663.431 185.209 667.809C184.788 669.433 184.432 671.091 184.12 672.783C183.612 675.551 183.235 678.402 183.019 681.338C182.869 683.376 182.794 685.466 182.794 687.571V765H163.386V687.571C163.386 680.078 164.022 672.799 165.229 665.884C165.897 661.955 166.761 658.126 167.795 654.444C168.195 652.986 168.626 651.543 169.089 650.133C171.699 642.043 175.138 634.681 179.235 628.314C180.033 627.054 180.874 625.827 181.737 624.634H181.748C183.85 621.733 186.093 619.096 188.465 616.725C189.532 615.665 190.631 614.636 191.753 613.691C193.533 612.165 195.376 610.79 197.274 609.595C198.567 608.766 199.883 608.004 201.23 607.341C204.66 605.6 208.25 604.372 211.937 603.727C214.018 603.345 216.132 603.163 218.278 603.163H352.611C379.061 603.163 400.592 570.07 400.592 529.382C400.592 488.694 379.061 455.601 352.611 455.601H101.388C90.4229 455.601 80.0505 451.555 70.8857 444.359C70.2819 443.896 69.6889 443.415 69.1066 442.917C66.314 440.562 63.64 437.909 61.0954 435.008C44.6635 416.09 34 385.915 34 351.976C34 294.841 64.2222 248.351 101.388 248.351H352.611C379.061 248.351 400.592 215.257 400.592 174.57C400.592 133.882 379.061 100.789 352.611 100.789H88.8918C58.6264 100.789 34 62.9199 34 16.3798V-64H53.4078V16.3798C53.4078 46.4725 69.3222 70.9449 88.8918 70.9449H352.611C389.767 70.9449 420 117.435 420 174.57C420 231.704 389.767 278.195 352.611 278.195H101.388C74.9289 278.195 53.4078 311.288 53.4078 351.976C53.4078 372.899 59.1008 391.817 68.2224 405.247C70.4005 408.447 72.7833 411.349 75.3171 413.886C75.7484 414.317 76.1905 414.748 76.6325 415.162C81.3119 419.505 86.4981 422.656 92.0294 424.331C92.3636 424.447 92.7087 424.546 93.0429 424.629C95.76 425.375 98.5418 425.757 101.388 425.757H352.611C389.767 425.757 420 472.247 420 529.382Z" fill="url(#paint0_linear_386_9669)"/>
</g>
<path d="M171.45 745.378V757H174.687V745.378H171.45ZM171.45 722.135V733.756H174.687V722.135H171.45ZM171.45 698.891V710.513H174.687V698.891H171.45ZM172.248 675.282C172.216 675.514 172.195 675.746 172.172 675.979C171.742 679.682 171.504 683.45 171.461 687.236L174.687 687.319C174.729 684.364 174.891 681.408 175.183 678.502C175.257 677.739 175.333 676.959 175.43 676.195L172.248 675.282ZM177.62 652.802C176.553 655.691 175.592 658.712 174.794 661.817C174.622 662.432 174.471 663.045 174.319 663.677L177.361 665.404C177.415 665.171 177.48 664.922 177.545 664.689C178.333 661.452 179.314 658.281 180.436 655.276L177.62 652.802ZM189.551 637.893L187.502 634.274C186.638 635.436 185.797 636.647 184.999 637.909C184.384 638.856 183.78 639.836 183.208 640.848C182.82 641.529 182.432 642.209 182.064 642.907L184.557 646.062L184.751 645.712C185.484 644.351 186.261 643.039 187.059 641.778C187.124 641.678 187.189 641.561 187.254 641.478C187.534 641.031 187.815 640.599 188.105 640.184C188.213 640.002 188.332 639.852 188.44 639.686C188.526 639.569 188.602 639.453 188.689 639.338C188.753 639.237 188.818 639.154 188.882 639.071C188.969 638.939 189.055 638.806 189.153 638.69L189.541 638.142C189.541 638.142 189.594 638.058 189.627 638.026L189.551 637.893ZM200.76 621.739C199.638 622.436 198.537 623.199 197.447 624.029C196.725 624.578 196.024 625.159 195.323 625.773C194.805 626.204 194.298 626.669 193.791 627.151L195.344 631.053L195.484 631.401C196.24 630.687 197.006 630.006 197.794 629.376C199.152 628.247 200.555 627.234 201.978 626.354L200.76 621.739ZM215.97 616.608C213.37 616.807 210.759 617.339 208.235 618.186L208.925 623.049C211.277 622.253 213.704 621.772 216.132 621.589L215.97 616.608ZM344.428 616.525V621.506H351.979V616.525H344.428ZM329.325 616.525V621.506H336.876V616.525H329.325ZM314.222 616.525V621.506H321.774V616.525H314.222ZM299.119 616.525V621.506H306.671V616.525H299.119ZM284.018 616.525V621.506H291.568V616.525H284.018ZM268.915 616.525V621.506H276.467V616.525H268.915ZM253.813 616.525V621.506H261.364V616.525H253.813ZM238.71 616.525V621.506H246.261V616.525H238.71ZM223.607 616.525V621.506H231.159V616.525H223.607ZM366.531 613.869C364.158 614.798 361.742 615.479 359.314 615.928L359.692 620.875C362.259 620.411 364.827 619.68 367.319 618.7L366.531 613.869ZM380.102 605.517C377.976 607.36 375.755 608.988 373.5 610.382L374.697 615.015C377.092 613.537 379.444 611.81 381.688 609.868L380.102 605.517ZM391.817 592.037C390.081 594.643 388.203 597.117 386.251 599.358L388.192 603.359C390.253 600.968 392.237 598.362 394.083 595.59L391.817 592.037ZM400.889 574.338C399.637 577.558 398.246 580.696 396.736 583.636L399.271 586.724C400.867 583.602 402.345 580.298 403.672 576.894L400.889 574.338ZM406.671 553.651C406.013 557.27 405.193 560.84 404.223 564.294L407.2 566.252C408.214 562.616 409.087 558.831 409.789 554.996L406.671 553.651ZM408.764 531.354C408.731 535.122 408.538 538.908 408.193 542.61L411.396 543.324C411.763 539.406 411.968 535.405 412 531.421L408.764 531.354ZM410.209 507.762L407.071 508.989C407.664 512.609 408.106 516.345 408.397 520.081L411.612 519.516C411.31 515.547 410.835 511.613 410.209 507.762ZM404.481 485.646L401.655 488.07C402.853 491.358 403.91 494.778 404.805 498.264L407.814 496.422C406.865 492.736 405.743 489.117 404.481 485.646ZM395.226 466.553L392.906 470.024C394.611 472.713 396.207 475.602 397.664 478.624L400.263 475.636C398.72 472.464 397.028 469.41 395.226 466.553ZM383.09 451.777L381.429 456.045C383.521 457.97 385.55 460.129 387.47 462.453L389.476 458.551C387.448 456.094 385.302 453.803 383.09 451.777ZM368.872 442.314L367.987 447.112C370.339 448.141 372.669 449.404 374.902 450.898L376.185 446.332C373.824 444.755 371.364 443.409 368.872 442.314ZM353.565 438.894L353.51 443.874C355.959 443.925 358.418 444.223 360.825 444.755L361.289 439.823C358.742 439.258 356.142 438.944 353.565 438.894ZM338.43 438.877V443.858H345.981V438.877H338.43ZM323.327 438.877V443.858H330.879V438.877H323.327ZM308.224 438.877V443.858H315.776V438.877H308.224ZM293.122 438.877V443.858H300.673V438.877H293.122ZM278.019 438.877V443.858H285.57V438.877H278.019ZM262.918 438.877V443.858H270.468V438.877H262.918ZM247.815 438.877V443.858H255.366V438.877H247.815ZM232.712 438.877V443.858H240.264V438.877H232.712ZM217.61 438.877V443.858H225.161V438.877H217.61ZM202.507 438.877V443.858H210.058V438.877H202.507ZM187.404 438.877V443.858H194.956V438.877H187.404ZM172.303 438.877V443.858H179.853V438.877H172.303ZM157.2 438.877V443.858H164.751V438.877H157.2ZM142.097 438.877V443.858H149.649V438.877H142.097ZM126.995 438.877V443.858H134.546V438.877H126.995ZM111.892 438.877V443.858H119.443V438.877H111.892ZM101.115 438.877C100.199 438.877 99.2708 438.827 98.3539 438.76C98.1381 438.744 97.9224 438.728 97.7066 438.695C97.4478 438.677 97.1888 438.645 96.9299 438.612L96.7034 443.044L96.671 443.575C96.8544 443.593 97.0377 443.625 97.232 443.625C98.5912 443.775 99.9612 443.858 101.331 443.858H104.341V438.877H101.115ZM86.5092 435.822C86.2611 435.723 86.013 435.623 85.7648 435.506C85.3873 435.34 85.0205 435.174 84.6538 434.992C84.4488 434.909 84.2439 434.81 84.0497 434.71C83.5642 434.461 83.0895 434.212 82.615 433.963L81.5362 438.645C82.0109 438.91 82.4854 439.159 82.9709 439.392C83.1651 439.491 83.37 439.59 83.5642 439.691C84.7184 440.255 85.8943 440.753 87.081 441.202C87.3291 441.301 87.5771 441.4 87.8252 441.467C88.2136 441.617 88.6127 441.749 89.0012 441.882L89.6699 437.001C88.6127 436.669 87.5556 436.27 86.5092 435.822ZM71.493 425.644C71.4067 425.579 71.3205 425.496 71.2341 425.413C70.6732 424.864 70.123 424.3 69.5836 423.719L67.7498 427.836C68.548 428.683 69.3571 429.497 70.1877 430.26C70.2525 430.343 70.3171 430.41 70.3927 430.459C71.698 431.704 73.0464 432.866 74.4057 433.929L75.8727 429.497C74.3841 428.335 72.917 427.055 71.493 425.644ZM63.7691 416.662C61.9785 414.172 60.274 411.483 58.6991 408.66L56.2395 411.898C57.9224 414.919 59.7347 417.792 61.6548 420.448L63.6505 417.028V417.011L63.8123 416.745L63.7584 416.662H63.7691ZM50.7055 389.783L47.7929 391.941C48.9041 395.51 50.1769 399.015 51.59 402.352L54.2977 399.628C52.9709 396.474 51.7626 393.17 50.7055 389.783ZM46.1748 368.365L42.9924 369.278C43.4671 373.18 44.1036 377.082 44.9018 380.851L47.9763 379.307C47.2212 375.737 46.6171 372.068 46.1748 368.365ZM45.398 345.886L42.1726 345.504C42.054 347.828 42 350.185 42 352.544C42 354.17 42.0216 355.814 42.0863 357.425L45.3118 357.158C45.2578 355.631 45.2362 354.087 45.2362 352.544C45.2362 350.319 45.2902 348.077 45.398 345.886ZM45.3549 322.194C44.5027 325.929 43.7907 329.798 43.2622 333.683L46.4336 334.712C46.9299 331.043 47.5987 327.374 48.4078 323.837L45.3549 322.194ZM52.3668 300.958C50.9105 304.23 49.5728 307.683 48.4078 311.219L51.288 313.477C52.3991 310.124 53.6505 306.87 55.0313 303.765L52.3668 300.958ZM62.7012 283.228C60.7379 285.817 58.8824 288.624 57.1564 291.578L59.5621 294.898C61.191 292.11 62.9601 289.454 64.8047 287.012L62.7012 283.228ZM75.6569 270.195C73.3377 271.904 71.0615 273.88 68.904 276.055L70.6732 280.223C72.712 278.164 74.8695 276.304 77.0594 274.677L75.6569 270.195ZM90.3711 262.772C87.836 263.503 85.3117 264.499 82.863 265.745L83.8662 270.476C86.1856 269.298 88.5696 268.368 90.9752 267.67L90.3711 262.772ZM101.331 261.229C100.242 261.229 99.1521 261.278 98.0733 261.361L98.246 266.342C99.26 266.259 100.296 266.21 101.331 266.21H105.711V261.229H101.331ZM339.8 261.229V266.21H347.351V261.229H339.8ZM324.697 261.229V266.21H332.249V261.229H324.697ZM309.595 261.229V266.21H317.146V261.229H309.595ZM294.492 261.229V266.21H302.043V261.229H294.492ZM279.389 261.229V266.21H286.941V261.229H279.389ZM264.288 261.229V266.21H271.838V261.229H264.288ZM249.185 261.229V266.21H256.736V261.229H249.185ZM234.082 261.229V266.21H241.634V261.229H234.082ZM218.98 261.229V266.21H226.531V261.229H218.98ZM203.877 261.229V266.21H211.428V261.229H203.877ZM188.774 261.229V266.21H196.326V261.229H188.774ZM173.673 261.229V266.21H181.223V261.229H173.673ZM158.57 261.229V266.21H166.121V261.229H158.57ZM143.467 261.229V266.21H151.019V261.229H143.467ZM128.365 261.229V266.21H135.916V261.229H128.365ZM113.262 261.229V266.21H120.813V261.229H113.262ZM362.13 260C359.735 260.632 357.286 261.029 354.837 261.163L354.967 266.143C357.545 265.994 360.145 265.579 362.68 264.914L362.13 260ZM376.11 253.359C373.898 254.92 371.59 256.281 369.271 257.394L370.22 262.142C372.68 260.98 375.118 259.535 377.47 257.875L376.11 253.359ZM388.483 241.355C386.607 243.746 384.61 245.987 382.55 247.98L384.277 252.197C386.456 250.071 388.57 247.714 390.555 245.191L388.483 241.355ZM398.44 224.835C397.028 227.891 395.474 230.846 393.812 233.586L396.186 236.973C397.945 234.067 399.584 230.946 401.083 227.725L398.44 224.835ZM405.29 204.93C404.439 208.433 403.424 211.903 402.292 215.224L405.15 217.548C406.358 214.044 407.426 210.375 408.322 206.656L405.29 204.93ZM408.527 182.964C408.301 186.7 407.912 190.452 407.384 194.104L410.533 195.2C411.105 191.348 411.515 187.38 411.752 183.412L408.527 182.964ZM411.181 159.621L407.987 160.451C408.397 164.136 408.646 167.906 408.731 171.674L411.968 171.492C411.871 167.507 411.612 163.523 411.181 159.621ZM406.628 136.841L403.683 138.917C404.697 142.32 405.582 145.874 406.304 149.46L409.39 147.999C408.634 144.197 407.707 140.445 406.628 136.841ZM398.398 116.687L395.906 119.874C397.458 122.763 398.904 125.835 400.198 129.006L402.938 126.349C401.568 122.996 400.037 119.741 398.398 116.687ZM387.06 100.465L385.182 104.517C387.168 106.691 389.077 109.099 390.867 111.656L393.068 108.003C391.18 105.314 389.163 102.773 387.06 100.465ZM373.381 89.2926L372.248 93.9577C374.535 95.2695 376.79 96.8292 378.948 98.5901L380.458 94.1904C378.181 92.3301 375.797 90.6862 373.381 89.2926ZM358.289 83.9797L357.988 88.9429C360.415 89.2926 362.852 89.89 365.225 90.7202L365.949 85.8714C363.434 84.9922 360.857 84.3608 358.289 83.9797ZM343.046 83.581V88.5618H350.598V83.581H343.046ZM327.944 83.581V88.5618H335.495V83.581H327.944ZM312.842 83.581V88.5618H320.392V83.581H312.842ZM297.739 83.581V88.5618H305.291V83.581H297.739ZM282.637 83.581V88.5618H290.188V83.581H282.637ZM267.534 83.581V88.5618H275.085V83.581H267.534ZM252.431 83.581V88.5618H259.983V83.581H252.431ZM237.329 83.581V88.5618H244.88V83.581H237.329ZM222.227 83.581V88.5618H229.777V83.581H222.227ZM207.124 83.581V88.5618H214.676V83.581H207.124ZM192.022 83.581V88.5618H199.573V83.581H192.022ZM176.919 83.581V88.5618H184.47V83.581H176.919ZM161.816 83.581V88.5618H169.368V83.581H161.816ZM146.714 83.581V88.5618H154.265V83.581H146.714ZM131.612 83.581V88.5618H139.162V83.581H131.612ZM116.509 83.581V88.5618H124.061V83.581H116.509ZM101.407 83.581V88.5618H108.958V83.581H101.407ZM88.8285 83.581C88.0086 83.581 87.1996 83.5471 86.3905 83.4816L86.2179 88.4448C87.081 88.5278 87.9548 88.5618 88.8285 88.5618H93.8555V83.581H88.8285ZM72.2589 78.5663L71.0292 83.166C73.4347 84.6929 75.9375 85.9217 78.4833 86.8022L79.1953 81.9371C76.8328 81.1233 74.5027 79.9775 72.2589 78.5663ZM59.972 66.7784L57.8252 70.4977C59.7778 73.1541 61.8813 75.5778 64.082 77.6871L65.7972 73.4698C63.7476 71.4938 61.7843 69.2524 59.972 66.7784ZM50.8457 49.4458L48.0302 51.8864C49.3032 55.3729 50.781 58.71 52.4207 61.8316L54.9342 58.6934C53.4132 55.788 52.0323 52.6833 50.8457 49.4458ZM45.9267 28.46L42.7443 29.34C43.1974 33.2914 43.8878 37.193 44.7616 40.9618L47.8145 39.2683C46.9838 35.7652 46.3582 32.1292 45.9267 28.46ZM42 5.73104V17.3861L45.2362 17.3197V5.73104H42ZM42 -17.5126V-5.8908H45.2362V-17.5126H42ZM42 -40.7563V-29.1345H45.2362V-40.7563H42ZM42 -64V-52.3782H45.2362V-64H42Z" fill="white"/>
</g>
<defs>
<filter id="filter0_d_386_9669" x="10.9" y="-87.1" width="432.2" height="875.2" filterUnits="userSpaceOnUse" color-interpolation-filters="sRGB">
<feFlood flood-opacity="0" result="BackgroundImageFix"/>
<feColorMatrix in="SourceAlpha" type="matrix" values="0 0 0 0 0 0 0 0 0 0 0 0 0 0 0 0 0 0 127 0" result="hardAlpha"/>
<feOffset/>
<feGaussianBlur stdDeviation="11.55"/>
<feComposite in2="hardAlpha" operator="out"/>
<feColorMatrix type="matrix" values="0 0 0 0 0.578051 0 0 0 0 0.511963 0 0 0 0 1 0 0 0 1 0"/>
<feBlend mode="normal" in2="BackgroundImageFix" result="effect1_dropShadow_386_9669"/>
<feBlend mode="normal" in="SourceGraphic" in2="effect1_dropShadow_386_9669" result="shape"/>
</filter>
<linearGradient id="paint0_linear_386_9669" x1="227" y1="-64" x2="227" y2="765" gradientUnits="userSpaceOnUse">
<stop stop-color="#169FA1"/>
<stop offset="0.195" stop-color="#07336C"/>
<stop offset="0.288091" stop-color="#07336C"/>
<stop offset="0.555" stop-color="#052B5D"/>
<stop offset="0.73" stop-color="#169FA1"/>
<stop offset="0.78" stop-color="#00122A"/>
</linearGradient>
<clipPath id="clip0_386_9669">
<rect width="453" height="177" fill="white"/>
</clipPath>
</defs>
</svg>
