<svg width="371" height="123" viewBox="0 0 371 123" fill="none" xmlns="http://www.w3.org/2000/svg">
<g clip-path="url(#clip0_531_656)">
<path d="M360 405.415C360 450.902 332.665 487.915 299.071 487.915H177.613C175.137 487.915 172.72 488.298 170.399 489.01C170.009 489.142 169.62 489.274 169.239 489.42C163.049 491.677 157.599 496.389 153.486 502.738C153.203 503.187 152.93 503.623 152.657 504.085C152.569 504.23 152.481 504.375 152.403 504.52C152.14 504.969 151.887 505.418 151.653 505.867C150.044 508.85 148.709 512.137 147.714 515.622C147.334 516.915 147.013 518.235 146.73 519.582C146.272 521.786 145.93 524.056 145.735 526.393C145.599 528.016 145.531 529.68 145.531 531.356V593H127.983V531.356C127.983 525.39 128.558 519.595 129.65 514.09C130.255 510.962 131.035 507.913 131.97 504.982C132.331 503.821 132.721 502.672 133.14 501.55C135.499 495.109 138.609 489.248 142.314 484.179C143.035 483.176 143.795 482.199 144.575 481.249H144.585C146.486 478.939 148.514 476.84 150.658 474.952C151.624 474.108 152.618 473.289 153.632 472.537C155.24 471.322 156.907 470.227 158.623 469.276C159.793 468.616 160.982 468.009 162.201 467.481C165.301 466.095 168.547 465.118 171.881 464.604C173.763 464.3 175.673 464.155 177.613 464.155H299.071C322.985 464.155 342.452 437.808 342.452 405.415C342.452 373.022 322.985 346.675 299.071 346.675H71.9288C62.0144 346.675 52.6363 343.454 44.35 337.725C43.8041 337.356 43.2679 336.973 42.7415 336.577C40.2166 334.702 37.7989 332.59 35.4982 330.28C20.6414 315.219 11 291.195 11 264.175C11 218.688 38.3253 181.675 71.9288 181.675H299.071C322.985 181.675 342.452 155.328 342.452 122.935C342.452 90.542 322.985 64.1948 299.071 64.1948H60.6301C33.2658 64.1948 11 34.046 11 -3.0064V-67H28.5475V-3.0064C28.5475 20.9516 42.9364 40.4348 60.6301 40.4348H299.071C332.665 40.4348 360 77.4476 360 122.935C360 168.422 332.665 205.435 299.071 205.435H71.9288C48.0057 205.435 28.5475 231.782 28.5475 264.175C28.5475 280.833 33.6947 295.894 41.9421 306.586C43.9113 309.134 46.0657 311.444 48.3566 313.464C48.7466 313.807 49.1463 314.15 49.546 314.48C53.7769 317.938 58.4659 320.446 63.467 321.78C63.7692 321.872 64.0811 321.951 64.3833 322.017C66.84 322.611 69.3551 322.915 71.9288 322.915H299.071C332.665 322.915 360 359.928 360 405.415Z" fill="url(#paint0_linear_531_656)"/>
<path d="M135.205 576.756V586H138.135V576.756H135.205ZM135.205 558.269V567.513H138.135V558.269H135.205ZM135.205 539.782V549.025H138.135V539.782H135.205ZM135.927 521.004C135.898 521.189 135.879 521.373 135.859 521.558C135.468 524.503 135.253 527.501 135.214 530.511L138.135 530.578C138.174 528.227 138.32 525.876 138.584 523.566C138.652 522.958 138.721 522.337 138.809 521.73L135.927 521.004ZM140.791 503.124C139.824 505.422 138.955 507.825 138.232 510.294C138.076 510.783 137.939 511.271 137.803 511.773L140.557 513.147C140.606 512.962 140.664 512.764 140.723 512.579C141.436 510.004 142.325 507.482 143.341 505.091L140.791 503.124ZM151.594 491.265L149.738 488.387C148.957 489.311 148.195 490.275 147.472 491.279C146.915 492.031 146.368 492.81 145.851 493.616C145.499 494.157 145.147 494.699 144.815 495.253L147.072 497.762L147.247 497.485C147.912 496.402 148.615 495.359 149.338 494.356C149.396 494.276 149.455 494.184 149.513 494.118C149.767 493.761 150.021 493.418 150.285 493.088C150.383 492.943 150.49 492.824 150.588 492.692C150.666 492.599 150.734 492.507 150.812 492.414C150.871 492.335 150.93 492.269 150.988 492.203C151.066 492.097 151.144 491.992 151.232 491.899L151.584 491.464C151.584 491.464 151.633 491.398 151.662 491.371L151.594 491.265ZM161.742 478.417C160.726 478.971 159.73 479.579 158.743 480.239C158.089 480.675 157.454 481.137 156.819 481.626C156.35 481.969 155.891 482.339 155.432 482.722L156.839 485.825L156.966 486.102C157.649 485.534 158.343 484.993 159.056 484.491C160.286 483.593 161.556 482.788 162.845 482.088L161.742 478.417ZM175.513 474.336C173.159 474.495 170.796 474.917 168.51 475.591L169.135 479.46C171.265 478.826 173.462 478.443 175.66 478.298L175.513 474.336ZM291.819 474.27V478.232H298.656V474.27H291.819ZM278.145 474.27V478.232H284.982V474.27H278.145ZM264.471 474.27V478.232H271.308V474.27H264.471ZM250.798 474.27V478.232H257.635V474.27H250.798ZM237.124 474.27V478.232H243.961V474.27H237.124ZM223.45 474.27V478.232H230.287V474.27H223.45ZM209.776 474.27V478.232H216.613V474.27H209.776ZM196.102 474.27V478.232H202.939V474.27H196.102ZM182.428 474.27V478.232H189.265V474.27H182.428ZM311.832 472.157C309.683 472.897 307.495 473.438 305.298 473.795L305.64 477.73C307.964 477.36 310.289 476.779 312.545 476L311.832 472.157ZM324.119 465.515C322.195 466.981 320.183 468.275 318.141 469.384L319.226 473.069C321.394 471.893 323.523 470.52 325.555 468.975L324.119 465.515ZM334.726 454.793C333.153 456.866 331.454 458.833 329.686 460.616L331.444 463.799C333.31 461.897 335.107 459.824 336.777 457.618L334.726 454.793ZM342.94 440.716C341.807 443.278 340.547 445.773 339.18 448.111L341.475 450.567C342.92 448.084 344.258 445.456 345.46 442.749L342.94 440.716ZM348.175 424.262C347.579 427.141 346.837 429.98 345.958 432.727L348.654 434.285C349.572 431.393 350.363 428.382 350.998 425.332L348.175 424.262ZM350.07 406.527C350.041 409.525 349.865 412.536 349.552 415.48L352.453 416.048C352.785 412.932 352.971 409.749 353 406.58L350.07 406.527ZM351.379 387.763L348.536 388.74C349.074 391.619 349.474 394.59 349.738 397.561L352.648 397.112C352.375 393.956 351.945 390.826 351.379 387.763ZM346.192 370.173L343.633 372.101C344.718 374.716 345.675 377.436 346.485 380.209L349.21 378.743C348.351 375.812 347.335 372.933 346.192 370.173ZM337.812 354.987L335.712 357.747C337.256 359.886 338.701 362.184 340.02 364.587L342.373 362.21C340.977 359.688 339.443 357.259 337.812 354.987ZM326.824 343.235L325.32 346.628C327.215 348.16 329.051 349.877 330.79 351.726L332.606 348.622C330.77 346.668 328.827 344.846 326.824 343.235ZM313.951 335.708L313.15 339.524C315.28 340.343 317.389 341.346 319.411 342.535L320.573 338.903C318.434 337.649 316.208 336.579 313.951 335.708ZM300.092 332.987L300.043 336.949C302.26 336.988 304.487 337.226 306.665 337.649L307.085 333.727C304.78 333.278 302.426 333.027 300.092 332.987ZM286.389 332.974V336.936H293.226V332.974H286.389ZM272.715 332.974V336.936H279.552V332.974H272.715ZM259.041 332.974V336.936H265.878V332.974H259.041ZM245.367 332.974V336.936H252.204V332.974H245.367ZM231.693 332.974V336.936H238.53V332.974H231.693ZM218.019 332.974V336.936H224.856V332.974H218.019ZM204.346 332.974V336.936H211.182V332.974H204.346ZM190.672 332.974V336.936H197.509V332.974H190.672ZM176.998 332.974V336.936H183.835V332.974H176.998ZM163.324 332.974V336.936H170.161V332.974H163.324ZM149.65 332.974V336.936H156.487V332.974H149.65ZM135.976 332.974V336.936H142.813V332.974H135.976ZM122.302 332.974V336.936H129.139V332.974H122.302ZM108.628 332.974V336.936H115.465V332.974H108.628ZM94.9546 332.974V336.936H101.792V332.974H94.9546ZM81.2807 332.974V336.936H88.1176V332.974H81.2807ZM71.5234 332.974C70.6932 332.974 69.8533 332.934 69.0231 332.882C68.8277 332.868 68.6324 332.855 68.437 332.829C68.2026 332.816 67.9682 332.789 67.7338 332.763L67.5287 336.289L67.4994 336.711C67.6654 336.724 67.8315 336.751 68.0073 336.751C69.2379 336.87 70.4784 336.936 71.7188 336.936H74.4438V332.974H71.5234ZM58.2988 330.544C58.0742 330.465 57.8496 330.386 57.6249 330.293C57.2831 330.161 56.951 330.029 56.6189 329.884C56.4333 329.818 56.2478 329.739 56.072 329.66C55.6324 329.461 55.2027 329.263 54.7729 329.065L53.7962 332.789C54.226 333 54.6557 333.199 55.0952 333.383C55.2711 333.463 55.4566 333.542 55.6324 333.621C56.6775 334.07 57.7421 334.466 58.8165 334.823C59.0411 334.902 59.2658 334.981 59.4904 335.034C59.842 335.153 60.2034 335.259 60.555 335.364L61.1606 331.482C60.2034 331.218 59.2462 330.901 58.2988 330.544ZM44.7031 322.449C44.625 322.397 44.5468 322.331 44.4687 322.265C43.9608 321.829 43.4627 321.38 42.9743 320.918L41.3139 324.193C42.0367 324.866 42.7692 325.513 43.5213 326.121C43.5799 326.187 43.6385 326.239 43.7069 326.279C44.8887 327.269 46.1096 328.194 47.3402 329.039L48.6685 325.513C47.3207 324.589 45.9924 323.572 44.7031 322.449ZM37.7099 315.305C36.0886 313.325 34.5454 311.185 33.1194 308.94L30.8925 311.516C32.4162 313.919 34.057 316.203 35.7956 318.316L37.6025 315.596V315.583L37.749 315.371L37.7001 315.305H37.7099ZM25.882 293.926L23.2449 295.643C24.2509 298.482 25.4034 301.268 26.6829 303.923L29.1344 301.757C27.9331 299.248 26.8392 296.62 25.882 293.926ZM21.7798 276.891L18.8986 277.618C19.3283 280.721 19.9046 283.824 20.6273 286.822L23.4109 285.594C22.7273 282.754 22.1803 279.836 21.7798 276.891ZM21.0766 259.011L18.1563 258.708C18.0488 260.556 18 262.432 18 264.307C18 265.601 18.0195 266.908 18.0781 268.189L20.9985 267.978C20.9496 266.763 20.9301 265.535 20.9301 264.307C20.9301 262.537 20.9789 260.755 21.0766 259.011ZM21.0376 240.168C20.266 243.139 19.6213 246.215 19.1427 249.306L22.0143 250.124C22.4635 247.206 23.0691 244.288 23.8016 241.475L21.0376 240.168ZM27.3861 223.278C26.0676 225.879 24.8565 228.626 23.8016 231.439L26.4094 233.235C27.4154 230.567 28.5484 227.979 29.7986 225.51L27.3861 223.278ZM36.743 209.175C34.9654 211.235 33.2854 213.466 31.7227 215.817L33.9008 218.458C35.3756 216.24 36.9774 214.127 38.6475 212.186L36.743 209.175ZM48.4732 198.809C46.3733 200.169 44.3124 201.74 42.359 203.47L43.9608 206.785C45.8068 205.147 47.7602 203.668 49.7429 202.374L48.4732 198.809ZM61.7954 192.906C59.5002 193.487 57.2147 194.279 54.9976 195.27L55.9059 199.033C58.0058 198.096 60.1643 197.356 62.3424 196.801L61.7954 192.906ZM71.7188 191.678C70.7323 191.678 69.7458 191.717 68.7691 191.783L68.9254 195.745C69.8435 195.679 70.7811 195.639 71.7188 195.639H75.6842V191.678H71.7188ZM287.629 191.678V195.639H294.466V191.678H287.629ZM273.955 191.678V195.639H280.792V191.678H273.955ZM260.281 191.678V195.639H267.118V191.678H260.281ZM246.608 191.678V195.639H253.444V191.678H246.608ZM232.934 191.678V195.639H239.771V191.678H232.934ZM219.26 191.678V195.639H226.097V191.678H219.26ZM205.586 191.678V195.639H212.423V191.678H205.586ZM191.912 191.678V195.639H198.749V191.678H191.912ZM178.238 191.678V195.639H185.075V191.678H178.238ZM164.564 191.678V195.639H171.401V191.678H164.564ZM150.89 191.678V195.639H157.727V191.678H150.89ZM137.217 191.678V195.639H144.054V191.678H137.217ZM123.543 191.678V195.639H130.38V191.678H123.543ZM109.869 191.678V195.639H116.706V191.678H109.869ZM96.195 191.678V195.639H103.032V191.678H96.195ZM82.5211 191.678V195.639H89.3581V191.678H82.5211ZM307.847 190.701C305.679 191.202 303.462 191.519 301.244 191.625L301.362 195.587C303.696 195.468 306.05 195.138 308.345 194.609L307.847 190.701ZM320.505 185.419C318.503 186.66 316.413 187.743 314.313 188.627L315.172 192.404C317.399 191.48 319.607 190.331 321.736 189.01L320.505 185.419ZM331.708 175.871C330.008 177.773 328.201 179.555 326.336 181.14L327.899 184.494C329.872 182.804 331.786 180.929 333.583 178.922L331.708 175.871ZM340.723 162.732C339.443 165.162 338.037 167.512 336.533 169.691L338.682 172.385C340.274 170.074 341.758 167.591 343.116 165.03L340.723 162.732ZM346.925 146.899C346.153 149.685 345.235 152.445 344.21 155.086L346.798 156.935C347.892 154.148 348.859 151.23 349.669 148.272L346.925 146.899ZM349.855 129.428C349.65 132.399 349.298 135.384 348.82 138.289L351.672 139.16C352.189 136.097 352.56 132.941 352.775 129.785L349.855 129.428ZM352.258 110.862L349.367 111.522C349.738 114.453 349.962 117.451 350.041 120.449L352.971 120.303C352.883 117.134 352.648 113.965 352.258 110.862ZM348.136 92.744L345.47 94.3947C346.388 97.1017 347.189 99.9277 347.843 102.78L350.636 101.618C349.953 98.5939 349.113 95.6095 348.136 92.744ZM340.684 76.7128L338.428 79.2482C339.834 81.5459 341.143 83.9889 342.315 86.5111L344.796 84.3983C343.555 81.7308 342.168 79.1426 340.684 76.7128ZM330.419 63.8113L328.719 67.0334C330.516 68.7633 332.245 70.678 333.866 72.7116L335.859 69.8065C334.15 67.6672 332.323 65.6468 330.419 63.8113ZM318.034 54.9241L317.008 58.6348C319.079 59.678 321.12 60.9193 323.074 62.3191L324.441 58.8197C322.38 57.3407 320.222 56.0334 318.034 54.9241ZM304.37 50.6985L304.096 54.6468C306.294 54.9241 308.501 55.3995 310.65 56.0598L311.304 52.2039C309.029 51.504 306.694 51.0022 304.37 50.6985ZM290.569 50.3815V54.3431H297.406V50.3815H290.569ZM276.895 50.3815V54.3431H283.732V50.3815H276.895ZM263.221 50.3815V54.3431H270.058V50.3815H263.221ZM249.547 50.3815V54.3431H256.384V50.3815H249.547ZM235.874 50.3815V54.3431H242.711V50.3815H235.874ZM222.2 50.3815V54.3431H229.037V50.3815H222.2ZM208.526 50.3815V54.3431H215.363V50.3815H208.526ZM194.852 50.3815V54.3431H201.689V50.3815H194.852ZM181.178 50.3815V54.3431H188.015V50.3815H181.178ZM167.504 50.3815V54.3431H174.341V50.3815H167.504ZM153.83 50.3815V54.3431H160.667V50.3815H153.83ZM140.156 50.3815V54.3431H146.993V50.3815H140.156ZM126.483 50.3815V54.3431H133.32V50.3815H126.483ZM112.809 50.3815V54.3431H119.646V50.3815H112.809ZM99.1349 50.3815V54.3431H105.972V50.3815H99.1349ZM85.461 50.3815V54.3431H92.2979V50.3815H85.461ZM71.7871 50.3815V54.3431H78.6241V50.3815H71.7871ZM60.3988 50.3815C59.6565 50.3815 58.9239 50.3551 58.1914 50.3023L58.0351 54.2507C58.8165 54.3167 59.6076 54.3431 60.3988 54.3431H64.9502V50.3815H60.3988ZM45.3966 46.3936L44.2831 50.0514C46.4612 51.2663 48.7271 52.2435 51.0322 52.9434L51.6768 49.0742C49.5378 48.4272 47.4281 47.516 45.3966 46.3936ZM34.2719 37.0178L32.3283 39.9758C34.0961 42.0886 36.0007 44.0166 37.9931 45.6937L39.5461 42.3395C37.6904 40.7681 35.9128 38.9854 34.2719 37.0178ZM26.009 23.2315L23.4598 25.1727C24.6123 27.9458 25.9504 30.6001 27.435 33.0827L29.7107 30.5869C28.3335 28.2759 27.0834 25.8065 26.009 23.2315ZM21.5552 6.54008L18.6739 7.23996C19.0841 10.3828 19.7092 13.486 20.5004 16.4836L23.2644 15.1367C22.5124 12.3504 21.9459 9.45844 21.5552 6.54008ZM18 -11.5379V-2.26782L20.9301 -2.32065V-11.5379H18ZM18 -30.0253V-20.7816H20.9301V-30.0253H18ZM18 -48.5126V-39.269H20.9301V-48.5126H18ZM18 -67V-57.7563H20.9301V-67H18Z" fill="white"/>
</g>
<defs>
<linearGradient id="paint0_linear_531_656" x1="11" y1="263" x2="360" y2="263" gradientUnits="userSpaceOnUse">
<stop stop-color="#251E52"/>
<stop offset="0.22" stop-color="#5444B8"/>
<stop offset="0.585" stop-color="#02234E"/>
<stop offset="0.8" stop-color="#052B5D"/>
<stop offset="0.891438" stop-color="#159199"/>
</linearGradient>
<clipPath id="clip0_531_656">
<rect width="371" height="123" fill="white"/>
</clipPath>
</defs>
</svg>
