<svg width="43" height="56" viewBox="0 0 43 56" fill="none" xmlns="http://www.w3.org/2000/svg">
<path d="M9.78892 34.7227C9.59038 34.7062 9.40292 34.7539 9.21188 34.7965C8.95889 34.8526 8.70199 34.9 8.44379 34.9271C7.79372 34.9957 7.46314 34.7564 7.35882 34.1513C7.31024 33.8692 7.32817 33.5855 7.37544 33.3045C7.44651 32.8827 7.46281 32.4577 7.44912 32.0325C7.42891 31.4156 7.23363 31.2073 6.60507 31.0551C6.28525 30.9777 5.96217 30.9616 5.63649 30.9546C5.24527 30.9461 4.85471 30.9339 4.47066 30.8534C4.36503 30.8313 4.25484 30.8231 4.1528 30.7921C3.68464 30.6496 3.4773 30.3626 3.56076 29.9119C3.61194 29.6349 3.71268 29.3642 3.81081 29.097C3.93763 28.7528 4.09901 28.4196 4.21898 28.0734C4.5238 27.1941 4.35754 26.8512 3.45415 26.5025C3.05348 26.3479 2.63749 26.2276 2.23193 26.084C1.94797 25.9831 1.66466 25.8762 1.42733 25.6919C1.11012 25.4455 1.04067 25.1953 1.1789 24.8293C1.25943 24.6166 1.38788 24.4295 1.53198 24.2513C1.78007 23.9439 2.03762 23.6429 2.27594 23.3291C2.42558 23.1317 2.56609 22.9243 2.67661 22.7065C2.83962 22.3848 2.80278 22.069 2.52469 21.8108C2.31017 21.6115 2.08001 21.4251 1.84299 21.2489C1.52057 21.0092 1.18445 20.7854 0.854521 20.5546C0.660868 20.4191 0.504056 20.253 0.380171 20.0595C0.232813 19.8299 0.239007 19.6015 0.376259 19.3688C0.505034 19.1507 0.69021 18.9815 0.898206 18.8333C1.24345 18.5876 1.59914 18.3543 1.94047 18.1044C2.14456 17.9549 2.33919 17.7921 2.52241 17.6205C2.79952 17.3611 2.82951 17.0523 2.68183 16.7233C2.52925 16.3834 2.28605 16.0967 2.05034 15.8061C1.84104 15.5476 1.62522 15.2934 1.43026 15.0258C1.32202 14.8769 1.23237 14.7108 1.16619 14.5419C1.03318 14.2024 1.11272 13.9576 1.41298 13.738C1.65456 13.5615 1.93591 13.4491 2.21987 13.348C2.58467 13.218 2.95437 13.1001 3.32146 12.9753C3.56728 12.8915 3.7994 12.7836 4.01164 12.6385C4.23919 12.4826 4.35167 12.2761 4.34482 12.014C4.33895 11.7904 4.31385 11.5708 4.2255 11.3591C4.09966 11.0575 3.9774 10.7547 3.86232 10.4492C3.76158 10.1822 3.65204 9.91582 3.58391 9.64094C3.44274 9.07236 3.669 8.73553 4.27342 8.60978C4.65453 8.53051 5.04184 8.48221 5.43566 8.481C5.80438 8.48009 6.1718 8.46733 6.53596 8.38775C7.23852 8.23407 7.4351 8.0248 7.44977 7.34019C7.45858 6.93532 7.44162 6.53105 7.37642 6.12892C7.32426 5.80757 7.30339 5.48531 7.3849 5.16336C7.50715 4.68104 7.7784 4.46357 8.30817 4.49667C8.65211 4.51824 8.99149 4.60298 9.3325 4.66129C9.75893 4.73419 10.1824 4.82834 10.6121 4.87876C11.2103 4.94893 11.5155 4.77732 11.7153 4.25187C11.8379 3.9293 11.9077 3.58882 11.9924 3.25472C12.0524 3.01872 12.0837 2.77574 12.1545 2.54308C12.219 2.33047 12.2979 2.11634 12.4094 1.92226C12.5917 1.60547 12.844 1.50311 13.2267 1.56568C13.5289 1.61519 13.8035 1.73972 14.0708 1.8767C14.4512 2.07169 14.8304 2.26912 15.2138 2.45925C15.4247 2.56374 15.6441 2.64878 15.887 2.67612C16.1892 2.70983 16.4523 2.64574 16.6466 2.42189C16.7963 2.24968 16.941 2.07048 17.0607 1.87943C17.2791 1.52984 17.4757 1.1684 17.6843 0.813644C17.8317 0.56337 18.008 0.333143 18.25 0.153335C18.4733 -0.0125015 18.7119 -0.0486453 18.9792 0.0685944C19.2798 0.200413 19.5273 0.3948 19.7594 0.60893C20.0528 0.879553 20.3332 1.16263 20.6334 1.42627C20.8059 1.57783 20.9963 1.71694 21.1978 1.83326C21.4775 1.99515 21.7748 1.98149 22.0663 1.83934C22.3007 1.72514 22.4937 1.56203 22.6792 1.39073C22.9879 1.10583 23.2898 0.814555 23.5972 0.528441C23.7824 0.355923 23.9875 0.209525 24.2209 0.093804C24.5306 -0.0595796 24.8061 -0.0106791 25.064 0.190086C25.2328 0.321298 25.3658 0.481363 25.4731 0.659045C25.6645 0.976443 25.8467 1.299 26.0417 1.61458C26.1933 1.85969 26.3488 2.10358 26.5203 2.33685C26.7397 2.63572 27.0579 2.7402 27.4324 2.66366C27.6212 2.62509 27.8106 2.56799 27.9844 2.48993C28.2579 2.36722 28.5174 2.21809 28.7844 2.08293C29.1088 1.91922 29.425 1.74063 29.7794 1.63371C30.3917 1.44874 30.7203 1.58178 30.9645 2.14307C31.0535 2.34778 31.1109 2.56616 31.166 2.78212C31.2259 3.01812 31.2602 3.25958 31.3176 3.49619C31.37 3.71305 31.4255 3.93022 31.5017 4.1404C31.7368 4.78795 32.0364 4.96776 32.782 4.86267C33.3604 4.78127 33.9305 4.65188 34.5063 4.55225C34.697 4.51915 34.8942 4.48847 35.0863 4.49758C35.5495 4.51915 35.8064 4.74269 35.8684 5.167C35.8948 5.34651 35.8967 5.53087 35.8889 5.7125C35.8703 6.15747 35.8504 6.60304 35.8094 7.04648C35.7905 7.25211 35.8221 7.44923 35.8426 7.65C35.8804 8.02328 36.1191 8.23711 36.4823 8.33339C36.8376 8.42785 37.2031 8.47675 37.5754 8.47918C38.01 8.48191 38.4449 8.49102 38.87 8.59004C38.975 8.61434 39.0825 8.63378 39.1823 8.67113C39.5918 8.82482 39.7489 9.07327 39.6981 9.47906C39.6472 9.88575 39.4783 10.2602 39.3228 10.6378C39.1904 10.9585 39.0708 11.2826 38.958 11.6103C38.764 12.1741 38.9939 12.575 39.5308 12.8016C39.9253 12.968 40.3377 13.0983 40.7419 13.2444C41.0657 13.3613 41.3989 13.4591 41.6923 13.6377C42.1683 13.9275 42.2713 14.251 42.016 14.7272C41.9003 14.9429 41.7477 15.143 41.5981 15.3407C41.4481 15.5391 41.2776 15.7237 41.1221 15.9187C40.9927 16.0809 40.8613 16.2434 40.7485 16.4159C40.3458 17.0322 40.3957 17.3672 40.977 17.8474C41.2202 18.0482 41.4911 18.2198 41.748 18.406C42.0049 18.5922 42.2758 18.7647 42.5138 18.9703C43.1707 19.5377 43.161 19.9076 42.4904 20.4826C42.3469 20.6056 42.1894 20.7149 42.0336 20.8246C41.7565 21.0202 41.4745 21.2091 41.198 21.4053C41.0774 21.491 40.9545 21.5778 40.8515 21.6805C40.4052 22.1261 40.3811 22.3858 40.6722 22.8787C40.8179 23.1253 41.006 23.3513 41.1834 23.5809C41.3862 23.8437 41.6036 24.0967 41.8038 24.3612C41.9032 24.4927 41.9942 24.6343 42.061 24.7822C42.2413 25.1822 42.1542 25.4932 41.7718 25.7359C41.5586 25.8711 41.3177 25.9731 41.0787 26.0676C40.8195 26.1699 40.5463 26.2416 40.2826 26.3352C40.0394 26.4214 39.7965 26.5098 39.5611 26.6128C38.9557 26.8776 38.7536 27.2828 38.972 27.8459C39.09 28.1499 39.195 28.4579 39.3114 28.7626C39.4425 29.1052 39.6064 29.4368 39.67 29.8001C39.7776 30.4136 39.5628 30.7143 38.9006 30.8364C38.4742 30.9151 38.0422 30.957 37.606 30.9567C37.2582 30.9567 36.9142 30.9877 36.5739 31.07C36.1207 31.1796 35.8615 31.4223 35.8257 31.8718C35.8097 32.0744 35.8051 32.2731 35.8185 32.476C35.8521 32.9811 35.871 33.4868 35.8896 33.9925C35.9124 34.617 35.6089 35.0325 34.7263 34.9107C34.2976 34.8517 33.8741 34.7588 33.451 34.6698C33.3085 34.6397 33.2547 34.7014 33.2123 34.8034C32.8247 34.8147 32.4491 34.5188 32.053 34.7652C31.6794 35.0206 31.5924 35.4155 31.4753 35.796C31.4339 36.2826 31.3521 36.7631 31.164 37.2184C30.8556 37.9644 30.3702 38.1624 29.5698 37.8918C28.9947 37.6974 28.5099 37.3411 27.9547 37.1094C27.1354 36.7674 26.8143 36.8624 26.3628 37.5962C26.0824 38.0521 25.8177 38.5168 25.5145 38.96C25.3 39.2734 25.0444 39.5477 24.5952 39.5529C23.9047 39.473 23.4821 39.015 23.0339 38.5925C22.7982 38.3644 22.568 38.1308 22.301 37.9328C21.5802 37.5522 21.1358 37.6293 20.5011 38.3115C20.1584 38.6799 19.8138 39.0365 19.3734 39.3038C18.7726 39.6683 18.3826 39.6224 17.8816 39.1337C17.684 38.9412 17.5487 38.7124 17.4225 38.4771C17.2579 38.1703 17.0946 37.8632 16.8892 37.5768C16.3659 36.8469 16.066 36.754 15.2135 37.1358C14.6876 37.3715 14.1956 37.6728 13.6571 37.8863C12.9206 38.1782 12.3957 37.9607 12.1131 37.2624C11.8982 36.7312 11.8676 36.156 11.6547 35.625C11.5699 35.3344 11.5367 35.0206 11.2452 34.8214C11.0076 34.6528 10.7458 34.6409 10.4638 34.695C10.2427 34.7372 10.0197 34.8405 9.78957 34.723L9.78892 34.7227Z" fill="#FCAB28"/>
<path d="M11.7533 35.5901C11.9205 35.7857 11.9629 36.019 12.0128 36.2577C12.0871 36.6128 12.1738 36.9697 12.3029 37.3102C12.5028 37.8374 12.9488 38.0133 13.4958 37.7882C13.9121 37.6169 14.3281 37.4344 14.7122 37.2093C15.03 37.0228 15.3639 36.8922 15.7156 36.7899C16.1408 36.666 16.4573 36.7516 16.7312 37.0988C16.9486 37.3746 17.138 37.6707 17.3245 37.9662C17.4562 38.1749 17.5674 38.3957 17.6786 38.615C17.7829 38.8206 17.9361 38.9883 18.1099 39.1426C18.4939 39.4834 18.7332 39.5353 19.2578 39.1963C19.6474 38.9445 20.0226 38.6715 20.2873 38.2839C20.5012 37.9711 20.8572 37.7858 21.179 37.5872C21.5219 37.3755 22.0524 37.5264 22.4553 37.8912C22.5799 38.0871 22.5202 38.2769 22.4472 38.4735C21.369 41.3777 20.2714 44.2756 19.1766 47.1744C18.4561 49.0812 17.7516 50.9935 17.006 52.8921C16.9027 53.1558 16.9089 53.5233 16.4665 53.5597C15.8069 52.633 15.1461 51.7073 14.4879 50.7797C14.081 50.2062 13.6777 49.6304 13.2741 49.0551C12.9814 48.6381 13.0107 48.7256 12.5941 48.8555C10.9079 49.3813 9.22862 49.9256 7.54607 50.4605C7.30025 50.5385 7.04987 50.6041 6.80178 50.6755C6.75711 50.6886 6.71473 50.7065 6.67463 50.7293L6.53151 50.7557C6.34829 50.516 6.50022 50.2852 6.56835 50.0617C7.1304 48.2132 7.83492 46.4069 8.46803 44.5796C9.42097 41.8288 10.3635 39.0742 11.3559 36.3352C11.4511 36.0725 11.4866 35.7757 11.7533 35.5898V35.5901Z" fill="#FE5629"/>
<path d="M24.5233 39.4504C24.874 39.4182 25.1342 39.2499 25.3102 38.9735C25.6092 38.5046 25.9013 38.0317 26.1908 37.5576C26.3088 37.3641 26.4112 37.163 26.5859 37.0045C26.8549 36.7606 27.1545 36.6588 27.5307 36.7736C28.0096 36.92 28.4436 37.1478 28.871 37.3872C29.1888 37.5651 29.5132 37.7255 29.8695 37.823C30.339 37.9518 30.6155 37.8579 30.8623 37.4746C30.9395 37.3547 30.9985 37.2204 31.0396 37.0856C31.1762 36.6394 31.3014 36.1899 31.3157 35.7215C31.7754 35.542 31.7523 35.9417 31.8295 36.1349C32.2772 37.2511 32.6279 38.3983 33.0042 39.536C34.1012 42.8546 35.2628 46.1543 36.3536 49.475C36.4107 49.6484 36.4915 49.8191 36.4863 50.0035C36.4808 50.1982 36.4449 50.3838 36.1482 50.2978C34.7483 49.8231 33.3484 49.3487 31.9489 48.8733C31.4618 48.7078 30.9773 48.5359 30.4893 48.3734C30.2546 48.2953 30.206 48.3093 30.056 48.5085C29.4346 49.3326 28.8201 50.1611 28.1997 50.9861C27.5796 51.8107 26.956 52.6329 26.3339 53.456C26.0203 53.4593 25.9398 53.2294 25.8743 53.0213C24.8731 49.841 23.7467 46.6959 22.8026 43.4994C22.7693 43.1674 22.8814 42.8628 23.006 42.5597C23.3617 41.6931 23.702 40.8211 24.0597 39.9555C24.147 39.7441 24.1725 39.461 24.5229 39.4498L24.5233 39.4504Z" fill="#CD3414"/>
<path d="M9.78844 34.7225C10.0349 34.5825 10.3244 34.5776 10.593 34.512C10.876 34.4431 11.1502 34.5038 11.3553 34.7265C11.457 34.977 11.3412 35.2045 11.2627 35.4338C10.1907 38.5574 9.08751 41.6718 8.00123 44.7911C7.28433 46.8498 6.53384 48.8982 5.88899 50.9781C5.14177 51.2305 4.39259 51.4784 3.58212 51.7043C3.57886 51.4762 3.66819 51.3156 3.7285 51.1519C4.76392 48.3469 5.80129 45.5423 6.83899 42.7379C7.79878 40.1435 8.75986 37.5496 9.71965 34.9549C9.74769 34.8789 9.76562 34.8 9.78844 34.7222V34.7225Z" fill="#FE5629"/>
<path d="M17.9233 55.5553C17.4978 55.1158 17.1982 54.6602 16.9348 54.1809C17.5174 52.5295 18.1649 50.8991 18.782 49.2592C19.8301 46.4737 20.89 43.6919 21.931 40.9039C22.1807 40.2354 22.4647 39.5788 22.7 38.9054C22.762 38.7277 22.791 38.4914 23.0838 38.4805C23.1679 38.5412 23.2647 38.5916 23.3345 38.6645C23.667 39.0114 24.0514 39.2872 24.5228 39.45C24.4527 39.549 24.3601 39.6401 24.3158 39.7485C24.0266 40.4584 23.7488 41.1724 23.4649 41.8841C23.3677 42.1277 23.2624 42.3685 23.1646 42.6118C23.0518 42.8924 22.926 43.171 22.9442 43.4808C22.7763 43.8565 22.7229 44.2638 22.5788 44.6465C22.2752 45.0814 22.2518 45.636 21.8915 46.0464C21.6627 46.2031 21.6281 46.4582 21.5381 46.6797C20.5721 49.0597 19.6133 51.4424 18.6526 53.8243C18.4697 54.2781 18.2887 54.7324 18.1036 55.1853" fill="#FE5629"/>
<path d="M31.9502 34.6055C32.2543 34.532 32.549 34.4594 32.8728 34.5688C33.0257 34.6204 33.102 34.7234 33.2122 34.8035C35.089 40.1039 36.9662 45.4049 38.8431 50.7056C38.8838 50.8207 38.9272 50.9355 38.9611 51.0525C38.9771 51.1072 39.0077 51.1831 38.9285 51.2116C38.8763 51.2305 38.8075 51.2171 38.7475 51.2083C38.7058 51.2022 38.6673 51.1782 38.6266 51.164C38.1415 50.9902 37.6375 50.862 37.1749 50.6342C36.5701 49.0524 36.0579 47.442 35.5158 45.8414C34.3519 42.4065 33.1981 38.9686 32.0375 35.5325C31.9365 35.2336 31.7252 34.9348 31.9495 34.6052L31.9502 34.6055Z" fill="#CD3414"/>
<path d="M23.084 38.4805C23.0413 38.5492 22.9862 38.6136 22.9581 38.6868C22.6175 39.5806 22.2826 40.4763 21.9429 41.3702C21.2492 43.1965 20.5495 45.0204 19.8604 46.8483C19.4082 48.0477 18.9746 49.2535 18.524 50.4539C18.095 51.5965 17.6529 52.7352 17.2219 53.8772C17.1678 54.0203 17.0938 54.1311 16.935 54.1809C16.6061 54.0871 16.5164 53.8365 16.4666 53.5601C16.6067 53.4827 16.6612 53.3587 16.7124 53.219C17.0915 52.1873 17.4759 51.157 17.8668 50.1289C18.5038 48.4538 19.148 46.7809 19.7863 45.1061C19.9096 44.7826 20.0139 44.4528 20.1352 44.1284C20.8188 42.2969 21.5054 40.4666 22.1897 38.6354C22.282 38.3888 22.4482 38.1647 22.4554 37.8916C22.7061 38.0498 22.9184 38.2436 23.0837 38.4808L23.084 38.4805Z" fill="#FFA93D"/>
<path d="M5.88896 50.9782C5.75399 50.7465 5.80713 50.5208 5.89092 50.2845C6.73594 47.8936 7.57706 45.5011 8.41589 43.1083C9.05977 41.2707 9.70821 39.4341 10.3364 37.5916C10.6634 36.6325 10.9757 35.6693 11.3556 34.7266C11.7151 34.9237 11.7487 35.2511 11.7533 35.5904C11.764 35.8212 11.6486 36.0238 11.5756 36.2328C11.2607 37.1357 10.9063 38.0272 10.6126 38.936C9.99347 40.851 9.27722 42.7362 8.61639 44.6382C8.06217 46.2328 7.49849 47.8243 6.94687 49.4198C6.7943 49.8608 6.66944 50.3103 6.53186 50.7559C6.36983 50.9609 6.10446 50.9066 5.88929 50.9782H5.88896Z" fill="#FFA93D"/>
<path d="M31.9497 34.6056C31.964 34.7046 31.9631 34.8082 31.995 34.902C32.3953 36.0729 32.8048 37.2407 33.2029 38.4119C33.986 40.716 34.7635 43.0219 35.543 45.3269C36.0239 46.7484 36.5054 48.1696 36.9837 49.5916C37.0675 49.841 37.131 50.0964 37.2164 50.3455C37.2536 50.4542 37.2184 50.542 37.1747 50.6343C36.7577 50.7194 36.4712 50.4579 36.1468 50.2978C36.33 50.2677 36.4135 50.1778 36.3545 50.001C36.1745 49.4619 35.9975 48.9216 35.8143 48.3834C35.1195 46.3451 34.4205 44.3079 33.7271 42.269C33.2625 40.9037 32.8051 39.5363 32.3432 38.1702C32.0895 37.4196 31.8304 36.671 31.58 35.9195C31.5363 35.7883 31.4809 35.6978 31.3149 35.7212C31.4753 35.1933 31.6615 34.8656 31.9497 34.605V34.6056Z" fill="#F09E36"/>
<path d="M24.7793 55.1135C23.8227 52.1315 22.8682 49.1489 21.9143 46.1662C21.9019 46.1277 21.8993 46.0867 21.8921 46.0469C21.912 45.5345 22.1992 45.1007 22.3775 44.6354C22.3915 44.5993 22.4893 44.5911 22.548 44.5698C22.7475 44.6561 22.8059 44.8322 22.8623 45.0063C23.7973 47.9045 24.7819 50.7887 25.6944 53.6933C25.7547 53.8855 25.8342 54.0805 25.7123 54.2792C25.4965 54.6506 25.2028 54.968 24.984 55.2894" fill="#CD3414"/>
<path d="M25.7117 54.2791C25.1686 52.6022 24.6287 50.9244 24.0814 49.249C23.6911 48.0548 23.2901 46.8635 22.8963 45.6699C22.7757 45.3045 22.6635 44.9367 22.5475 44.5698C22.4881 44.1464 22.6247 43.7849 22.9439 43.4812C23.6174 45.539 24.2929 47.5961 24.9635 49.6545C25.3147 50.7315 25.6521 51.8125 26.0081 52.8883C26.0752 53.0918 26.0837 53.3375 26.3331 53.456C26.206 53.623 26.3452 53.8843 26.189 53.9948C26.0449 54.0966 25.8712 54.184 25.7117 54.2794V54.2791Z" fill="#F09E36"/>
<path d="M6.6748 50.7292C6.70039 50.677 6.74217 50.6575 6.80143 50.6755C6.7765 50.7295 6.73439 50.748 6.6748 50.7292Z" fill="#FFA93D"/>
<path d="M21.6459 35.3359C21.4288 35.3359 21.2113 35.3304 20.9945 35.3368C19.7948 35.3717 18.6267 35.1822 17.4723 34.9033C16.5275 34.6752 15.6195 34.3591 14.7191 34.0022C13.3482 33.4588 12.142 32.6846 10.9722 31.8521C10.492 31.5104 10.0362 31.1295 9.62024 30.7216C9.12991 30.2405 8.6748 29.7248 8.23925 29.1993C7.08972 27.8125 6.23165 26.272 5.64157 24.6142C5.30936 23.6808 5.09517 22.715 4.94325 21.7324C4.76525 20.5804 4.84251 19.432 4.85686 18.2842C4.86435 17.6885 5.0404 17.0926 5.16396 16.5013C5.35044 15.6092 5.61908 14.7387 6.00442 13.9013C6.35554 13.1393 6.76469 12.4052 7.19274 11.678C7.58037 11.0192 8.04755 10.4072 8.56689 9.84745C9.12861 9.24212 9.59937 8.5402 10.3668 8.11619C10.9331 7.55126 11.6106 7.11935 12.2887 6.68137C13.9503 5.60739 15.7825 4.9085 17.7376 4.47295C18.3665 4.33294 19.0049 4.22754 19.6416 4.12124C19.8316 4.08965 20.0312 4.10757 20.2268 4.10423C20.4651 4.10028 20.6972 4.07689 20.9342 4.03467C21.4245 3.9475 21.9246 3.95267 22.4199 4.03862C22.5682 4.06444 22.7182 4.10149 22.8671 4.09967C23.8726 4.08722 24.8412 4.30256 25.8042 4.52672C27.6289 4.95133 29.3108 5.67876 30.8841 6.63824C31.7947 7.19346 32.6485 7.80578 33.3964 8.54415C33.6051 8.75008 33.832 8.94021 34.0386 9.14766C34.8654 9.97836 35.5823 10.8807 36.1949 11.8642C36.6761 12.6372 37.0667 13.4415 37.4122 14.2704C37.703 14.9677 37.9143 15.687 38.0744 16.4171C38.2126 17.0465 38.2817 17.6885 38.3756 18.3246C38.4773 19.0134 38.478 19.695 38.4591 20.3778C38.4434 20.9369 38.3117 21.4925 38.2478 22.0513C38.1578 22.8368 37.9609 23.5982 37.6968 24.3463C37.555 24.7478 37.4289 25.1557 37.2571 25.5463C36.7713 26.6504 36.1476 27.6807 35.4275 28.6729C34.678 29.7056 33.7661 30.5895 32.8011 31.4299C32.1227 32.0206 31.3712 32.5415 30.5744 32.9911C29.6655 33.5035 28.7259 33.9624 27.7349 34.3302C26.806 34.6752 25.8463 34.9055 24.8705 35.0889C24.448 35.1685 24.0242 35.2438 23.599 35.3106C23.4504 35.334 23.2962 35.3316 23.1446 35.3322C22.6451 35.3346 22.1457 35.3331 21.6462 35.3331V35.3359H21.6459Z" fill="#FFCE45"/>
<path d="M15.1158 9.83818C15.1393 9.66779 15.2345 9.55511 15.387 9.4491C15.8653 9.11652 16.4306 8.96131 16.9623 8.73777C17.8373 8.37026 18.7766 8.21292 19.7035 8.01823C19.87 7.9833 20.049 7.99728 20.2225 7.99333C20.4605 7.98756 20.6929 7.9669 20.9302 7.92347C21.4206 7.83417 21.9229 7.83144 22.4146 7.93137C22.5861 7.96629 22.7543 7.98664 22.928 7.99272C23.6225 8.01611 24.2973 8.14458 24.9656 8.3171C26.2508 8.64878 27.4547 9.1554 28.5678 9.8312C29.1086 10.1595 29.642 10.5109 30.102 10.9441C30.681 11.4896 31.2896 12.0099 31.7774 12.6337C31.9684 12.8782 32.1673 13.1209 32.3244 13.3842C32.9142 14.372 33.5228 15.3509 33.8039 16.4716C33.8971 16.8428 34.0275 17.2073 34.1012 17.5842C34.1129 17.6434 34.1442 17.6996 34.153 17.7588C34.289 18.6807 34.3891 19.6131 34.2841 20.5355C34.1175 22.001 33.7882 23.4334 33.0684 24.7738C32.5807 25.6823 32.0248 26.5476 31.3268 27.3184C30.8267 27.8709 30.2784 28.3933 29.6469 28.8334C29.301 29.0746 28.9632 29.3246 28.6069 29.5554C27.3791 30.3506 26.0245 30.8684 24.5806 31.1925C23.9517 31.3338 23.3202 31.4513 22.662 31.4634C22.2141 31.4716 21.7629 31.6235 21.3097 31.5585C20.5638 31.4516 19.8091 31.4203 19.0661 31.2782C17.6913 31.0154 16.4136 30.527 15.2028 29.8865C14.4882 29.5083 13.8088 29.0719 13.2285 28.5176C12.9859 28.2858 12.7463 28.0501 12.4894 27.8324C11.6933 27.1581 11.0902 26.3453 10.5734 25.4784C10.0248 24.5578 9.57225 23.5947 9.33133 22.5596C9.14355 21.7532 8.9375 20.9474 9.00173 20.1088C9.02488 19.8066 9.01412 19.5017 9.00401 19.1982C8.96359 17.9876 9.27167 16.8334 9.7095 15.7129C10.0805 14.7638 10.5461 13.8489 11.1938 13.0264C11.4755 12.6689 11.7347 12.2963 12.0819 11.9868C12.1582 11.9187 12.2077 11.8249 12.2697 11.7429C12.6655 11.6281 12.8885 11.7781 12.9729 12.1411C12.9305 12.3725 12.76 12.5314 12.6107 12.7045C10.0587 15.6625 9.24885 18.9701 10.3205 22.6528C10.6866 24.1472 11.4882 25.4417 12.5047 26.6159C14.5899 29.0245 17.3356 30.3755 20.6169 30.6349C24.0512 30.9064 27.0925 29.9153 29.6394 27.7188C31.6939 25.9468 32.9448 23.7596 33.2764 21.1691C33.5962 18.6709 33.1685 16.2858 31.7252 14.1098C29.8239 11.2481 27.1092 9.47917 23.5465 8.90057C21.0531 8.4957 18.6618 8.85835 16.3856 9.89407C16.0237 10.0587 15.6905 10.3299 15.2377 10.2546C15.0421 10.155 15.0004 10.0162 15.1161 9.83788L15.1158 9.83818Z" fill="#FCAB28"/>
<path d="M15.1158 9.83809C15.1302 9.96779 15.1501 10.0957 15.2687 10.1859C15.8536 10.2943 16.3345 10.609 16.8202 10.8984C17.2232 11.1384 17.2001 11.3157 16.7984 11.5721C16.7629 11.5949 16.7267 11.6207 16.6859 11.6316C15.527 11.9451 15.0389 12.7348 14.8061 13.7802C14.7061 14.2303 14.6503 14.7467 14.2275 15.0954C14.1254 15.1275 14.027 15.1209 13.9321 15.0726C13.4137 14.1435 13.225 13.1187 12.9485 12.1191C12.7666 11.9241 12.5306 11.8142 12.2694 11.7431C11.9483 11.546 11.6272 11.3488 11.2627 11.1253C11.4638 10.9537 11.6872 10.8857 11.8834 10.7803C12.2955 10.5588 12.8194 10.4583 13.1034 10.1081C13.3687 9.78099 13.4708 9.33937 13.6455 8.94847C13.817 8.56395 13.9412 8.15938 14.161 7.80371C14.3403 7.82831 14.3377 7.94677 14.3738 8.03485C14.6226 8.63532 14.8687 9.23701 15.1158 9.83809Z" fill="white"/>
<path d="M12.9482 12.1188C13.1076 12.1795 13.1451 12.3135 13.1868 12.4502C13.3977 13.1387 13.6126 13.8264 13.8258 14.5143C13.8789 14.6862 13.9311 14.8584 13.9839 15.0307C14.0579 15.1376 14.1371 15.1236 14.2193 15.0392C14.4397 14.3858 14.6601 13.7322 14.8798 13.0786C14.9378 12.9055 14.9998 12.7329 15.0487 12.5577C15.1233 12.2895 15.2707 12.0997 15.5599 11.9821C15.956 11.8214 16.3328 11.6182 16.7169 11.4321C16.829 11.3777 16.962 11.3455 17.022 11.1748C16.5265 10.9072 16.0225 10.6354 15.5194 10.3626C15.4285 10.3134 15.3137 10.2919 15.269 10.1856C15.4953 10.1725 15.6769 10.0543 15.8673 9.96049C16.9461 9.43018 18.0705 9.01316 19.2722 8.80298C19.8225 8.70669 20.3741 8.59917 20.9394 8.601C21.3518 8.60252 21.7642 8.60191 22.1763 8.60039C23.0265 8.59705 23.8478 8.76987 24.6683 8.95181C25.3667 9.10701 26.0259 9.36518 26.6825 9.62366C27.3426 9.88365 27.9353 10.2633 28.5222 10.6451C29.7255 11.4284 30.712 12.4113 31.5593 13.5214C31.6858 13.6873 31.8022 13.8567 31.8292 14.0651C32.1478 14.8293 32.0496 15.6308 31.9609 16.4008C31.3412 21.7814 26.8993 26.0536 21.107 26.6945C17.1772 27.1294 13.6836 26.0904 10.8134 23.4595C10.5634 23.2301 10.3541 22.9768 10.1816 22.6944C9.93384 22.1923 9.84516 21.6556 9.79072 21.1125C9.74247 20.6317 9.6414 20.1576 9.65933 19.668C9.71117 18.2648 9.99187 16.9101 10.5327 15.5977C10.9409 14.607 11.5264 13.7155 12.2088 12.876C12.4291 12.6051 12.7007 12.37 12.9488 12.1185L12.9482 12.1188Z" fill="#FFE266"/>
<path d="M10.1807 22.6947C10.5347 22.9021 10.7959 23.205 11.0775 23.482C11.6797 24.0745 12.377 24.5572 13.1229 24.9636C14.4192 25.67 15.8018 26.19 17.2865 26.4561C17.8208 26.5518 18.3551 26.6004 18.8983 26.5894C19.3322 26.5806 19.7664 26.5849 20.2007 26.5882C21.4966 26.5979 22.7253 26.2963 23.9287 25.8854C24.9729 25.5288 25.949 25.045 26.8272 24.4105C27.5774 23.8683 28.3191 23.3201 28.9046 22.5996C29.362 22.0368 29.82 21.4813 30.2197 20.8784C30.5311 20.4088 30.7665 19.9116 30.9689 19.4041C31.2995 18.5746 31.5913 17.7354 31.7194 16.8452C31.7888 16.3613 31.8162 15.8836 31.8237 15.4006C31.8306 14.9557 31.8273 14.5107 31.8283 14.0654C31.9756 14.1295 32.0444 14.2528 32.1184 14.3795C32.7137 15.3979 33.1128 16.4849 33.3586 17.6151C33.4737 18.1439 33.5643 18.6852 33.5245 19.2355C33.4998 19.5778 33.518 19.9229 33.5203 20.2667C33.5275 21.4734 33.1933 22.6139 32.7633 23.7392C32.3287 24.8776 31.6262 25.8723 30.8297 26.8023C30.3469 27.3664 29.7923 27.8882 29.156 28.3189C28.8938 28.4962 28.6689 28.7143 28.3934 28.8811C27.1666 29.6225 25.8717 30.2157 24.4369 30.5167C23.9955 30.6093 23.5528 30.6858 23.1009 30.7359C22.6934 30.7812 22.2898 30.8283 21.878 30.8423C20.6992 30.8817 19.5526 30.7104 18.422 30.4225C16.9875 30.0571 15.6636 29.4815 14.4948 28.6138C14.1065 28.3255 13.7114 28.0449 13.3309 27.7479C13.1832 27.6324 13.0643 27.4839 12.9384 27.3457C12.8686 27.2692 12.8246 27.1705 12.7474 27.1027C11.993 26.4424 11.4815 25.6123 11.0016 24.7834C10.627 24.1362 10.2693 23.4537 10.181 22.695L10.1807 22.6947Z" fill="#FED732"/>
<path d="M14.2179 15.0395C14.2202 15.1191 14.2127 15.2211 14.1243 15.2309C13.9769 15.2473 13.9801 15.13 13.9834 15.031C14.0617 15.0337 14.1396 15.0368 14.2179 15.0395Z" fill="#FDF4C9"/>
</svg>
